{
.appVersion = "944";
date = "2016-08-13 07:57:59 +0000";
designer = "Ninad Kale (Devanagari), Jonny Pinhorn (Latin)";
disablesAutomaticAlignment = 1;
disablesNiceNames = 1;
familyName = Poppins;
fontMaster = (
{
ascender = 757;
capHeight = 462;
descender = -435;
id = "C0ED9D5D-A651-429A-8F5D-D93A2EDA2DC0";
weight = Light;
weightValue = 0;
xHeight = 676;
},
{
ascender = 737;
capHeight = 738;
descender = -163;
id = "22D14058-393A-410A-BECB-F56B411A01B2";
weight = Bold;
xHeight = 472;
}
);
glyphs = (
{
color = 4;
glyphname = A;
lastChange = "2016-08-13 07:58:21 +0000";
layers = (
{
anchors = (
{
name = ogonek;
position = "{632, 0}";
},
{
name = top;
position = "{343, 690}";
}
);
layerId = "C0ED9D5D-A651-429A-8F5D-D93A2EDA2DC0";
paths = (
{
closed = 1;
nodes = (
"307 690 LINE",
"53 0 LINE",
"123 0 LINE",
"360 650 LINE",
"326 650 LINE",
"562 0 LINE",
"632 0 LINE",
"379 690 LINE"
);
},
{
closed = 1;
nodes = (
"157 161 LINE",
"530 161 LINE",
"511 217 LINE",
"175 217 LINE"
);
}
);
width = 685;
},
{
anchors = (
{
name = ogonek;
position = "{704, 0}";
},
{
name = top;
position = "{357, 704}";
}
);
layerId = "22D14058-393A-410A-BECB-F56B411A01B2";
paths = (
{
closed = 1;
nodes = (
"253 704 LINE",
"9 0 LINE",
"191 0 LINE",
"395 614 LINE",
"318 614 LINE",
"521 0 LINE",
"704 0 LINE",
"461 704 LINE"
);
},
{
closed = 1;
nodes = (
"113 118 LINE",
"584 118 LINE",
"541 248 LINE",
"156 248 LINE"
);
}
);
width = 713;
}
);
unicode = 0041;
userData = {
com.schriftgestaltung.Glyphs.ColorIndex = 4;
public.markColor = "0.67,0.95,0.38,1";
};
},
{
color = 8;
glyphname = Aogonek;
lastChange = "2016-08-13 07:58:21 +0000";
layers = (
{
layerId = "C0ED9D5D-A651-429A-8F5D-D93A2EDA2DC0";
paths = (
{
closed = 1;
nodes = (
"157 161 LINE",
"530 161 LINE",
"511 217 LINE",
"175 217 LINE"
);
},
{
closed = 1;
nodes = (
"53 0 LINE",
"123 0 LINE",
"352 628 LINE",
"334 628 LINE",
"571 -24 LINE",
"584 2 LINE",
"507 0 OFFCURVE",
"459 -39 OFFCURVE",
"459 -98 CURVE SMOOTH",
"459 -158 OFFCURVE",
"509 -199 OFFCURVE",
"585 -199 CURVE SMOOTH",
"662 -199 LINE",
"662 -144 LINE",
"587 -144 LINE SMOOTH",
"552 -144 OFFCURVE",
"531 -128 OFFCURVE",
"531 -98 CURVE SMOOTH",
"531 -68 OFFCURVE",
"552 -53 OFFCURVE",
"587 -53 CURVE SMOOTH",
"632 -53 LINE",
"632 2 LINE",
"379 690 LINE",
"307 690 LINE"
);
}
);
width = 685;
},
{
layerId = "22D14058-393A-410A-BECB-F56B411A01B2";
paths = (
{
closed = 1;
nodes = (
"113 118 LINE",
"584 118 LINE",
"541 248 LINE",
"156 248 LINE"
);
},
{
closed = 1;
nodes = (
"9 0 LINE",
"191 0 LINE",
"368 532 LINE",
"345 532 LINE",
"529 -25 LINE",
"525 0 LINE",
"493 -17 OFFCURVE",
"471 -46 OFFCURVE",
"471 -93 CURVE SMOOTH",
"471 -173 OFFCURVE",
"536 -212 OFFCURVE",
"601 -212 CURVE SMOOTH",
"744 -212 LINE",
"744 -119 LINE",
"649 -119 LINE SMOOTH",
"614 -119 OFFCURVE",
"593 -123 OFFCURVE",
"593 -93 CURVE SMOOTH",
"593 -63 OFFCURVE",
"614 -68 OFFCURVE",
"649 -68 CURVE SMOOTH",
"704 -68 LINE",
"704 0 LINE",
"461 704 LINE",
"253 704 LINE"
);
}
);
width = 713;
}
);
unicode = 0104;
userData = {
com.schriftgestaltung.Glyphs.ColorIndex = 8;
public.markColor = "0.5,0.09,0.79,1";
};
},
{
color = 4;
glyphname = AE;
lastChange = "2016-08-13 07:58:21 +0000";
layers = (
{
layerId = "C0ED9D5D-A651-429A-8F5D-D93A2EDA2DC0";
paths = (
{
closed = 1;
nodes = (
"148 161 LINE",
"492 161 LINE",
"492 217 LINE",
"180 217 LINE"
);
},
{
closed = 1;
nodes = (
"812 633 LINE",
"812 690 LINE",
"420 690 LINE",
"14 0 LINE",
"90 0 LINE",
"461 636 LINE",
"461 0 LINE",
"812 0 LINE",
"812 56 LINE",
"531 56 LINE",
"531 319 LINE",
"782 319 LINE",
"782 375 LINE",
"531 375 LINE",
"531 633 LINE"
);
}
);
width = 873;
},
{
layerId = "22D14058-393A-410A-BECB-F56B411A01B2";
paths = (
{
closed = 1;
nodes = (
"157 118 LINE",
"567 118 LINE",
"567 248 LINE",
"230 248 LINE"
);
},
{
closed = 1;
nodes = (
"910 574 LINE",
"910 704 LINE",
"364 704 LINE",
"9 0 LINE",
"195 0 LINE",
"485 592 LINE",
"485 0 LINE",
"910 0 LINE",
"910 130 LINE",
"656 130 LINE",
"656 293 LINE",
"880 293 LINE",
"880 423 LINE",
"656 423 LINE",
"656 574 LINE"
);
}
);
width = 982;
}
);
unicode = 00C6;
userData = {
com.schriftgestaltung.Glyphs.ColorIndex = 4;
public.markColor = "0.67,0.95,0.38,1";
};
},
{
color = 4;
glyphname = B;
lastChange = "2016-08-13 07:58:21 +0000";
layers = (
{
layerId = "C0ED9D5D-A651-429A-8F5D-D93A2EDA2DC0";
paths = (
{
closed = 1;
nodes = (
"456 508 CURVE SMOOTH",
"456 434 OFFCURVE",
"403 384 OFFCURVE",
"308 384 CURVE SMOOTH",
"145 384 LINE",
"145 633 LINE",
"308 633 LINE SMOOTH",
"403 633 OFFCURVE",
"456 582 OFFCURVE"
);
},
{
closed = 1;
nodes = (
"543 183 CURVE SMOOTH",
"543 275 OFFCURVE",
"470 357 OFFCURVE",
"365 359 CURVE",
"348 347 LINE",
"457 361 OFFCURVE",
"527 412 OFFCURVE",
"527 506 CURVE SMOOTH",
"527 609 OFFCURVE",
"455 690 OFFCURVE",
"308 690 CURVE SMOOTH",
"75 690 LINE",
"75 0 LINE",
"319 0 LINE SMOOTH",
"456 0 OFFCURVE",
"543 84 OFFCURVE"
);
},
{
closed = 1;
nodes = (
"475 192 CURVE SMOOTH",
"475 108 OFFCURVE",
"419 56 OFFCURVE",
"318 56 CURVE SMOOTH",
"145 56 LINE",
"145 327 LINE",
"309 327 LINE SMOOTH",
"409 327 OFFCURVE",
"475 275 OFFCURVE"
);
}
);
width = 595;
},
{
layerId = "22D14058-393A-410A-BECB-F56B411A01B2";
paths = (
{
closed = 1;
nodes = (
"440 495 CURVE SMOOTH",
"440 443 OFFCURVE",
"405 420 OFFCURVE",
"358 420 CURVE SMOOTH",
"246 420 LINE",
"246 572 LINE",
"358 572 LINE SMOOTH",
"405 572 OFFCURVE",
"440 547 OFFCURVE"
);
},
{
closed = 1;
nodes = (
"630 183 CURVE SMOOTH",
"630 275 OFFCURVE",
"563 355 OFFCURVE",
"452 359 CURVE",
"435 347 LINE",
"544 368 OFFCURVE",
"614 424 OFFCURVE",
"614 518 CURVE SMOOTH",
"614 621 OFFCURVE",
"527 702 OFFCURVE",
"380 702 CURVE SMOOTH",
"75 702 LINE",
"75 0 LINE",
"397 0 LINE SMOOTH",
"545 0 OFFCURVE",
"630 72 OFFCURVE"
);
},
{
closed = 1;
nodes = (
"456 209 CURVE SMOOTH",
"456 159 OFFCURVE",
"421 130 OFFCURVE",
"375 130 CURVE SMOOTH",
"246 130 LINE",
"246 290 LINE",
"377 290 LINE SMOOTH",
"422 290 OFFCURVE",
"456 260 OFFCURVE"
);
}
);
width = 674;
}
);
unicode = 0042;
userData = {
com.schriftgestaltung.Glyphs.ColorIndex = 4;
public.markColor = "0.67,0.95,0.38,1";
};
},
{
color = 4;
glyphname = C;
lastChange = "2016-08-13 07:58:21 +0000";
layers = (
{
anchors = (
{
name = bottom;
position = "{390, 0}";
},
{
name = top;
position = "{390, 690}";
}
);
layerId = "C0ED9D5D-A651-429A-8F5D-D93A2EDA2DC0";
paths = (
{
closed = 1;
nodes = (
"40 345 CURVE SMOOTH",
"40 139 OFFCURVE",
"196 -6 OFFCURVE",
"391 -6 CURVE SMOOTH",
"529 -6 OFFCURVE",
"647 57 OFFCURVE",
"704 182 CURVE",
"619 182 LINE",
"576 101 OFFCURVE",
"492 54 OFFCURVE",
"391 54 CURVE SMOOTH",
"233 54 OFFCURVE",
"112 168 OFFCURVE",
"112 345 CURVE SMOOTH",
"112 523 OFFCURVE",
"233 636 OFFCURVE",
"391 636 CURVE SMOOTH",
"492 636 OFFCURVE",
"576 590 OFFCURVE",
"619 509 CURVE",
"704 509 LINE",
"647 634 OFFCURVE",
"529 697 OFFCURVE",
"391 697 CURVE SMOOTH",
"196 697 OFFCURVE",
"40 552 OFFCURVE"
);
}
);
width = 780;
},
{
anchors = (
{
name = bottom;
position = "{382, 0}";
},
{
name = top;
position = "{382, 704}";
}
);
layerId = "22D14058-393A-410A-BECB-F56B411A01B2";
paths = (
{
closed = 1;
nodes = (
"34 353 CURVE SMOOTH",
"34 142 OFFCURVE",
"195 -6 OFFCURVE",
"394 -6 CURVE SMOOTH",
"547 -6 OFFCURVE",
"680 78 OFFCURVE",
"729 228 CURVE",
"525 228 LINE",
"496 172 OFFCURVE",
"454 151 OFFCURVE",
"394 151 CURVE SMOOTH",
"281 151 OFFCURVE",
"208 231 OFFCURVE",
"208 353 CURVE SMOOTH",
"208 476 OFFCURVE",
"281 555 OFFCURVE",
"394 555 CURVE SMOOTH",
"454 555 OFFCURVE",
"496 534 OFFCURVE",
"525 478 CURVE",
"729 478 LINE",
"680 628 OFFCURVE",
"547 712 OFFCURVE",
"394 712 CURVE SMOOTH",
"195 712 OFFCURVE",
"34 564 OFFCURVE"
);
}
);
width = 764;
}
);
unicode = 0043;
userData = {
com.schriftgestaltung.Glyphs.ColorIndex = 4;
public.markColor = "0.67,0.95,0.38,1";
};
},
{
color = 4;
glyphname = D;
lastChange = "2016-08-13 07:58:21 +0000";
layers = (
{
anchors = (
{
name = top;
position = "{343, 690}";
}
);
layerId = "C0ED9D5D-A651-429A-8F5D-D93A2EDA2DC0";
paths = (
{
closed = 1;
nodes = (
"287 690 CURVE SMOOTH",
"75 690 LINE",
"75 0 LINE",
"287 0 LINE SMOOTH",
"510 0 OFFCURVE",
"643 121 OFFCURVE",
"643 341 CURVE SMOOTH",
"643 560 OFFCURVE",
"510 690 OFFCURVE"
);
},
{
closed = 1;
nodes = (
"145 54 LINE",
"145 628 LINE",
"287 628 LINE SMOOTH",
"475 628 OFFCURVE",
"571 519 OFFCURVE",
"571 341 CURVE SMOOTH",
"571 163 OFFCURVE",
"475 54 OFFCURVE",
"287 54 CURVE SMOOTH"
);
}
);
width = 685;
},
{
anchors = (
{
name = top;
position = "{370, 704}";
}
);
layerId = "22D14058-393A-410A-BECB-F56B411A01B2";
paths = (
{
closed = 1;
nodes = (
"322 702 CURVE SMOOTH",
"75 702 LINE",
"75 0 LINE",
"322 0 LINE SMOOTH",
"545 0 OFFCURVE",
"706 143 OFFCURVE",
"706 351 CURVE SMOOTH",
"706 560 OFFCURVE",
"545 702 OFFCURVE"
);
},
{
closed = 1;
nodes = (
"246 130 LINE",
"246 572 LINE",
"322 572 LINE SMOOTH",
"454 572 OFFCURVE",
"532 485 OFFCURVE",
"532 351 CURVE SMOOTH",
"532 217 OFFCURVE",
"454 130 OFFCURVE",
"322 130 CURVE SMOOTH"
);
}
);
width = 739;
}
);
unicode = 0044;
userData = {
com.schriftgestaltung.Glyphs.ColorIndex = 4;
public.markColor = "0.67,0.95,0.38,1";
};
},
{
color = 4;
glyphname = Eth;
lastChange = "2016-08-13 07:58:21 +0000";
layers = (
{
layerId = "C0ED9D5D-A651-429A-8F5D-D93A2EDA2DC0";
paths = (
{
closed = 1;
nodes = (
"0 311 LINE",
"369 311 LINE",
"369 371 LINE",
"0 371 LINE"
);
},
{
closed = 1;
nodes = (
"307 690 CURVE SMOOTH",
"95 690 LINE",
"95 0 LINE",
"307 0 LINE SMOOTH",
"530 0 OFFCURVE",
"663 121 OFFCURVE",
"663 341 CURVE SMOOTH",
"663 560 OFFCURVE",
"530 690 OFFCURVE"
);
},
{
closed = 1;
nodes = (
"165 54 LINE",
"165 628 LINE",
"307 628 LINE SMOOTH",
"495 628 OFFCURVE",
"591 519 OFFCURVE",
"591 341 CURVE SMOOTH",
"591 163 OFFCURVE",
"495 54 OFFCURVE",
"307 54 CURVE SMOOTH"
);
}
);
width = 705;
},
{
layerId = "22D14058-393A-410A-BECB-F56B411A01B2";
paths = (
{
closed = 1;
nodes = (
"20 269 LINE",
"391 269 LINE",
"391 433 LINE",
"20 433 LINE"
);
},
{
closed = 1;
nodes = (
"322 702 CURVE SMOOTH",
"75 702 LINE",
"75 0 LINE",
"322 0 LINE SMOOTH",
"545 0 OFFCURVE",
"706 143 OFFCURVE",
"706 351 CURVE SMOOTH",
"706 560 OFFCURVE",
"545 702 OFFCURVE"
);
},
{
closed = 1;
nodes = (
"246 130 LINE",
"246 572 LINE",
"322 572 LINE SMOOTH",
"454 572 OFFCURVE",
"532 485 OFFCURVE",
"532 351 CURVE SMOOTH",
"532 217 OFFCURVE",
"454 130 OFFCURVE",
"322 130 CURVE SMOOTH"
);
}
);
width = 739;
}
);
unicode = 00D0;
userData = {
com.schriftgestaltung.Glyphs.ColorIndex = 4;
public.markColor = "0.67,0.95,0.38,1";
};
},
{
color = 4;
glyphname = E;
lastChange = "2016-08-13 07:58:21 +0000";
layers = (
{
anchors = (
{
name = bottom;
position = "{244, 0}";
},
{
name = ogonek;
position = "{426, 0}";
},
{
name = top;
position = "{244, 690}";
}
);
layerId = "C0ED9D5D-A651-429A-8F5D-D93A2EDA2DC0";
paths = (
{
closed = 1;
nodes = (
"426 690 LINE",
"75 690 LINE",
"75 0 LINE",
"426 0 LINE",
"426 56 LINE",
"145 56 LINE",
"145 319 LINE",
"396 319 LINE",
"396 375 LINE",
"145 375 LINE",
"145 633 LINE",
"426 633 LINE"
);
}
);
width = 487;
},
{
anchors = (
{
name = bottom;
position = "{286, 0}";
},
{
name = ogonek;
position = "{500, 0}";
},
{
name = top;
position = "{286, 704}";
}
);
layerId = "22D14058-393A-410A-BECB-F56B411A01B2";
paths = (
{
closed = 1;
nodes = (
"500 704 LINE",
"75 704 LINE",
"75 0 LINE",
"500 0 LINE",
"500 130 LINE",
"246 130 LINE",
"246 293 LINE",
"470 293 LINE",
"470 423 LINE",
"246 423 LINE",
"246 574 LINE",
"500 574 LINE"
);
}
);
width = 572;
}
);
unicode = 0045;
userData = {
com.schriftgestaltung.Glyphs.ColorIndex = 4;
public.markColor = "0.67,0.95,0.38,1";
};
},
{
color = 4;
glyphname = F;
lastChange = "2016-08-13 07:58:21 +0000";
layers = (
{
layerId = "C0ED9D5D-A651-429A-8F5D-D93A2EDA2DC0";
paths = (
{
closed = 1;
nodes = (
"75 0 LINE",
"145 0 LINE",
"145 319 LINE",
"386 319 LINE",
"386 375 LINE",
"145 375 LINE",
"145 633 LINE",
"447 633 LINE",
"447 690 LINE",
"75 690 LINE"
);
}
);
width = 468;
},
{
layerId = "22D14058-393A-410A-BECB-F56B411A01B2";
paths = (
{
closed = 1;
nodes = (
"75 0 LINE",
"246 0 LINE",
"246 291 LINE",
"460 291 LINE",
"460 421 LINE",
"246 421 LINE",
"246 572 LINE",
"532 572 LINE",
"532 702 LINE",
"75 702 LINE"
);
}
);
width = 575;
}
);
unicode = 0046;
userData = {
com.schriftgestaltung.Glyphs.ColorIndex = 4;
public.markColor = "0.67,0.95,0.38,1";
};
},
{
color = 4;
glyphname = G;
lastChange = "2016-08-13 07:58:21 +0000";
layers = (
{
anchors = (
{
name = bottom;
position = "{390, 0}";
},
{
name = top;
position = "{390, 690}";
}
);
layerId = "C0ED9D5D-A651-429A-8F5D-D93A2EDA2DC0";
paths = (
{
closed = 1;
nodes = (
"40 345 CURVE SMOOTH",
"40 139 OFFCURVE",
"196 -6 OFFCURVE",
"391 -6 CURVE SMOOTH",
"576 -6 OFFCURVE",
"722 121 OFFCURVE",
"741 315 CURVE",
"741 371 LINE",
"358 371 LINE",
"358 315 LINE",
"668 315 LINE",
"653 154 OFFCURVE",
"548 54 OFFCURVE",
"391 54 CURVE SMOOTH",
"233 54 OFFCURVE",
"112 168 OFFCURVE",
"112 345 CURVE SMOOTH",
"112 523 OFFCURVE",
"233 636 OFFCURVE",
"391 636 CURVE SMOOTH",
"492 636 OFFCURVE",
"576 590 OFFCURVE",
"619 509 CURVE",
"704 509 LINE",
"647 634 OFFCURVE",
"529 697 OFFCURVE",
"391 697 CURVE SMOOTH",
"196 697 OFFCURVE",
"40 552 OFFCURVE"
);
}
);
width = 780;
},
{
anchors = (
{
name = bottom;
position = "{382, 0}";
},
{
name = top;
position = "{382, 704}";
}
);
layerId = "22D14058-393A-410A-BECB-F56B411A01B2";
paths = (
{
closed = 1;
nodes = (
"34 353 CURVE SMOOTH",
"34 142 OFFCURVE",
"195 -6 OFFCURVE",
"394 -6 CURVE SMOOTH",
"583 -6 OFFCURVE",
"706 144 OFFCURVE",
"729 263 CURVE",
"729 393 LINE",
"347 393 LINE",
"347 263 LINE",
"545 263 LINE",
"528 199 OFFCURVE",
"479 151 OFFCURVE",
"394 151 CURVE SMOOTH",
"281 151 OFFCURVE",
"208 231 OFFCURVE",
"208 353 CURVE SMOOTH",
"208 476 OFFCURVE",
"281 555 OFFCURVE",
"394 555 CURVE SMOOTH",
"454 555 OFFCURVE",
"496 534 OFFCURVE",
"525 478 CURVE",
"729 478 LINE",
"680 628 OFFCURVE",
"547 712 OFFCURVE",
"394 712 CURVE SMOOTH",
"195 712 OFFCURVE",
"34 564 OFFCURVE"
);
}
);
width = 764;
}
);
unicode = 0047;
userData = {
com.schriftgestaltung.Glyphs.ColorIndex = 4;
public.markColor = "0.67,0.95,0.38,1";
};
},
{
color = 8;
glyphname = Gcommaaccent;
lastChange = "2016-08-26 15:34:35 +0000";
layers = (
{
anchors = (
{
name = _bottom;
position = "{390, 0}";
}
);
components = (
{
name = G;
}
);
layerId = "C0ED9D5D-A651-429A-8F5D-D93A2EDA2DC0";
paths = (
{
closed = 1;
nodes = (
"346 -50 LINE",
"346 -126 LINE",
"391 -126 LINE",
"391 -151 LINE SMOOTH",
"391 -183 OFFCURVE",
"378 -200 OFFCURVE",
"345 -200 CURVE",
"345 -238 LINE",
"403 -238 OFFCURVE",
"436 -212 OFFCURVE",
"436 -135 CURVE SMOOTH",
"436 -111 OFFCURVE",
"433 -83 OFFCURVE",
"427 -50 CURVE"
);
}
);
width = 780;
},
{
anchors = (
{
name = _bottom;
position = "{382, 0}";
}
);
components = (
{
name = G;
}
);
layerId = "22D14058-393A-410A-BECB-F56B411A01B2";
paths = (
{
closed = 1;
nodes = (
"314 -40 LINE",
"314 -163 LINE",
"377 -163 LINE",
"377 -179 LINE SMOOTH",
"377 -224 OFFCURVE",
"359 -245 OFFCURVE",
"325 -245 CURVE",
"325 -310 LINE",
"420 -310 OFFCURVE",
"465 -248 OFFCURVE",
"465 -158 CURVE SMOOTH",
"465 -122 OFFCURVE",
"459 -82 OFFCURVE",
"445 -40 CURVE"
);
}
);
width = 764;
}
);
unicode = 0122;
userData = {
com.schriftgestaltung.Glyphs.ColorIndex = 8;
public.markColor = "0.5,0.09,0.79,1";
};
},
{
color = 4;
glyphname = H;
lastChange = "2016-08-13 07:58:21 +0000";
layers = (
{
layerId = "C0ED9D5D-A651-429A-8F5D-D93A2EDA2DC0";
paths = (
{
closed = 1;
nodes = (
"75 0 LINE",
"145 0 LINE",
"145 690 LINE",
"75 690 LINE"
);
},
{
closed = 1;
nodes = (
"515 0 LINE",
"585 0 LINE",
"585 690 LINE",
"515 690 LINE"
);
},
{
closed = 1;
nodes = (
"125 319 LINE",
"544 319 LINE",
"544 375 LINE",
"125 375 LINE"
);
}
);
width = 660;
},
{
layerId = "22D14058-393A-410A-BECB-F56B411A01B2";
paths = (
{
closed = 1;
nodes = (
"75 0 LINE",
"246 0 LINE",
"246 702 LINE",
"75 702 LINE"
);
},
{
closed = 1;
nodes = (
"517 0 LINE",
"688 0 LINE",
"688 702 LINE",
"517 702 LINE"
);
},
{
closed = 1;
nodes = (
"226 291 LINE",
"541 291 LINE",
"541 421 LINE",
"226 421 LINE"
);
}
);
width = 763;
}
);
unicode = 0048;
userData = {
com.schriftgestaltung.Glyphs.ColorIndex = 4;
public.markColor = "0.67,0.95,0.38,1";
};
},
{
color = 4;
glyphname = I;
lastChange = "2016-08-13 07:58:21 +0000";
layers = (
{
anchors = (
{
name = ogonek;
position = "{145, 1}";
},
{
name = top;
position = "{110, 690}";
}
);
layerId = "C0ED9D5D-A651-429A-8F5D-D93A2EDA2DC0";
paths = (
{
closed = 1;
nodes = (
"75 0 LINE",
"145 0 LINE",
"145 690 LINE",
"75 690 LINE"
);
}
);
width = 220;
},
{
anchors = (
{
name = ogonek;
position = "{246, 0}";
},
{
name = top;
position = "{161, 704}";
}
);
layerId = "22D14058-393A-410A-BECB-F56B411A01B2";
paths = (
{
closed = 1;
nodes = (
"75 0 LINE",
"246 0 LINE",
"246 702 LINE",
"75 702 LINE"
);
}
);
width = 321;
}
);
unicode = 0049;
userData = {
com.schriftgestaltung.Glyphs.ColorIndex = 4;
public.markColor = "0.67,0.95,0.38,1";
};
},
{
color = 4;
glyphname = J;
lastChange = "2016-08-13 07:58:21 +0000";
layers = (
{
layerId = "C0ED9D5D-A651-429A-8F5D-D93A2EDA2DC0";
paths = (
{
closed = 1;
nodes = (
"352 170 LINE SMOOTH",
"352 111 OFFCURVE",
"323 53 OFFCURVE",
"240 53 CURVE SMOOTH",
"157 53 OFFCURVE",
"129 111 OFFCURVE",
"128 170 CURVE",
"56 170 LINE",
"56 64 OFFCURVE",
"128 -7 OFFCURVE",
"240 -7 CURVE SMOOTH",
"351 -7 OFFCURVE",
"422 64 OFFCURVE",
"422 170 CURVE SMOOTH",
"422 690 LINE",
"352 690 LINE"
);
}
);
width = 541;
},
{
layerId = "22D14058-393A-410A-BECB-F56B411A01B2";
paths = (
{
closed = 1;
nodes = (
"323 224 LINE SMOOTH",
"323 167 OFFCURVE",
"294 146 OFFCURVE",
"261 146 CURVE SMOOTH",
"228 146 OFFCURVE",
"200 167 OFFCURVE",
"199 224 CURVE",
"29 224 LINE",
"29 73 OFFCURVE",
"131 -7 OFFCURVE",
"261 -7 CURVE SMOOTH",
"391 -7 OFFCURVE",
"494 73 OFFCURVE",
"494 224 CURVE SMOOTH",
"494 702 LINE",
"323 702 LINE"
);
}
);
width = 594;
}
);
unicode = 004A;
userData = {
com.schriftgestaltung.Glyphs.ColorIndex = 4;
public.markColor = "0.67,0.95,0.38,1";
};
},
{
color = 4;
glyphname = K;
lastChange = "2016-08-13 07:58:21 +0000";
layers = (
{
anchors = (
{
name = bottom;
position = "{283, 0}";
},
{
name = top;
position = "{283, 690}";
}
);
layerId = "C0ED9D5D-A651-429A-8F5D-D93A2EDA2DC0";
paths = (
{
closed = 1;
nodes = (
"75 0 LINE",
"145 0 LINE",
"145 690 LINE",
"75 690 LINE"
);
},
{
closed = 1;
nodes = (
"118 338 LINE",
"440 0 LINE",
"535 0 LINE",
"186 355 LINE",
"179 318 LINE",
"535 690 LINE",
"444 690 LINE"
);
}
);
width = 565;
},
{
anchors = (
{
name = bottom;
position = "{360, 0}";
},
{
name = top;
position = "{360, 704}";
}
);
layerId = "22D14058-393A-410A-BECB-F56B411A01B2";
paths = (
{
closed = 1;
nodes = (
"75 0 LINE",
"246 0 LINE",
"246 702 LINE",
"75 702 LINE"
);
},
{
closed = 1;
nodes = (
"214 352 LINE",
"482 0 LINE",
"702 0 LINE",
"399 368 LINE",
"391 325 LINE",
"702 702 LINE",
"478 702 LINE"
);
}
);
width = 720;
}
);
unicode = 004B;
userData = {
com.schriftgestaltung.Glyphs.ColorIndex = 4;
public.markColor = "0.67,0.95,0.38,1";
};
},
{
color = 8;
glyphname = Kcommaaccent;
lastChange = "2016-08-26 15:34:35 +0000";
layers = (
{
anchors = (
{
name = _bottom;
position = "{283, 0}";
}
);
components = (
{
name = K;
}
);
layerId = "C0ED9D5D-A651-429A-8F5D-D93A2EDA2DC0";
paths = (
{
closed = 1;
nodes = (
"239 -50 LINE",
"239 -126 LINE",
"284 -126 LINE",
"284 -151 LINE SMOOTH",
"284 -183 OFFCURVE",
"271 -200 OFFCURVE",
"238 -200 CURVE",
"238 -238 LINE",
"296 -238 OFFCURVE",
"329 -212 OFFCURVE",
"329 -135 CURVE SMOOTH",
"329 -111 OFFCURVE",
"326 -83 OFFCURVE",
"320 -50 CURVE"
);
}
);
width = 565;
},
{
anchors = (
{
name = _bottom;
position = "{360, 0}";
}
);
components = (
{
name = K;
}
);
layerId = "22D14058-393A-410A-BECB-F56B411A01B2";
paths = (
{
closed = 1;
nodes = (
"292 -40 LINE",
"292 -163 LINE",
"355 -163 LINE",
"355 -179 LINE SMOOTH",
"355 -224 OFFCURVE",
"337 -245 OFFCURVE",
"303 -245 CURVE",
"303 -310 LINE",
"398 -310 OFFCURVE",
"443 -248 OFFCURVE",
"443 -158 CURVE SMOOTH",
"443 -122 OFFCURVE",
"437 -82 OFFCURVE",
"423 -40 CURVE"
);
}
);
width = 720;
}
);
unicode = 0136;
userData = {
com.schriftgestaltung.Glyphs.ColorIndex = 8;
public.markColor = "0.5,0.09,0.79,1";
};
},
{
color = 4;
glyphname = L;
lastChange = "2016-08-13 07:58:21 +0000";
layers = (
{
anchors = (
{
name = bottom;
position = "{230, 0}";
},
{
name = commaaccent;
position = "{230, 10}";
},
{
name = top;
position = "{208, 690}";
},
{
name = topright;
position = "{396, 690}";
}
);
layerId = "C0ED9D5D-A651-429A-8F5D-D93A2EDA2DC0";
paths = (
{
closed = 1;
nodes = (
"75 690 LINE",
"75 0 LINE",
"396 0 LINE",
"396 54 LINE",
"145 54 LINE",
"145 690 LINE"
);
}
);
width = 416;
},
{
anchors = (
{
name = bottom;
position = "{270, 0}";
},
{
name = commaaccent;
position = "{270, 10}";
},
{
name = top;
position = "{240, 704}";
},
{
name = topright;
position = "{459, 704}";
}
);
layerId = "22D14058-393A-410A-BECB-F56B411A01B2";
paths = (
{
closed = 1;
nodes = (
"75 702 LINE",
"75 0 LINE",
"459 0 LINE",
"459 130 LINE",
"246 130 LINE",
"246 702 LINE"
);
}
);
width = 479;
}
);
unicode = 004C;
userData = {
com.schriftgestaltung.Glyphs.ColorIndex = 4;
public.markColor = "0.67,0.95,0.38,1";
};
},
{
color = 8;
glyphname = Lcaron;
lastChange = "2016-08-26 15:34:35 +0000";
layers = (
{
anchors = (
{
name = _bottom;
position = "{312, 740}";
}
);
components = (
{
name = L;
}
);
layerId = "C0ED9D5D-A651-429A-8F5D-D93A2EDA2DC0";
paths = (
{
closed = 1;
nodes = (
"268 690 LINE",
"268 614 LINE",
"313 614 LINE",
"313 589 LINE SMOOTH",
"313 557 OFFCURVE",
"300 540 OFFCURVE",
"267 540 CURVE",
"267 502 LINE",
"325 502 OFFCURVE",
"358 528 OFFCURVE",
"358 605 CURVE SMOOTH",
"358 629 OFFCURVE",
"355 657 OFFCURVE",
"349 690 CURVE"
);
}
);
width = 416;
},
{
anchors = (
{
name = _bottom;
position = "{403, 742}";
}
);
components = (
{
name = L;
}
);
layerId = "22D14058-393A-410A-BECB-F56B411A01B2";
paths = (
{
closed = 1;
nodes = (
"335 702 LINE",
"335 579 LINE",
"398 579 LINE",
"398 563 LINE SMOOTH",
"398 518 OFFCURVE",
"380 497 OFFCURVE",
"346 497 CURVE",
"346 432 LINE",
"441 432 OFFCURVE",
"486 494 OFFCURVE",
"486 584 CURVE SMOOTH",
"486 620 OFFCURVE",
"480 660 OFFCURVE",
"466 702 CURVE"
);
}
);
width = 523;
}
);
unicode = 013D;
userData = {
com.schriftgestaltung.Glyphs.ColorIndex = 8;
public.markColor = "0.5,0.09,0.79,1";
};
},
{
color = 8;
glyphname = Lcommaaccent;
lastChange = "2016-08-26 15:34:35 +0000";
layers = (
{
anchors = (
{
name = _commaaccent;
position = "{230, 10}";
}
);
components = (
{
name = L;
}
);
layerId = "C0ED9D5D-A651-429A-8F5D-D93A2EDA2DC0";
paths = (
{
closed = 1;
nodes = (
"186 -50 LINE",
"186 -126 LINE",
"231 -126 LINE",
"231 -151 LINE SMOOTH",
"231 -183 OFFCURVE",
"218 -200 OFFCURVE",
"185 -200 CURVE",
"185 -238 LINE",
"243 -238 OFFCURVE",
"276 -212 OFFCURVE",
"276 -135 CURVE SMOOTH",
"276 -111 OFFCURVE",
"273 -83 OFFCURVE",
"267 -50 CURVE"
);
}
);
width = 416;
},
{
anchors = (
{
name = _commaaccent;
position = "{270, 10}";
}
);
components = (
{
name = L;
}
);
layerId = "22D14058-393A-410A-BECB-F56B411A01B2";
paths = (
{
closed = 1;
nodes = (
"202 -40 LINE",
"202 -163 LINE",
"265 -163 LINE",
"265 -179 LINE SMOOTH",
"265 -224 OFFCURVE",
"247 -245 OFFCURVE",
"213 -245 CURVE",
"213 -310 LINE",
"308 -310 OFFCURVE",
"353 -248 OFFCURVE",
"353 -158 CURVE SMOOTH",
"353 -122 OFFCURVE",
"347 -82 OFFCURVE",
"333 -40 CURVE"
);
}
);
width = 479;
}
);
unicode = 013B;
userData = {
com.schriftgestaltung.Glyphs.ColorIndex = 8;
public.markColor = "0.5,0.09,0.79,1";
};
},
{
color = 4;
glyphname = Lslash;
lastChange = "2016-08-13 07:58:21 +0000";
layers = (
{
layerId = "C0ED9D5D-A651-429A-8F5D-D93A2EDA2DC0";
paths = (
{
closed = 1;
nodes = (
"0 281 LINE",
"280 391 LINE",
"280 451 LINE",
"0 341 LINE"
);
},
{
closed = 1;
nodes = (
"95 690 LINE",
"95 0 LINE",
"416 0 LINE",
"416 54 LINE",
"165 54 LINE",
"165 690 LINE"
);
}
);
width = 416;
},
{
layerId = "22D14058-393A-410A-BECB-F56B411A01B2";
paths = (
{
closed = 1;
nodes = (
"20 239 LINE",
"309 309 LINE",
"309 473 LINE",
"20 403 LINE"
);
},
{
closed = 1;
nodes = (
"75 702 LINE",
"75 0 LINE",
"459 0 LINE",
"459 130 LINE",
"246 130 LINE",
"246 702 LINE"
);
}
);
width = 479;
}
);
unicode = 0141;
userData = {
com.schriftgestaltung.Glyphs.ColorIndex = 4;
public.markColor = "0.67,0.95,0.38,1";
};
},
{
color = 4;
glyphname = M;
lastChange = "2016-08-13 07:58:21 +0000";
layers = (
{
layerId = "C0ED9D5D-A651-429A-8F5D-D93A2EDA2DC0";
paths = (
{
closed = 1;
nodes = (
"75 0 LINE",
"145 0 LINE",
"145 586 LINE",
"118 586 LINE",
"396 0 LINE",
"437 0 LINE",
"714 586 LINE",
"688 586 LINE",
"688 0 LINE",
"758 0 LINE",
"758 690 LINE",
"693 690 LINE",
"408 82 LINE",
"426 82 LINE",
"140 690 LINE",
"75 690 LINE"
);
}
);
width = 833;
},
{
layerId = "22D14058-393A-410A-BECB-F56B411A01B2";
paths = (
{
closed = 1;
nodes = (
"75 0 LINE",
"246 0 LINE",
"246 581 LINE",
"174 571 LINE",
"409 0 LINE",
"536 0 LINE",
"771 571 LINE",
"699 581 LINE",
"699 0 LINE",
"870 0 LINE",
"870 702 LINE",
"674 702 LINE",
"437 133 LINE",
"508 133 LINE",
"271 702 LINE",
"75 702 LINE"
);
}
);
width = 945;
}
);
unicode = 004D;
userData = {
com.schriftgestaltung.Glyphs.ColorIndex = 4;
public.markColor = "0.67,0.95,0.38,1";
};
},
{
color = 4;
glyphname = N;
lastChange = "2016-08-13 07:58:21 +0000";
layers = (
{
anchors = (
{
name = bottom;
position = "{339, 0}";
},
{
name = top;
position = "{339, 690}";
}
);
layerId = "C0ED9D5D-A651-429A-8F5D-D93A2EDA2DC0";
paths = (
{
closed = 1;
nodes = (
"532 690 LINE",
"532 112 LINE",
"145 690 LINE",
"75 690 LINE",
"75 0 LINE",
"145 0 LINE",
"145 578 LINE",
"532 0 LINE",
"602 0 LINE",
"602 690 LINE"
);
}
);
width = 677;
},
{
anchors = (
{
name = bottom;
position = "{389, 0}";
},
{
name = top;
position = "{389, 704}";
}
);
layerId = "22D14058-393A-410A-BECB-F56B411A01B2";
paths = (
{
closed = 1;
nodes = (
"532 704 LINE",
"532 261 LINE",
"246 704 LINE",
"75 704 LINE",
"75 0 LINE",
"246 0 LINE",
"246 443 LINE",
"532 0 LINE",
"703 0 LINE",
"703 704 LINE"
);
}
);
width = 778;
}
);
unicode = 004E;
userData = {
com.schriftgestaltung.Glyphs.ColorIndex = 4;
public.markColor = "0.67,0.95,0.38,1";
};
},
{
color = 8;
glyphname = Ncommaaccent;
lastChange = "2016-08-26 15:34:35 +0000";
layers = (
{
anchors = (
{
name = _bottom;
position = "{339, 0}";
}
);
components = (
{
name = N;
}
);
layerId = "C0ED9D5D-A651-429A-8F5D-D93A2EDA2DC0";
paths = (
{
closed = 1;
nodes = (
"295 -50 LINE",
"295 -126 LINE",
"340 -126 LINE",
"340 -151 LINE SMOOTH",
"340 -183 OFFCURVE",
"327 -200 OFFCURVE",
"294 -200 CURVE",
"294 -238 LINE",
"352 -238 OFFCURVE",
"385 -212 OFFCURVE",
"385 -135 CURVE SMOOTH",
"385 -111 OFFCURVE",
"382 -83 OFFCURVE",
"376 -50 CURVE"
);
}
);
width = 677;
},
{
anchors = (
{
name = _bottom;
position = "{389, 0}";
}
);
components = (
{
name = N;
}
);
layerId = "22D14058-393A-410A-BECB-F56B411A01B2";
paths = (
{
closed = 1;
nodes = (
"321 -40 LINE",
"321 -163 LINE",
"384 -163 LINE",
"384 -179 LINE SMOOTH",
"384 -224 OFFCURVE",
"366 -245 OFFCURVE",
"332 -245 CURVE",
"332 -310 LINE",
"427 -310 OFFCURVE",
"472 -248 OFFCURVE",
"472 -158 CURVE SMOOTH",
"472 -122 OFFCURVE",
"466 -82 OFFCURVE",
"452 -40 CURVE"
);
}
);
width = 778;
}
);
unicode = 0145;
userData = {
com.schriftgestaltung.Glyphs.ColorIndex = 8;
public.markColor = "0.5,0.09,0.79,1";
};
},
{
color = 4;
glyphname = O;
lastChange = "2016-08-13 07:58:21 +0000";
layers = (
{
anchors = (
{
name = top;
position = "{391, 690}";
}
);
layerId = "C0ED9D5D-A651-429A-8F5D-D93A2EDA2DC0";
paths = (
{
closed = 1;
nodes = (
"40 345 CURVE SMOOTH",
"40 139 OFFCURVE",
"196 -7 OFFCURVE",
"391 -7 CURVE SMOOTH",
"587 -7 OFFCURVE",
"742 139 OFFCURVE",
"742 345 CURVE SMOOTH",
"742 552 OFFCURVE",
"587 697 OFFCURVE",
"391 697 CURVE SMOOTH",
"196 697 OFFCURVE",
"40 552 OFFCURVE"
);
},
{
closed = 1;
nodes = (
"670 345 CURVE SMOOTH",
"670 168 OFFCURVE",
"549 53 OFFCURVE",
"391 53 CURVE SMOOTH",
"233 53 OFFCURVE",
"111 168 OFFCURVE",
"111 345 CURVE SMOOTH",
"111 523 OFFCURVE",
"233 636 OFFCURVE",
"391 636 CURVE SMOOTH",
"549 636 OFFCURVE",
"670 523 OFFCURVE"
);
}
);
width = 781;
},
{
anchors = (
{
name = top;
position = "{394, 704}";
}
);
layerId = "22D14058-393A-410A-BECB-F56B411A01B2";
paths = (
{
closed = 1;
nodes = (
"34 353 CURVE SMOOTH",
"34 142 OFFCURVE",
"195 -7 OFFCURVE",
"394 -7 CURVE SMOOTH",
"593 -7 OFFCURVE",
"753 142 OFFCURVE",
"753 353 CURVE SMOOTH",
"753 564 OFFCURVE",
"594 712 OFFCURVE",
"394 712 CURVE SMOOTH",
"195 712 OFFCURVE",
"34 564 OFFCURVE"
);
},
{
closed = 1;
nodes = (
"579 353 CURVE SMOOTH",
"579 231 OFFCURVE",
"506 151 OFFCURVE",
"394 151 CURVE SMOOTH",
"281 151 OFFCURVE",
"208 231 OFFCURVE",
"208 353 CURVE SMOOTH",
"208 476 OFFCURVE",
"281 555 OFFCURVE",
"394 555 CURVE SMOOTH",
"506 555 OFFCURVE",
"579 476 OFFCURVE"
);
}
);
width = 788;
}
);
unicode = 004F;
userData = {
com.schriftgestaltung.Glyphs.ColorIndex = 4;
public.markColor = "0.67,0.95,0.38,1";
};
},
{
color = 4;
glyphname = Oslash;
lastChange = "2016-08-13 07:58:21 +0000";
layers = (
{
components = (
{
name = O;
}
);
layerId = "C0ED9D5D-A651-429A-8F5D-D93A2EDA2DC0";
paths = (
{
closed = 1;
nodes = (
"29 0 LINE",
"110 0 LINE",
"753 690 LINE",
"672 690 LINE"
);
}
);
width = 781;
},
{
components = (
{
name = O;
}
);
layerId = "22D14058-393A-410A-BECB-F56B411A01B2";
paths = (
{
closed = 1;
nodes = (
"23 0 LINE",
"127 0 LINE",
"765 704 LINE",
"661 704 LINE"
);
}
);
width = 788;
}
);
unicode = 00D8;
userData = {
com.schriftgestaltung.Glyphs.ColorIndex = 4;
public.markColor = "0.67,0.95,0.38,1";
};
},
{
color = 4;
glyphname = OE;
lastChange = "2016-08-13 07:58:21 +0000";
layers = (
{
anchors = (
{
name = top;
position = "{391, 690}";
}
);
layerId = "C0ED9D5D-A651-429A-8F5D-D93A2EDA2DC0";
paths = (
{
closed = 1;
nodes = (
"111 345 CURVE SMOOTH",
"111 523 OFFCURVE",
"233 636 OFFCURVE",
"391 636 CURVE SMOOTH",
"549 636 OFFCURVE",
"670 523 OFFCURVE",
"670 345 CURVE SMOOTH",
"670 168 OFFCURVE",
"549 53 OFFCURVE",
"391 53 CURVE SMOOTH",
"233 53 OFFCURVE",
"111 168 OFFCURVE"
);
},
{
closed = 1;
nodes = (
"1021 633 LINE",
"1021 690 LINE",
"670 690 LINE",
"670 542 LINE",
"607 649 OFFCURVE",
"507 697 OFFCURVE",
"391 697 CURVE SMOOTH",
"199 697 OFFCURVE",
"40 555 OFFCURVE",
"40 345 CURVE SMOOTH",
"40 139 OFFCURVE",
"196 -7 OFFCURVE",
"391 -7 CURVE SMOOTH",
"507 -7 OFFCURVE",
"607 41 OFFCURVE",
"670 148 CURVE",
"670 0 LINE",
"1021 0 LINE",
"1021 56 LINE",
"740 56 LINE",
"740 319 LINE",
"991 319 LINE",
"991 375 LINE",
"740 375 LINE",
"740 633 LINE"
);
}
);
width = 1082;
},
{
layerId = "22D14058-393A-410A-BECB-F56B411A01B2";
paths = (
{
closed = 1;
nodes = (
"208 353 CURVE SMOOTH",
"208 476 OFFCURVE",
"281 555 OFFCURVE",
"394 555 CURVE SMOOTH",
"506 555 OFFCURVE",
"579 476 OFFCURVE",
"579 353 CURVE SMOOTH",
"579 231 OFFCURVE",
"506 151 OFFCURVE",
"394 151 CURVE SMOOTH",
"281 151 OFFCURVE",
"208 231 OFFCURVE"
);
},
{
closed = 1;
nodes = (
"1004 572 LINE",
"1004 702 LINE",
"579 702 LINE",
"579 639 LINE",
"527 686 OFFCURVE",
"462 712 OFFCURVE",
"394 712 CURVE SMOOTH",
"195 712 OFFCURVE",
"34 564 OFFCURVE",
"34 353 CURVE SMOOTH",
"34 142 OFFCURVE",
"195 -7 OFFCURVE",
"394 -7 CURVE",
"462 -7 OFFCURVE",
"527 20 OFFCURVE",
"579 63 CURVE",
"579 0 LINE",
"1004 0 LINE",
"1004 130 LINE",
"750 130 LINE",
"750 291 LINE",
"974 291 LINE",
"974 421 LINE",
"750 421 LINE",
"750 572 LINE"
);
}
);
width = 1076;
}
);
unicode = 0152;
userData = {
com.schriftgestaltung.Glyphs.ColorIndex = 4;
public.markColor = "0.67,0.95,0.38,1";
};
},
{
color = 4;
glyphname = P;
lastChange = "2016-08-13 07:58:21 +0000";
layers = (
{
layerId = "C0ED9D5D-A651-429A-8F5D-D93A2EDA2DC0";
paths = (
{
closed = 1;
nodes = (
"145 346 LINE",
"145 633 LINE",
"286 633 LINE SMOOTH",
"404 633 OFFCURVE",
"451 578 OFFCURVE",
"451 489 CURVE SMOOTH",
"451 403 OFFCURVE",
"404 346 OFFCURVE",
"286 346 CURVE SMOOTH"
);
},
{
closed = 1;
nodes = (
"522 489 CURVE SMOOTH",
"522 604 OFFCURVE",
"446 690 OFFCURVE",
"286 690 CURVE SMOOTH",
"75 690 LINE",
"75 0 LINE",
"145 0 LINE",
"145 289 LINE",
"286 289 LINE SMOOTH",
"448 289 OFFCURVE",
"522 375 OFFCURVE"
);
}
);
width = 562;
},
{
layerId = "22D14058-393A-410A-BECB-F56B411A01B2";
paths = (
{
closed = 1;
nodes = (
"246 403 LINE",
"246 572 LINE",
"352 572 LINE SMOOTH",
"404 572 OFFCURVE",
"436 536 OFFCURVE",
"436 487 CURVE SMOOTH",
"436 437 OFFCURVE",
"404 403 OFFCURVE",
"352 403 CURVE SMOOTH"
);
},
{
closed = 1;
nodes = (
"610 487 CURVE SMOOTH",
"610 598 OFFCURVE",
"524 702 OFFCURVE",
"352 702 CURVE SMOOTH",
"75 702 LINE",
"75 0 LINE",
"246 0 LINE",
"246 273 LINE",
"352 273 LINE SMOOTH",
"558 273 OFFCURVE",
"610 406 OFFCURVE"
);
}
);
width = 638;
}
);
unicode = 0050;
userData = {
com.schriftgestaltung.Glyphs.ColorIndex = 4;
public.markColor = "0.67,0.95,0.38,1";
};
},
{
color = 4;
glyphname = Thorn;
lastChange = "2016-08-13 07:58:21 +0000";
layers = (
{
layerId = "C0ED9D5D-A651-429A-8F5D-D93A2EDA2DC0";
paths = (
{
closed = 1;
nodes = (
"145 202 LINE",
"145 489 LINE",
"286 489 LINE SMOOTH",
"404 489 OFFCURVE",
"451 434 OFFCURVE",
"451 345 CURVE SMOOTH",
"451 259 OFFCURVE",
"404 202 OFFCURVE",
"286 202 CURVE SMOOTH"
);
},
{
closed = 1;
nodes = (
"522 345 CURVE SMOOTH",
"522 460 OFFCURVE",
"446 546 OFFCURVE",
"286 546 CURVE SMOOTH",
"145 546 LINE",
"145 690 LINE",
"75 690 LINE",
"75 0 LINE",
"145 0 LINE",
"145 145 LINE",
"286 145 LINE SMOOTH",
"448 145 OFFCURVE",
"522 231 OFFCURVE"
);
}
);
width = 562;
},
{
layerId = "22D14058-393A-410A-BECB-F56B411A01B2";
paths = (
{
closed = 1;
nodes = (
"246 268 LINE",
"246 437 LINE",
"352 437 LINE SMOOTH",
"404 437 OFFCURVE",
"436 401 OFFCURVE",
"436 352 CURVE SMOOTH",
"436 302 OFFCURVE",
"404 268 OFFCURVE",
"352 268 CURVE SMOOTH"
);
},
{
closed = 1;
nodes = (
"610 352 CURVE SMOOTH",
"610 463 OFFCURVE",
"524 567 OFFCURVE",
"352 567 CURVE SMOOTH",
"242 567 LINE",
"242 704 LINE",
"75 704 LINE",
"75 0 LINE",
"246 0 LINE",
"246 138 LINE",
"352 138 LINE SMOOTH",
"558 138 OFFCURVE",
"610 271 OFFCURVE"
);
}
);
width = 638;
}
);
unicode = 00DE;
userData = {
com.schriftgestaltung.Glyphs.ColorIndex = 4;
public.markColor = "0.67,0.95,0.38,1";
};
},
{
color = 4;
glyphname = Q;
lastChange = "2016-08-13 07:58:21 +0000";
layers = (
{
components = (
{
name = O;
}
);
layerId = "C0ED9D5D-A651-429A-8F5D-D93A2EDA2DC0";
paths = (
{
closed = 1;
nodes = (
"478 30 LINE",
"657 -135 LINE",
"754 -135 LINE",
"535 68 LINE"
);
}
);
width = 782;
},
{
components = (
{
name = O;
}
);
layerId = "22D14058-393A-410A-BECB-F56B411A01B2";
paths = (
{
closed = 1;
nodes = (
"417 75 LINE",
"556 -115 LINE",
"763 -115 LINE",
"590 107 LINE"
);
}
);
width = 794;
}
);
unicode = 0051;
userData = {
com.schriftgestaltung.Glyphs.ColorIndex = 4;
public.markColor = "0.67,0.95,0.38,1";
};
},
{
color = 4;
glyphname = R;
lastChange = "2016-08-13 07:58:21 +0000";
layers = (
{
anchors = (
{
name = bottom;
position = "{302, 0}";
},
{
name = top;
position = "{302, 690}";
}
);
layerId = "C0ED9D5D-A651-429A-8F5D-D93A2EDA2DC0";
paths = (
{
closed = 1;
nodes = (
"451 489 CURVE SMOOTH",
"451 403 OFFCURVE",
"404 346 OFFCURVE",
"286 346 CURVE SMOOTH",
"145 346 LINE",
"145 633 LINE",
"286 633 LINE SMOOTH",
"404 633 OFFCURVE",
"451 578 OFFCURVE"
);
},
{
closed = 1;
nodes = (
"75 690 LINE",
"75 0 LINE",
"145 0 LINE",
"145 289 LINE",
"286 289 LINE SMOOTH",
"448 289 OFFCURVE",
"522 375 OFFCURVE",
"522 489 CURVE SMOOTH",
"522 604 OFFCURVE",
"446 690 OFFCURVE",
"286 690 CURVE SMOOTH"
);
},
{
closed = 1;
nodes = (
"236 315 LINE",
"440 0 LINE",
"531 0 LINE",
"320 315 LINE"
);
}
);
width = 603;
},
{
anchors = (
{
name = bottom;
position = "{334, 0}";
},
{
name = top;
position = "{334, 704}";
}
);
layerId = "22D14058-393A-410A-BECB-F56B411A01B2";
paths = (
{
closed = 1;
nodes = (
"436 487 CURVE SMOOTH",
"436 437 OFFCURVE",
"404 403 OFFCURVE",
"352 403 CURVE SMOOTH",
"246 403 LINE",
"246 572 LINE",
"352 572 LINE SMOOTH",
"404 572 OFFCURVE",
"436 536 OFFCURVE"
);
},
{
closed = 1;
nodes = (
"75 702 LINE",
"75 0 LINE",
"246 0 LINE",
"246 273 LINE",
"352 273 LINE SMOOTH",
"558 273 OFFCURVE",
"610 406 OFFCURVE",
"610 487 CURVE SMOOTH",
"610 598 OFFCURVE",
"524 702 OFFCURVE",
"352 702 CURVE SMOOTH"
);
},
{
closed = 1;
nodes = (
"242 315 LINE",
"424 0 LINE",
"624 0 LINE",
"435 315 LINE"
);
}
);
width = 668;
}
);
unicode = 0052;
userData = {
com.schriftgestaltung.Glyphs.ColorIndex = 4;
public.markColor = "0.67,0.95,0.38,1";
};
},
{
color = 8;
glyphname = Rcommaaccent;
lastChange = "2016-08-26 15:34:35 +0000";
layers = (
{
anchors = (
{
name = _bottom;
position = "{302, 0}";
}
);
components = (
{
name = R;
}
);
layerId = "C0ED9D5D-A651-429A-8F5D-D93A2EDA2DC0";
paths = (
{
closed = 1;
nodes = (
"258 -50 LINE",
"258 -126 LINE",
"303 -126 LINE",
"303 -151 LINE SMOOTH",
"303 -183 OFFCURVE",
"290 -200 OFFCURVE",
"257 -200 CURVE",
"257 -238 LINE",
"315 -238 OFFCURVE",
"348 -212 OFFCURVE",
"348 -135 CURVE SMOOTH",
"348 -111 OFFCURVE",
"345 -83 OFFCURVE",
"339 -50 CURVE"
);
}
);
width = 603;
},
{
anchors = (
{
name = _bottom;
position = "{334, 0}";
}
);
components = (
{
name = R;
}
);
layerId = "22D14058-393A-410A-BECB-F56B411A01B2";
paths = (
{
closed = 1;
nodes = (
"266 -40 LINE",
"266 -163 LINE",
"329 -163 LINE",
"329 -179 LINE SMOOTH",
"329 -224 OFFCURVE",
"311 -245 OFFCURVE",
"277 -245 CURVE",
"277 -310 LINE",
"372 -310 OFFCURVE",
"417 -248 OFFCURVE",
"417 -158 CURVE SMOOTH",
"417 -122 OFFCURVE",
"411 -82 OFFCURVE",
"397 -40 CURVE"
);
}
);
width = 668;
}
);
unicode = 0156;
userData = {
com.schriftgestaltung.Glyphs.ColorIndex = 8;
public.markColor = "0.5,0.09,0.79,1";
};
},
{
color = 4;
glyphname = S;
lastChange = "2016-08-13 07:58:21 +0000";
layers = (
{
anchors = (
{
name = bottom;
position = "{286, 0}";
},
{
name = top;
position = "{286, 690}";
}
);
layerId = "C0ED9D5D-A651-429A-8F5D-D93A2EDA2DC0";
paths = (
{
closed = 1;
nodes = (
"125 508 CURVE SMOOTH",
"125 595 OFFCURVE",
"189 637 OFFCURVE",
"274 637 CURVE SMOOTH",
"367 637 OFFCURVE",
"414 582 OFFCURVE",
"419 532 CURVE",
"498 532 LINE",
"483 629 OFFCURVE",
"406 697 OFFCURVE",
"284 697 CURVE SMOOTH",
"142 697 OFFCURVE",
"60 619 OFFCURVE",
"60 507 CURVE SMOOTH",
"60 238 OFFCURVE",
"446 386 OFFCURVE",
"446 186 CURVE SMOOTH",
"446 112 OFFCURVE",
"387 52 OFFCURVE",
"284 52 CURVE SMOOTH",
"181 52 OFFCURVE",
"139 105 OFFCURVE",
"134 163 CURVE",
"60 163 LINE",
"60 56 OFFCURVE",
"160 -7 OFFCURVE",
"284 -7 CURVE SMOOTH",
"439 -7 OFFCURVE",
"511 94 OFFCURVE",
"511 190 CURVE SMOOTH",
"511 452 OFFCURVE",
"125 306 OFFCURVE"
);
}
);
width = 571;
},
{
anchors = (
{
name = bottom;
position = "{324, 0}";
},
{
name = top;
position = "{324, 704}";
}
);
layerId = "22D14058-393A-410A-BECB-F56B411A01B2";
paths = (
{
closed = 1;
nodes = (
"240 508 CURVE SMOOTH",
"240 558 OFFCURVE",
"274 577 OFFCURVE",
"314 577 CURVE SMOOTH",
"354 577 OFFCURVE",
"385 550 OFFCURVE",
"390 498 CURVE",
"576 498 LINE",
"572 654 OFFCURVE",
"462 712 OFFCURVE",
"316 712 CURVE SMOOTH",
"174 712 OFFCURVE",
"60 630 OFFCURVE",
"60 496 CURVE SMOOTH",
"60 250 OFFCURVE",
"407 338 OFFCURVE",
"407 199 CURVE SMOOTH",
"407 156 OFFCURVE",
"377 128 OFFCURVE",
"328 128 CURVE SMOOTH",
"279 128 OFFCURVE",
"247 152 OFFCURVE",
"242 212 CURVE",
"60 212 LINE",
"60 69 OFFCURVE",
"168 -7 OFFCURVE",
"328 -7 CURVE SMOOTH",
"483 -7 OFFCURVE",
"587 93 OFFCURVE",
"587 209 CURVE SMOOTH",
"587 460 OFFCURVE",
"240 364 OFFCURVE"
);
}
);
width = 647;
}
);
unicode = 0053;
userData = {
com.schriftgestaltung.Glyphs.ColorIndex = 4;
public.markColor = "0.67,0.95,0.38,1";
};
},
{
color = 8;
glyphname = Scommaaccent;
lastChange = "2016-08-26 15:34:35 +0000";
layers = (
{
anchors = (
{
name = _bottom;
position = "{286, 0}";
}
);
components = (
{
name = S;
}
);
layerId = "C0ED9D5D-A651-429A-8F5D-D93A2EDA2DC0";
paths = (
{
closed = 1;
nodes = (
"242 -50 LINE",
"242 -126 LINE",
"287 -126 LINE",
"287 -151 LINE SMOOTH",
"287 -183 OFFCURVE",
"274 -200 OFFCURVE",
"241 -200 CURVE",
"241 -238 LINE",
"299 -238 OFFCURVE",
"332 -212 OFFCURVE",
"332 -135 CURVE SMOOTH",
"332 -111 OFFCURVE",
"329 -83 OFFCURVE",
"323 -50 CURVE"
);
}
);
width = 571;
},
{
anchors = (
{
name = _bottom;
position = "{324, 0}";
}
);
components = (
{
name = S;
}
);
layerId = "22D14058-393A-410A-BECB-F56B411A01B2";
paths = (
{
closed = 1;
nodes = (
"256 -40 LINE",
"256 -163 LINE",
"319 -163 LINE",
"319 -179 LINE SMOOTH",
"319 -224 OFFCURVE",
"301 -245 OFFCURVE",
"267 -245 CURVE",
"267 -310 LINE",
"362 -310 OFFCURVE",
"407 -248 OFFCURVE",
"407 -158 CURVE SMOOTH",
"407 -122 OFFCURVE",
"401 -82 OFFCURVE",
"387 -40 CURVE"
);
}
);
width = 647;
}
);
unicode = 0218;
userData = {
com.schriftgestaltung.Glyphs.ColorIndex = 8;
public.markColor = "0.5,0.09,0.79,1";
};
},
{
color = 4;
glyphname = T;
lastChange = "2016-08-13 07:58:21 +0000";
layers = (
{
anchors = (
{
name = bottom;
position = "{265, 0}";
},
{
name = top;
position = "{265, 690}";
}
);
layerId = "C0ED9D5D-A651-429A-8F5D-D93A2EDA2DC0";
paths = (
{
closed = 1;
nodes = (
"49 633 LINE",
"230 633 LINE",
"230 0 LINE",
"299 0 LINE",
"299 633 LINE",
"480 633 LINE",
"480 690 LINE",
"49 690 LINE"
);
}
);
width = 529;
},
{
anchors = (
{
name = bottom;
position = "{304, 0}";
},
{
name = top;
position = "{304, 704}";
}
);
layerId = "22D14058-393A-410A-BECB-F56B411A01B2";
paths = (
{
closed = 1;
nodes = (
"27 572 LINE",
"218 572 LINE",
"218 0 LINE",
"389 0 LINE",
"389 572 LINE",
"581 572 LINE",
"581 702 LINE",
"27 702 LINE"
);
}
);
width = 608;
}
);
unicode = 0054;
userData = {
com.schriftgestaltung.Glyphs.ColorIndex = 4;
public.markColor = "0.67,0.95,0.38,1";
};
},
{
color = 8;
glyphname = Tcedilla;
lastChange = "2016-08-13 07:58:21 +0000";
layers = (
{
layerId = "C0ED9D5D-A651-429A-8F5D-D93A2EDA2DC0";
paths = (
{
closed = 1;
nodes = (
"49 633 LINE",
"230 633 LINE",
"230 -55 LINE",
"301 -55 LINE SMOOTH",
"336 -55 OFFCURVE",
"357 -70 OFFCURVE",
"357 -100 CURVE SMOOTH",
"357 -130 OFFCURVE",
"336 -146 OFFCURVE",
"301 -146 CURVE SMOOTH",
"166 -146 LINE",
"166 -201 LINE",
"303 -201 LINE SMOOTH",
"379 -201 OFFCURVE",
"429 -160 OFFCURVE",
"429 -100 CURVE SMOOTH",
"429 -34 OFFCURVE",
"369 7 OFFCURVE",
"276 -1 CURVE",
"299 -26 LINE",
"299 633 LINE",
"480 633 LINE",
"480 690 LINE",
"49 690 LINE"
);
}
);
width = 529;
},
{
layerId = "22D14058-393A-410A-BECB-F56B411A01B2";
paths = (
{
closed = 1;
nodes = (
"27 572 LINE",
"218 572 LINE",
"218 -85 LINE",
"321 -85 LINE SMOOTH",
"355 -85 OFFCURVE",
"367 -94 OFFCURVE",
"367 -115 CURVE SMOOTH",
"367 -136 OFFCURVE",
"355 -144 OFFCURVE",
"321 -144 CURVE SMOOTH",
"166 -144 LINE",
"166 -237 LINE",
"359 -237 LINE SMOOTH",
"433 -237 OFFCURVE",
"489 -195 OFFCURVE",
"489 -115 CURVE SMOOTH",
"489 -34 OFFCURVE",
"431 1 OFFCURVE",
"356 0 CURVE",
"389 -14 LINE",
"389 572 LINE",
"581 572 LINE",
"581 702 LINE",
"27 702 LINE"
);
}
);
width = 608;
}
);
unicode = 0162;
userData = {
com.schriftgestaltung.Glyphs.ColorIndex = 8;
public.markColor = "0.5,0.09,0.79,1";
};
},
{
color = 8;
glyphname = Tcommaaccent;
lastChange = "2016-08-26 15:34:35 +0000";
layers = (
{
anchors = (
{
name = _bottom;
position = "{265, 0}";
}
);
components = (
{
name = T;
}
);
layerId = "C0ED9D5D-A651-429A-8F5D-D93A2EDA2DC0";
paths = (
{
closed = 1;
nodes = (
"221 -50 LINE",
"221 -126 LINE",
"266 -126 LINE",
"266 -151 LINE SMOOTH",
"266 -183 OFFCURVE",
"253 -200 OFFCURVE",
"220 -200 CURVE",
"220 -238 LINE",
"278 -238 OFFCURVE",
"311 -212 OFFCURVE",
"311 -135 CURVE SMOOTH",
"311 -111 OFFCURVE",
"308 -83 OFFCURVE",
"302 -50 CURVE"
);
}
);
width = 529;
},
{
anchors = (
{
name = _bottom;
position = "{304, 0}";
}
);
components = (
{
name = T;
}
);
layerId = "22D14058-393A-410A-BECB-F56B411A01B2";
paths = (
{
closed = 1;
nodes = (
"236 -40 LINE",
"236 -163 LINE",
"299 -163 LINE",
"299 -179 LINE SMOOTH",
"299 -224 OFFCURVE",
"281 -245 OFFCURVE",
"247 -245 CURVE",
"247 -310 LINE",
"342 -310 OFFCURVE",
"387 -248 OFFCURVE",
"387 -158 CURVE SMOOTH",
"387 -122 OFFCURVE",
"381 -82 OFFCURVE",
"367 -40 CURVE"
);
}
);
width = 608;
}
);
unicode = 021A;
userData = {
com.schriftgestaltung.Glyphs.ColorIndex = 8;
public.markColor = "0.5,0.09,0.79,1";
};
},
{
color = 4;
glyphname = U;
lastChange = "2016-08-13 07:58:21 +0000";
layers = (
{
anchors = (
{
name = ogonek;
position = "{452, 0}";
},
{
name = top;
position = "{329, 690}";
}
);
layerId = "C0ED9D5D-A651-429A-8F5D-D93A2EDA2DC0";
paths = (
{
closed = 1;
nodes = (
"75 232 LINE SMOOTH",
"75 67 OFFCURVE",
"189 -7 OFFCURVE",
"330 -7 CURVE SMOOTH",
"470 -7 OFFCURVE",
"584 67 OFFCURVE",
"584 232 CURVE SMOOTH",
"584 690 LINE",
"514 690 LINE",
"514 232 LINE SMOOTH",
"514 104 OFFCURVE",
"439 51 OFFCURVE",
"330 51 CURVE SMOOTH",
"221 51 OFFCURVE",
"145 104 OFFCURVE",
"145 232 CURVE SMOOTH",
"145 690 LINE",
"75 690 LINE"
);
}
);
width = 658;
},
{
anchors = (
{
name = ogonek;
position = "{528, 0}";
},
{
name = top;
position = "{366, 704}";
}
);
layerId = "22D14058-393A-410A-BECB-F56B411A01B2";
paths = (
{
closed = 1;
nodes = (
"72 283 LINE SMOOTH",
"72 89 OFFCURVE",
"210 -7 OFFCURVE",
"362 -7 CURVE SMOOTH",
"513 -7 OFFCURVE",
"660 89 OFFCURVE",
"660 283 CURVE SMOOTH",
"660 702 LINE",
"489 702 LINE",
"489 283 LINE SMOOTH",
"489 200 OFFCURVE",
"446 152 OFFCURVE",
"365 152 CURVE SMOOTH",
"284 152 OFFCURVE",
"243 200 OFFCURVE",
"243 283 CURVE SMOOTH",
"243 702 LINE",
"72 702 LINE"
);
}
);
width = 731;
}
);
unicode = 0055;
userData = {
com.schriftgestaltung.Glyphs.ColorIndex = 4;
public.markColor = "0.67,0.95,0.38,1";
};
},
{
color = 8;
glyphname = Uogonek;
lastChange = "2016-08-13 07:58:21 +0000";
layers = (
{
layerId = "C0ED9D5D-A651-429A-8F5D-D93A2EDA2DC0";
paths = (
{
closed = 1;
nodes = (
"75 232 LINE SMOOTH",
"75 84 OFFCURVE",
"167 9 OFFCURVE",
"288 -5 CURVE",
"282 -17 OFFCURVE",
"279 -31 OFFCURVE",
"279 -46 CURVE SMOOTH",
"279 -106 OFFCURVE",
"329 -147 OFFCURVE",
"405 -147 CURVE SMOOTH",
"482 -147 LINE",
"482 -92 LINE",
"407 -92 LINE SMOOTH",
"372 -92 OFFCURVE",
"351 -76 OFFCURVE",
"351 -46 CURVE SMOOTH",
"351 -20 OFFCURVE",
"368 -10 OFFCURVE",
"422 5 CURVE SMOOTH",
"494 25 OFFCURVE",
"584 84 OFFCURVE",
"584 232 CURVE SMOOTH",
"584 690 LINE",
"514 690 LINE",
"514 232 LINE SMOOTH",
"514 104 OFFCURVE",
"439 51 OFFCURVE",
"330 51 CURVE SMOOTH",
"221 51 OFFCURVE",
"145 104 OFFCURVE",
"145 232 CURVE SMOOTH",
"145 690 LINE",
"75 690 LINE"
);
}
);
width = 658;
},
{
layerId = "22D14058-393A-410A-BECB-F56B411A01B2";
paths = (
{
closed = 1;
nodes = (
"72 283 LINE SMOOTH",
"72 117 OFFCURVE",
"173 23 OFFCURVE",
"297 -1 CURVE",
"296 -8 OFFCURVE",
"295 -16 OFFCURVE",
"295 -24 CURVE SMOOTH",
"295 -104 OFFCURVE",
"360 -143 OFFCURVE",
"425 -143 CURVE SMOOTH",
"568 -143 LINE",
"568 -50 LINE",
"455 -50 LINE SMOOTH",
"426 -50 OFFCURVE",
"417 -42 OFFCURVE",
"417 -26 CURVE SMOOTH",
"417 -11 OFFCURVE",
"429 -2 OFFCURVE",
"463 8 CURVE SMOOTH",
"558 36 OFFCURVE",
"660 121 OFFCURVE",
"660 283 CURVE SMOOTH",
"660 702 LINE",
"489 702 LINE",
"489 283 LINE SMOOTH",
"489 200 OFFCURVE",
"446 152 OFFCURVE",
"365 152 CURVE SMOOTH",
"284 152 OFFCURVE",
"243 200 OFFCURVE",
"243 283 CURVE SMOOTH",
"243 702 LINE",
"72 702 LINE"
);
}
);
width = 731;
}
);
unicode = 0172;
userData = {
com.schriftgestaltung.Glyphs.ColorIndex = 8;
public.markColor = "0.5,0.09,0.79,1";
};
},
{
color = 4;
glyphname = V;
lastChange = "2016-08-13 07:58:21 +0000";
layers = (
{
layerId = "C0ED9D5D-A651-429A-8F5D-D93A2EDA2DC0";
paths = (
{
closed = 1;
nodes = (
"300 0 LINE",
"368 0 LINE",
"639 690 LINE",
"565 690 LINE",
"333 79 LINE",
"103 690 LINE",
"29 690 LINE"
);
}
);
width = 668;
},
{
layerId = "22D14058-393A-410A-BECB-F56B411A01B2";
paths = (
{
closed = 1;
nodes = (
"256 0 LINE",
"470 0 LINE",
"719 702 LINE",
"537 702 LINE",
"363 167 LINE",
"189 702 LINE",
"7 702 LINE"
);
}
);
width = 726;
}
);
unicode = 0056;
userData = {
com.schriftgestaltung.Glyphs.ColorIndex = 4;
public.markColor = "0.67,0.95,0.38,1";
};
},
{
color = 4;
glyphname = W;
lastChange = "2016-08-13 07:58:21 +0000";
layers = (
{
layerId = "C0ED9D5D-A651-429A-8F5D-D93A2EDA2DC0";
paths = (
{
closed = 1;
nodes = (
"224 -1 LINE",
"300 0 LINE",
"497 648 LINE",
"463 648 LINE",
"644 0 LINE",
"720 0 LINE",
"934 690 LINE",
"861 690 LINE",
"670 38 LINE",
"695 37 LINE",
"519 690 LINE",
"443 690 LINE",
"252 40 LINE",
"274 40 LINE",
"102 690 LINE",
"29 690 LINE"
);
}
);
width = 963;
},
{
layerId = "22D14058-393A-410A-BECB-F56B411A01B2";
paths = (
{
closed = 1;
nodes = (
"205 0 LINE",
"401 0 LINE",
"535 490 LINE",
"510 490 LINE",
"646 0 LINE",
"842 0 LINE",
"1038 702 LINE",
"854 702 LINE",
"728 101 LINE",
"775 101 LINE",
"630 702 LINE",
"436 702 LINE",
"287 101 LINE",
"334 101 LINE",
"189 702 LINE",
"6 702 LINE"
);
}
);
width = 1045;
}
);
unicode = 0057;
userData = {
com.schriftgestaltung.Glyphs.ColorIndex = 4;
public.markColor = "0.67,0.95,0.38,1";
};
},
{
color = 4;
glyphname = X;
lastChange = "2016-08-13 07:58:21 +0000";
layers = (
{
layerId = "C0ED9D5D-A651-429A-8F5D-D93A2EDA2DC0";
paths = (
{
closed = 1;
nodes = (
"475 0 LINE",
"551 0 LINE",
"126 690 LINE",
"50 690 LINE"
);
},
{
closed = 1;
nodes = (
"273 363 LINE",
"50 0 LINE",
"126 0 LINE",
"306 310 LINE"
);
},
{
closed = 1;
nodes = (
"328 327 LINE",
"551 690 LINE",
"475 690 LINE",
"295 380 LINE"
);
}
);
width = 601;
},
{
layerId = "22D14058-393A-410A-BECB-F56B411A01B2";
paths = (
{
closed = 1;
nodes = (
"492 0 LINE",
"686 0 LINE",
"244 702 LINE",
"50 702 LINE"
);
},
{
closed = 1;
nodes = (
"301 398 LINE",
"50 0 LINE",
"244 0 LINE",
"399 265 LINE"
);
},
{
closed = 1;
nodes = (
"436 304 LINE",
"687 702 LINE",
"493 702 LINE",
"338 437 LINE"
);
}
);
width = 736;
}
);
unicode = 0058;
userData = {
com.schriftgestaltung.Glyphs.ColorIndex = 4;
public.markColor = "0.67,0.95,0.38,1";
};
},
{
color = 4;
glyphname = Y;
lastChange = "2016-08-13 07:58:21 +0000";
layers = (
{
anchors = (
{
name = top;
position = "{271, 690}";
}
);
layerId = "C0ED9D5D-A651-429A-8F5D-D93A2EDA2DC0";
paths = (
{
closed = 1;
nodes = (
"236 272 LINE",
"236 0 LINE",
"306 0 LINE",
"306 272 LINE",
"526 690 LINE",
"450 690 LINE",
"250 296 LINE",
"291 296 LINE",
"90 690 LINE",
"15 690 LINE"
);
}
);
width = 541;
},
{
anchors = (
{
name = top;
position = "{344, 704}";
}
);
layerId = "22D14058-393A-410A-BECB-F56B411A01B2";
paths = (
{
closed = 1;
nodes = (
"258 226 LINE",
"258 0 LINE",
"429 0 LINE",
"429 226 LINE",
"672 702 LINE",
"478 702 LINE",
"309 304 LINE",
"378 304 LINE",
"209 702 LINE",
"15 702 LINE"
);
}
);
width = 687;
}
);
unicode = 0059;
userData = {
com.schriftgestaltung.Glyphs.ColorIndex = 4;
public.markColor = "0.67,0.95,0.38,1";
};
},
{
color = 4;
glyphname = Z;
lastChange = "2016-08-13 07:58:21 +0000";
layers = (
{
anchors = (
{
name = top;
position = "{264, 690}";
}
);
layerId = "C0ED9D5D-A651-429A-8F5D-D93A2EDA2DC0";
paths = (
{
closed = 1;
nodes = (
"478 690 LINE",
"50 690 LINE",
"50 633 LINE",
"398 633 LINE",
"50 56 LINE",
"50 0 LINE",
"478 0 LINE",
"478 56 LINE",
"130 56 LINE",
"478 633 LINE"
);
}
);
width = 528;
},
{
anchors = (
{
name = top;
position = "{298, 704}";
}
);
layerId = "22D14058-393A-410A-BECB-F56B411A01B2";
paths = (
{
closed = 1;
nodes = (
"546 702 LINE",
"50 702 LINE",
"50 572 LINE",
"349 572 LINE",
"50 130 LINE",
"50 0 LINE",
"546 0 LINE",
"546 130 LINE",
"247 130 LINE",
"546 572 LINE"
);
}
);
width = 596;
}
);
unicode = 005A;
userData = {
com.schriftgestaltung.Glyphs.ColorIndex = 4;
public.markColor = "0.67,0.95,0.38,1";
};
},
{
color = 4;
glyphname = a;
lastChange = "2016-08-13 07:58:21 +0000";
layers = (
{
anchors = (
{
name = ogonek;
position = "{587, 0}";
},
{
name = top;
position = "{331, 546}";
}
);
layerId = "C0ED9D5D-A651-429A-8F5D-D93A2EDA2DC0";
paths = (
{
closed = 1;
nodes = (
"40 278 CURVE SMOOTH",
"40 108 OFFCURVE",
"154 -10 OFFCURVE",
"304 -10 CURVE SMOOTH",
"408 -10 OFFCURVE",
"483 49 OFFCURVE",
"517 120 CURVE",
"517 0 LINE",
"587 0 LINE",
"587 546 LINE",
"517 546 LINE",
"517 427 LINE",
"483 498 OFFCURVE",
"408 556 OFFCURVE",
"304 556 CURVE SMOOTH",
"154 556 OFFCURVE",
"40 448 OFFCURVE"
);
},
{
closed = 1;
nodes = (
"517 273 CURVE SMOOTH",
"517 135 OFFCURVE",
"422 50 OFFCURVE",
"314 50 CURVE SMOOTH",
"207 50 OFFCURVE",
"112 140 OFFCURVE",
"112 278 CURVE SMOOTH",
"112 416 OFFCURVE",
"207 496 OFFCURVE",
"314 496 CURVE SMOOTH",
"422 496 OFFCURVE",
"517 411 OFFCURVE"
);
}
);
width = 662;
},
{
anchors = (
{
name = ogonek;
position = "{623, 0}";
},
{
name = top;
position = "{349, 558}";
}
);
layerId = "22D14058-393A-410A-BECB-F56B411A01B2";
paths = (
{
closed = 1;
nodes = (
"34 278 CURVE SMOOTH",
"34 108 OFFCURVE",
"149 -7 OFFCURVE",
"288 -7 CURVE SMOOTH",
"361 -7 OFFCURVE",
"414 27 OFFCURVE",
"452 81 CURVE",
"452 0 LINE",
"623 0 LINE",
"623 558 LINE",
"452 558 LINE",
"452 485 LINE",
"416 535 OFFCURVE",
"361 564 OFFCURVE",
"288 564 CURVE SMOOTH",
"149 564 OFFCURVE",
"34 448 OFFCURVE"
);
},
{
closed = 1;
nodes = (
"452 279 CURVE SMOOTH",
"452 185 OFFCURVE",
"388 141 OFFCURVE",
"330 141 CURVE SMOOTH",
"272 141 OFFCURVE",
"208 184 OFFCURVE",
"208 278 CURVE SMOOTH",
"208 372 OFFCURVE",
"272 416 OFFCURVE",
"330 416 CURVE SMOOTH",
"388 416 OFFCURVE",
"452 373 OFFCURVE"
);
}
);
width = 698;
}
);
unicode = 0061;
userData = {
com.schriftgestaltung.Glyphs.ColorIndex = 4;
public.markColor = "0.67,0.95,0.38,1";
};
},
{
color = 4;
glyphname = ae;
lastChange = "2016-08-13 07:58:21 +0000";
layers = (
{
layerId = "C0ED9D5D-A651-429A-8F5D-D93A2EDA2DC0";
paths = (
{
closed = 1;
nodes = (
"567 248 LINE",
"1037 248 LINE",
"1040 267 OFFCURVE",
"1041 285 OFFCURVE",
"1041 302 CURVE SMOOTH",
"1041 443 OFFCURVE",
"942 556 OFFCURVE",
"787 556 CURVE SMOOTH",
"701 556 OFFCURVE",
"637 532 OFFCURVE",
"584 453 CURVE",
"584 546 LINE",
"514 546 LINE",
"514 453 LINE",
"466 530 OFFCURVE",
"397 556 OFFCURVE",
"314 556 CURVE SMOOTH",
"154 556 OFFCURVE",
"40 448 OFFCURVE",
"40 278 CURVE SMOOTH",
"40 108 OFFCURVE",
"154 -10 OFFCURVE",
"304 -10 CURVE SMOOTH",
"397 -10 OFFCURVE",
"474 36 OFFCURVE",
"514 97 CURVE",
"514 0 LINE",
"584 0 LINE",
"584 96 LINE",
"625 32 OFFCURVE",
"696 -10 OFFCURVE",
"778 -10 CURVE SMOOTH",
"913 -10 OFFCURVE",
"990 67 OFFCURVE",
"1022 151 CURVE",
"947 151 LINE",
"925 92 OFFCURVE",
"871 46 OFFCURVE",
"783 46 CURVE SMOOTH",
"675 46 OFFCURVE",
"581 133 OFFCURVE",
"581 269 CURVE SMOOTH",
"581 275 LINE SMOOTH",
"581 412 OFFCURVE",
"675 500 OFFCURVE",
"783 500 CURVE SMOOTH",
"890 500 OFFCURVE",
"969 426 OFFCURVE",
"969 303 CURVE",
"567 303 LINE"
);
},
{
closed = 1;
nodes = (
"112 278 CURVE SMOOTH",
"112 416 OFFCURVE",
"207 496 OFFCURVE",
"314 496 CURVE SMOOTH",
"422 496 OFFCURVE",
"517 411 OFFCURVE",
"517 273 CURVE SMOOTH",
"517 135 OFFCURVE",
"422 50 OFFCURVE",
"314 50 CURVE SMOOTH",
"207 50 OFFCURVE",
"112 140 OFFCURVE"
);
}
);
width = 1080;
},
{
layerId = "22D14058-393A-410A-BECB-F56B411A01B2";
paths = (
{
closed = 1;
nodes = (
"642 223 LINE",
"1060 223 LINE",
"1063 242 OFFCURVE",
"1064 260 OFFCURVE",
"1064 277 CURVE SMOOTH",
"1064 452 OFFCURVE",
"948 564 OFFCURVE",
"798 564 CURVE SMOOTH",
"731 564 OFFCURVE",
"670 540 OFFCURVE",
"623 485 CURVE",
"623 558 LINE",
"452 558 LINE",
"452 485 LINE",
"416 535 OFFCURVE",
"361 564 OFFCURVE",
"288 564 CURVE SMOOTH",
"149 564 OFFCURVE",
"34 448 OFFCURVE",
"34 278 CURVE SMOOTH",
"34 108 OFFCURVE",
"149 -7 OFFCURVE",
"288 -7 CURVE SMOOTH",
"361 -7 OFFCURVE",
"414 27 OFFCURVE",
"452 81 CURVE",
"452 0 LINE",
"623 0 LINE",
"623 82 LINE",
"655 28 OFFCURVE",
"731 -7 OFFCURVE",
"809 -7 CURVE SMOOTH",
"925 -7 OFFCURVE",
"1015 70 OFFCURVE",
"1046 180 CURVE",
"861 180 LINE",
"845 156 OFFCURVE",
"814 139 OFFCURVE",
"770 139 CURVE SMOOTH",
"726 139 OFFCURVE",
"655 164 OFFCURVE",
"655 260 CURVE SMOOTH",
"655 308 LINE SMOOTH",
"655 372 OFFCURVE",
"711 418 OFFCURVE",
"775 418 CURVE SMOOTH",
"839 418 OFFCURVE",
"882 383 OFFCURVE",
"887 330 CURVE",
"632 330 LINE"
);
},
{
closed = 1;
nodes = (
"208 278 CURVE SMOOTH",
"208 372 OFFCURVE",
"272 416 OFFCURVE",
"330 416 CURVE SMOOTH",
"388 416 OFFCURVE",
"452 373 OFFCURVE",
"452 279 CURVE SMOOTH",
"452 185 OFFCURVE",
"388 141 OFFCURVE",
"330 141 CURVE SMOOTH",
"272 141 OFFCURVE",
"208 184 OFFCURVE"
);
}
);
width = 1099;
}
);
unicode = 00E6;
userData = {
com.schriftgestaltung.Glyphs.ColorIndex = 4;
public.markColor = "0.67,0.95,0.38,1";
};
},
{
color = 4;
glyphname = b;
lastChange = "2016-08-13 07:58:21 +0000";
layers = (
{
layerId = "C0ED9D5D-A651-429A-8F5D-D93A2EDA2DC0";
paths = (
{
closed = 1;
nodes = (
"145 427 CURVE",
"145 740 LINE",
"75 740 LINE",
"75 0 LINE",
"145 0 LINE",
"145 120 LINE",
"179 49 OFFCURVE",
"254 -10 OFFCURVE",
"358 -10 CURVE SMOOTH",
"508 -10 OFFCURVE",
"622 108 OFFCURVE",
"622 278 CURVE SMOOTH",
"622 448 OFFCURVE",
"508 556 OFFCURVE",
"358 556 CURVE SMOOTH",
"254 556 OFFCURVE",
"179 498 OFFCURVE"
);
},
{
closed = 1;
nodes = (
"550 278 CURVE SMOOTH",
"550 140 OFFCURVE",
"455 50 OFFCURVE",
"347 50 CURVE SMOOTH",
"240 50 OFFCURVE",
"145 135 OFFCURVE",
"145 273 CURVE SMOOTH",
"145 411 OFFCURVE",
"240 496 OFFCURVE",
"347 496 CURVE SMOOTH",
"455 496 OFFCURVE",
"550 416 OFFCURVE"
);
}
);
width = 662;
},
{
layerId = "22D14058-393A-410A-BECB-F56B411A01B2";
paths = (
{
closed = 1;
nodes = (
"246 485 CURVE",
"246 740 LINE",
"75 740 LINE",
"75 0 LINE",
"246 0 LINE",
"246 81 LINE",
"283 27 OFFCURVE",
"336 -7 OFFCURVE",
"410 -7 CURVE SMOOTH",
"549 -7 OFFCURVE",
"664 108 OFFCURVE",
"664 278 CURVE SMOOTH",
"664 448 OFFCURVE",
"549 564 OFFCURVE",
"410 564 CURVE SMOOTH",
"336 564 OFFCURVE",
"282 535 OFFCURVE"
);
},
{
closed = 1;
nodes = (
"490 278 CURVE SMOOTH",
"490 184 OFFCURVE",
"426 141 OFFCURVE",
"368 141 CURVE SMOOTH",
"310 141 OFFCURVE",
"246 185 OFFCURVE",
"246 279 CURVE SMOOTH",
"246 373 OFFCURVE",
"310 416 OFFCURVE",
"368 416 CURVE SMOOTH",
"426 416 OFFCURVE",
"490 372 OFFCURVE"
);
}
);
width = 698;
}
);
unicode = 0062;
userData = {
com.schriftgestaltung.Glyphs.ColorIndex = 4;
public.markColor = "0.67,0.95,0.38,1";
};
},
{
color = 4;
glyphname = c;
lastChange = "2016-08-13 07:58:21 +0000";
layers = (
{
anchors = (
{
name = bottom;
position = "{300, 0}";
},
{
name = top;
position = "{300, 546}";
}
);
layerId = "C0ED9D5D-A651-429A-8F5D-D93A2EDA2DC0";
paths = (
{
closed = 1;
nodes = (
"40 273 CURVE SMOOTH",
"40 103 OFFCURVE",
"148 -10 OFFCURVE",
"303 -10 CURVE SMOOTH",
"438 -10 OFFCURVE",
"515 64 OFFCURVE",
"547 162 CURVE",
"472 162 LINE",
"450 89 OFFCURVE",
"391 46 OFFCURVE",
"303 46 CURVE SMOOTH",
"194 46 OFFCURVE",
"112 122 OFFCURVE",
"112 273 CURVE SMOOTH",
"112 425 OFFCURVE",
"194 500 OFFCURVE",
"303 500 CURVE SMOOTH",
"391 500 OFFCURVE",
"450 456 OFFCURVE",
"472 384 CURVE",
"547 384 LINE",
"515 490 OFFCURVE",
"438 556 OFFCURVE",
"303 556 CURVE SMOOTH",
"148 556 OFFCURVE",
"40 443 OFFCURVE"
);
}
);
width = 600;
},
{
anchors = (
{
name = bottom;
position = "{300, 0}";
},
{
name = top;
position = "{300, 558}";
}
);
layerId = "22D14058-393A-410A-BECB-F56B411A01B2";
paths = (
{
closed = 1;
nodes = (
"34 279 CURVE",
"34 103 OFFCURVE",
"151 -7 OFFCURVE",
"312 -7 CURVE SMOOTH",
"446 -7 OFFCURVE",
"548 69 OFFCURVE",
"579 189 CURVE",
"394 189 LINE",
"375 152 OFFCURVE",
"355 139 OFFCURVE",
"312 139 CURVE SMOOTH",
"242 139 OFFCURVE",
"208 198 OFFCURVE",
"208 279 CURVE SMOOTH",
"208 359 OFFCURVE",
"242 419 OFFCURVE",
"312 419 CURVE SMOOTH",
"355 419 OFFCURVE",
"380 398 OFFCURVE",
"394 369 CURVE",
"579 369 LINE",
"548 496 OFFCURVE",
"446 564 OFFCURVE",
"312 564 CURVE SMOOTH",
"151 564 OFFCURVE",
"34 455 OFFCURVE"
);
}
);
width = 600;
}
);
unicode = 0063;
userData = {
com.schriftgestaltung.Glyphs.ColorIndex = 4;
public.markColor = "0.67,0.95,0.38,1";
};
},
{
color = 4;
glyphname = d;
lastChange = "2016-08-13 07:58:21 +0000";
layers = (
{
anchors = (
{
name = topright;
position = "{587, 740}";
}
);
layerId = "C0ED9D5D-A651-429A-8F5D-D93A2EDA2DC0";
paths = (
{
closed = 1;
nodes = (
"40 278 CURVE SMOOTH",
"40 108 OFFCURVE",
"154 -10 OFFCURVE",
"304 -10 CURVE SMOOTH",
"408 -10 OFFCURVE",
"483 49 OFFCURVE",
"517 120 CURVE",
"517 0 LINE",
"587 0 LINE",
"587 740 LINE",
"517 740 LINE",
"517 427 LINE",
"483 498 OFFCURVE",
"408 556 OFFCURVE",
"304 556 CURVE SMOOTH",
"154 556 OFFCURVE",
"40 448 OFFCURVE"
);
},
{
closed = 1;
nodes = (
"517 273 CURVE SMOOTH",
"517 135 OFFCURVE",
"422 50 OFFCURVE",
"314 50 CURVE SMOOTH",
"207 50 OFFCURVE",
"112 140 OFFCURVE",
"112 278 CURVE SMOOTH",
"112 416 OFFCURVE",
"207 496 OFFCURVE",
"314 496 CURVE SMOOTH",
"422 496 OFFCURVE",
"517 411 OFFCURVE"
);
}
);
width = 662;
},
{
anchors = (
{
name = topright;
position = "{623, 740}";
}
);
layerId = "22D14058-393A-410A-BECB-F56B411A01B2";
paths = (
{
closed = 1;
nodes = (
"34 278 CURVE SMOOTH",
"34 108 OFFCURVE",
"149 -7 OFFCURVE",
"288 -7 CURVE SMOOTH",
"361 -7 OFFCURVE",
"414 27 OFFCURVE",
"452 81 CURVE",
"452 0 LINE",
"623 0 LINE",
"623 740 LINE",
"452 740 LINE",
"452 485 LINE",
"416 535 OFFCURVE",
"361 564 OFFCURVE",
"288 564 CURVE SMOOTH",
"149 564 OFFCURVE",
"34 448 OFFCURVE"
);
},
{
closed = 1;
nodes = (
"452 279 CURVE SMOOTH",
"452 185 OFFCURVE",
"388 141 OFFCURVE",
"330 141 CURVE SMOOTH",
"272 141 OFFCURVE",
"208 184 OFFCURVE",
"208 278 CURVE SMOOTH",
"208 372 OFFCURVE",
"272 416 OFFCURVE",
"330 416 CURVE SMOOTH",
"388 416 OFFCURVE",
"452 373 OFFCURVE"
);
}
);
width = 698;
}
);
unicode = 0064;
userData = {
com.schriftgestaltung.Glyphs.ColorIndex = 4;
public.markColor = "0.67,0.95,0.38,1";
};
},
{
color = 4;
glyphname = eth;
lastChange = "2016-08-13 07:58:21 +0000";
layers = (
{
anchors = (
{
name = top;
position = "{313, 546}";
}
);
layerId = "C0ED9D5D-A651-429A-8F5D-D93A2EDA2DC0";
paths = (
{
closed = 1;
nodes = (
"513 273 CURVE SMOOTH",
"513 126 OFFCURVE",
"410 46 OFFCURVE",
"303 46 CURVE SMOOTH",
"195 46 OFFCURVE",
"111 126 OFFCURVE",
"111 273 CURVE SMOOTH",
"111 421 OFFCURVE",
"202 500 OFFCURVE",
"309 500 CURVE SMOOTH",
"417 500 OFFCURVE",
"513 421 OFFCURVE"
);
},
{
closed = 1;
nodes = (
"40 273 CURVE SMOOTH",
"40 103 OFFCURVE",
"149 -10 OFFCURVE",
"303 -10 CURVE SMOOTH",
"466 -10 OFFCURVE",
"584 98 OFFCURVE",
"584 317 CURVE SMOOTH",
"584 483 OFFCURVE",
"510 618 OFFCURVE",
"358 740 CURVE",
"273 740 LINE",
"398 640 OFFCURVE",
"460 571 OFFCURVE",
"497 479 CURVE",
"446 530 OFFCURVE",
"392 556 OFFCURVE",
"313 556 CURVE SMOOTH",
"159 556 OFFCURVE",
"40 444 OFFCURVE"
);
},
{
closed = 1;
nodes = (
"260 645 LINE",
"260 588 LINE",
"555 690 LINE",
"555 747 LINE"
);
}
);
width = 624;
},
{
layerId = "22D14058-393A-410A-BECB-F56B411A01B2";
paths = (
{
closed = 1;
nodes = (
"443 279 CURVE SMOOTH",
"443 182 OFFCURVE",
"385 139 OFFCURVE",
"327 139 CURVE SMOOTH",
"269 139 OFFCURVE",
"208 182 OFFCURVE",
"208 279 CURVE SMOOTH",
"208 376 OFFCURVE",
"267 418 OFFCURVE",
"326 418 CURVE SMOOTH",
"383 418 OFFCURVE",
"443 376 OFFCURVE"
);
},
{
closed = 1;
nodes = (
"34 280 CURVE SMOOTH",
"34 104 OFFCURVE",
"166 -7 OFFCURVE",
"327 -7 CURVE SMOOTH",
"488 -7 OFFCURVE",
"617 104 OFFCURVE",
"617 317 CURVE SMOOTH",
"617 478 OFFCURVE",
"538 630 OFFCURVE",
"420 740 CURVE",
"263 740 LINE",
"333 681 OFFCURVE",
"392 608 OFFCURVE",
"426 533 CURVE",
"390 553 OFFCURVE",
"354 564 OFFCURVE",
"312 564 CURVE SMOOTH",
"156 564 OFFCURVE",
"34 456 OFFCURVE"
);
},
{
closed = 1;
nodes = (
"270 655 LINE",
"270 588 LINE",
"545 672 LINE",
"545 739 LINE"
);
}
);
width = 652;
}
);
unicode = 00F0;
userData = {
com.schriftgestaltung.Glyphs.ColorIndex = 4;
public.markColor = "0.67,0.95,0.38,1";
};
},
{
color = 8;
glyphname = dcaron;
lastChange = "2016-08-26 15:34:35 +0000";
layers = (
{
anchors = (
{
name = _bottom;
position = "{683, 790}";
}
);
components = (
{
name = d;
}
);
layerId = "C0ED9D5D-A651-429A-8F5D-D93A2EDA2DC0";
paths = (
{
closed = 1;
nodes = (
"639 740 LINE",
"639 664 LINE",
"684 664 LINE",
"684 639 LINE SMOOTH",
"684 607 OFFCURVE",
"671 590 OFFCURVE",
"638 590 CURVE",
"638 552 LINE",
"696 552 OFFCURVE",
"729 578 OFFCURVE",
"729 655 CURVE SMOOTH",
"729 679 OFFCURVE",
"726 707 OFFCURVE",
"720 740 CURVE"
);
}
);
width = 739;
},
{
anchors = (
{
name = _bottom;
position = "{741, 780}";
}
);
components = (
{
name = d;
}
);
layerId = "22D14058-393A-410A-BECB-F56B411A01B2";
paths = (
{
closed = 1;
nodes = (
"673 740 LINE",
"673 617 LINE",
"736 617 LINE",
"736 601 LINE SMOOTH",
"736 556 OFFCURVE",
"718 535 OFFCURVE",
"684 535 CURVE",
"684 470 LINE",
"779 470 OFFCURVE",
"824 532 OFFCURVE",
"824 622 CURVE SMOOTH",
"824 658 OFFCURVE",
"818 698 OFFCURVE",
"804 740 CURVE"
);
}
);
width = 834;
}
);
unicode = 010F;
userData = {
com.schriftgestaltung.Glyphs.ColorIndex = 8;
public.markColor = "0.5,0.09,0.79,1";
};
},
{
color = 8;
glyphname = dcroat;
lastChange = "2016-08-13 07:58:21 +0000";
layers = (
{
components = (
{
name = d;
}
);
layerId = "C0ED9D5D-A651-429A-8F5D-D93A2EDA2DC0";
paths = (
{
closed = 1;
nodes = (
"430 590 LINE",
"649 590 LINE",
"649 643 LINE",
"430 643 LINE"
);
}
);
width = 662;
},
{
components = (
{
name = d;
}
);
layerId = "22D14058-393A-410A-BECB-F56B411A01B2";
paths = (
{
closed = 1;
nodes = (
"376 591 LINE",
"679 591 LINE",
"679 673 LINE",
"376 673 LINE"
);
}
);
width = 698;
}
);
unicode = 0111;
userData = {
com.schriftgestaltung.Glyphs.ColorIndex = 8;
public.markColor = "0.5,0.09,0.79,1";
};
},
{
color = 4;
glyphname = e;
lastChange = "2016-08-13 07:58:21 +0000";
layers = (
{
anchors = (
{
name = bottom;
position = "{303, 0}";
},
{
name = ogonek;
position = "{453, 56}";
},
{
name = top;
position = "{303, 546}";
}
);
layerId = "C0ED9D5D-A651-429A-8F5D-D93A2EDA2DC0";
paths = (
{
closed = 1;
nodes = (
"89 248 LINE",
"562 248 LINE",
"565 267 OFFCURVE",
"566 285 OFFCURVE",
"566 302 CURVE SMOOTH",
"566 443 OFFCURVE",
"467 556 OFFCURVE",
"312 556 CURVE SMOOTH",
"148 556 OFFCURVE",
"40 444 OFFCURVE",
"40 273 CURVE SMOOTH",
"40 103 OFFCURVE",
"148 -10 OFFCURVE",
"303 -10 CURVE SMOOTH",
"438 -10 OFFCURVE",
"515 67 OFFCURVE",
"547 151 CURVE",
"472 151 LINE",
"450 92 OFFCURVE",
"391 46 OFFCURVE",
"303 46 CURVE SMOOTH",
"195 46 OFFCURVE",
"112 123 OFFCURVE",
"112 259 CURVE SMOOTH",
"112 285 LINE SMOOTH",
"112 422 OFFCURVE",
"195 500 OFFCURVE",
"303 500 CURVE SMOOTH",
"410 500 OFFCURVE",
"494 426 OFFCURVE",
"494 303 CURVE",
"89 303 LINE"
);
}
);
width = 605;
},
{
anchors = (
{
name = bottom;
position = "{316, 0}";
},
{
name = ogonek;
position = "{509, 78}";
},
{
name = top;
position = "{316, 558}";
}
);
layerId = "22D14058-393A-410A-BECB-F56B411A01B2";
paths = (
{
closed = 1;
nodes = (
"194 223 LINE",
"593 223 LINE",
"596 242 OFFCURVE",
"597 260 OFFCURVE",
"597 277 CURVE SMOOTH",
"597 462 OFFCURVE",
"471 564 OFFCURVE",
"311 564 CURVE SMOOTH",
"151 564 OFFCURVE",
"34 456 OFFCURVE",
"34 280 CURVE SMOOTH",
"34 104 OFFCURVE",
"151 -7 OFFCURVE",
"312 -7 CURVE SMOOTH",
"446 -7 OFFCURVE",
"548 70 OFFCURVE",
"579 180 CURVE",
"394 180 LINE",
"375 157 OFFCURVE",
"360 139 OFFCURVE",
"312 139 CURVE SMOOTH",
"247 139 OFFCURVE",
"208 184 OFFCURVE",
"208 240 CURVE SMOOTH",
"208 308 LINE SMOOTH",
"208 372 OFFCURVE",
"253 418 OFFCURVE",
"311 418 CURVE SMOOTH",
"369 418 OFFCURVE",
"414 383 OFFCURVE",
"419 330 CURVE",
"196 330 LINE"
);
}
);
width = 632;
}
);
unicode = 0065;
userData = {
com.schriftgestaltung.Glyphs.ColorIndex = 4;
public.markColor = "0.67,0.95,0.38,1";
};
},
{
color = 8;
glyphname = eogonek;
lastChange = "2016-08-13 07:58:21 +0000";
layers = (
{
layerId = "C0ED9D5D-A651-429A-8F5D-D93A2EDA2DC0";
paths = (
{
closed = 1;
nodes = (
"40 273 CURVE SMOOTH",
"40 109 OFFCURVE",
"140 -1 OFFCURVE",
"285 -10 CURVE",
"282 -19 OFFCURVE",
"280 -30 OFFCURVE",
"280 -42 CURVE SMOOTH",
"280 -102 OFFCURVE",
"330 -143 OFFCURVE",
"406 -143 CURVE SMOOTH",
"483 -143 LINE",
"483 -88 LINE",
"408 -88 LINE SMOOTH",
"373 -88 OFFCURVE",
"352 -72 OFFCURVE",
"352 -42 CURVE SMOOTH",
"352 -15 OFFCURVE",
"372 -5 OFFCURVE",
"402 6 CURVE SMOOTH",
"478 35 OFFCURVE",
"524 90 OFFCURVE",
"547 151 CURVE",
"472 151 LINE",
"450 92 OFFCURVE",
"391 46 OFFCURVE",
"303 46 CURVE SMOOTH",
"195 46 OFFCURVE",
"112 123 OFFCURVE",
"112 259 CURVE SMOOTH",
"112 285 LINE SMOOTH",
"112 422 OFFCURVE",
"195 500 OFFCURVE",
"303 500 CURVE SMOOTH",
"410 500 OFFCURVE",
"494 426 OFFCURVE",
"494 303 CURVE",
"101 303 LINE",
"101 248 LINE",
"562 248 LINE",
"565 267 OFFCURVE",
"566 285 OFFCURVE",
"566 302 CURVE SMOOTH",
"566 443 OFFCURVE",
"467 556 OFFCURVE",
"312 556 CURVE SMOOTH",
"148 556 OFFCURVE",
"40 444 OFFCURVE"
);
}
);
width = 605;
},
{
layerId = "22D14058-393A-410A-BECB-F56B411A01B2";
paths = (
{
closed = 1;
nodes = (
"34 280 CURVE SMOOTH",
"34 117 OFFCURVE",
"134 10 OFFCURVE",
"276 -5 CURVE",
"276 -8 OFFCURVE",
"276 -12 OFFCURVE",
"276 -15 CURVE SMOOTH",
"276 -95 OFFCURVE",
"341 -134 OFFCURVE",
"406 -134 CURVE SMOOTH",
"549 -134 LINE",
"549 -41 LINE",
"454 -41 LINE SMOOTH",
"419 -41 OFFCURVE",
"398 -45 OFFCURVE",
"398 -15 CURVE SMOOTH",
"398 -2 OFFCURVE",
"405 6 OFFCURVE",
"429 15 CURVE SMOOTH",
"485 36 OFFCURVE",
"554 91 OFFCURVE",
"579 180 CURVE",
"394 180 LINE",
"375 157 OFFCURVE",
"360 139 OFFCURVE",
"312 139 CURVE SMOOTH",
"247 139 OFFCURVE",
"208 184 OFFCURVE",
"208 240 CURVE SMOOTH",
"208 308 LINE SMOOTH",
"208 372 OFFCURVE",
"253 418 OFFCURVE",
"311 418 CURVE SMOOTH",
"369 418 OFFCURVE",
"414 383 OFFCURVE",
"419 330 CURVE",
"196 330 LINE",
"194 223 LINE",
"593 223 LINE",
"596 242 OFFCURVE",
"597 260 OFFCURVE",
"597 277 CURVE SMOOTH",
"597 462 OFFCURVE",
"471 564 OFFCURVE",
"311 564 CURVE SMOOTH",
"151 564 OFFCURVE",
"34 456 OFFCURVE"
);
}
);
width = 632;
}
);
unicode = 0119;
userData = {
com.schriftgestaltung.Glyphs.ColorIndex = 8;
public.markColor = "0.5,0.09,0.79,1";
};
},
{
color = 4;
glyphname = f;
lastChange = "2016-08-13 07:58:21 +0000";
layers = (
{
layerId = "C0ED9D5D-A651-429A-8F5D-D93A2EDA2DC0";
paths = (
{
closed = 1;
nodes = (
"99 0 LINE",
"169 0 LINE",
"169 599 LINE SMOOTH",
"169 675 OFFCURVE",
"198 707 OFFCURVE",
"288 707 CURVE",
"288 763 LINE",
"157 763 OFFCURVE",
"99 714 OFFCURVE",
"99 599 CURVE SMOOTH"
);
},
{
closed = 1;
nodes = (
"23 491 LINE",
"296 491 LINE",
"296 546 LINE",
"23 546 LINE"
);
}
);
width = 328;
},
{
layerId = "22D14058-393A-410A-BECB-F56B411A01B2";
paths = (
{
closed = 1;
nodes = (
"77 0 LINE",
"248 0 LINE",
"248 579 LINE SMOOTH",
"248 624 OFFCURVE",
"266 638 OFFCURVE",
"311 638 CURVE",
"311 783 LINE",
"151 783 OFFCURVE",
"77 721 OFFCURVE",
"77 579 CURVE SMOOTH"
);
},
{
closed = 1;
nodes = (
"25 416 LINE",
"319 416 LINE",
"319 558 LINE",
"25 558 LINE"
);
}
);
width = 336;
}
);
unicode = 0066;
userData = {
com.schriftgestaltung.Glyphs.ColorIndex = 4;
public.markColor = "0.67,0.95,0.38,1";
};
},
{
color = 4;
glyphname = g;
lastChange = "2016-08-13 07:58:21 +0000";
layers = (
{
anchors = (
{
name = top;
position = "{331, 546}";
}
);
layerId = "C0ED9D5D-A651-429A-8F5D-D93A2EDA2DC0";
paths = (
{
closed = 1;
nodes = (
"517 273 CURVE SMOOTH",
"517 135 OFFCURVE",
"422 50 OFFCURVE",
"314 50 CURVE SMOOTH",
"207 50 OFFCURVE",
"112 140 OFFCURVE",
"112 278 CURVE SMOOTH",
"112 416 OFFCURVE",
"207 496 OFFCURVE",
"314 496 CURVE SMOOTH",
"422 496 OFFCURVE",
"517 411 OFFCURVE"
);
},
{
closed = 1;
nodes = (
"40 278 CURVE SMOOTH",
"40 108 OFFCURVE",
"154 -10 OFFCURVE",
"304 -10 CURVE SMOOTH",
"408 -10 OFFCURVE",
"483 49 OFFCURVE",
"517 120 CURVE",
"517 -19 LINE SMOOTH",
"517 -138 OFFCURVE",
"440 -208 OFFCURVE",
"327 -208 CURVE SMOOTH",
"234 -208 OFFCURVE",
"157 -153 OFFCURVE",
"140 -87 CURVE",
"71 -87 LINE",
"85 -189 OFFCURVE",
"195 -268 OFFCURVE",
"327 -268 CURVE SMOOTH",
"475 -268 OFFCURVE",
"587 -169 OFFCURVE",
"587 -19 CURVE SMOOTH",
"587 546 LINE",
"517 546 LINE",
"517 427 LINE",
"483 498 OFFCURVE",
"408 556 OFFCURVE",
"304 556 CURVE SMOOTH",
"154 556 OFFCURVE",
"40 448 OFFCURVE"
);
}
);
width = 662;
},
{
anchors = (
{
name = top;
position = "{349, 558}";
}
);
layerId = "22D14058-393A-410A-BECB-F56B411A01B2";
paths = (
{
closed = 1;
nodes = (
"452 279 CURVE SMOOTH",
"452 185 OFFCURVE",
"388 141 OFFCURVE",
"330 141 CURVE SMOOTH",
"272 141 OFFCURVE",
"208 184 OFFCURVE",
"208 278 CURVE SMOOTH",
"208 372 OFFCURVE",
"272 416 OFFCURVE",
"330 416 CURVE SMOOTH",
"388 416 OFFCURVE",
"452 373 OFFCURVE"
);
},
{
closed = 1;
nodes = (
"34 278 CURVE SMOOTH",
"34 108 OFFCURVE",
"149 -7 OFFCURVE",
"288 -7 CURVE SMOOTH",
"361 -7 OFFCURVE",
"414 27 OFFCURVE",
"452 81 CURVE",
"452 3 LINE SMOOTH",
"452 -94 OFFCURVE",
"400 -128 OFFCURVE",
"343 -128 CURVE SMOOTH",
"282 -128 OFFCURVE",
"240 -109 OFFCURVE",
"223 -65 CURVE",
"55 -65 LINE",
"69 -211 OFFCURVE",
"177 -276 OFFCURVE",
"343 -276 CURVE SMOOTH",
"545 -276 OFFCURVE",
"623 -147 OFFCURVE",
"623 3 CURVE SMOOTH",
"623 558 LINE",
"452 558 LINE",
"452 485 LINE",
"416 535 OFFCURVE",
"361 564 OFFCURVE",
"288 564 CURVE SMOOTH",
"149 564 OFFCURVE",
"34 448 OFFCURVE"
);
}
);
width = 698;
}
);
unicode = 0067;
userData = {
com.schriftgestaltung.Glyphs.ColorIndex = 4;
public.markColor = "0.67,0.95,0.38,1";
};
},
{
color = 8;
glyphname = gcommaaccent;
lastChange = "2016-08-26 15:34:35 +0000";
layers = (
{
anchors = (
{
name = _top;
position = "{331, 546}";
}
);
components = (
{
name = g;
}
);
layerId = "C0ED9D5D-A651-429A-8F5D-D93A2EDA2DC0";
paths = (
{
closed = 1;
nodes = (
"375 596 LINE",
"375 672 LINE",
"330 672 LINE",
"330 697 LINE SMOOTH",
"330 729 OFFCURVE",
"343 746 OFFCURVE",
"376 746 CURVE",
"376 784 LINE",
"318 784 OFFCURVE",
"285 758 OFFCURVE",
"285 681 CURVE SMOOTH",
"285 657 OFFCURVE",
"288 629 OFFCURVE",
"294 596 CURVE"
);
}
);
width = 662;
},
{
anchors = (
{
name = _top;
position = "{349, 558}";
}
);
components = (
{
name = g;
}
);
layerId = "22D14058-393A-410A-BECB-F56B411A01B2";
paths = (
{
closed = 1;
nodes = (
"417 598 LINE",
"417 721 LINE",
"354 721 LINE",
"354 737 LINE SMOOTH",
"354 782 OFFCURVE",
"372 803 OFFCURVE",
"406 803 CURVE",
"406 868 LINE",
"311 868 OFFCURVE",
"266 806 OFFCURVE",
"266 716 CURVE SMOOTH",
"266 680 OFFCURVE",
"272 640 OFFCURVE",
"286 598 CURVE"
);
}
);
width = 698;
}
);
unicode = 0123;
userData = {
com.schriftgestaltung.Glyphs.ColorIndex = 8;
public.markColor = "0.5,0.09,0.79,1";
};
},
{
color = 4;
glyphname = h;
lastChange = "2016-08-13 07:58:21 +0000";
layers = (
{
layerId = "C0ED9D5D-A651-429A-8F5D-D93A2EDA2DC0";
paths = (
{
closed = 1;
nodes = (
"75 0 LINE",
"145 0 LINE",
"145 740 LINE",
"75 740 LINE"
);
},
{
closed = 1;
nodes = (
"470 0 LINE",
"539 0 LINE",
"539 325 LINE SMOOTH",
"539 482 OFFCURVE",
"439 556 OFFCURVE",
"326 556 CURVE SMOOTH",
"225 556 OFFCURVE",
"137 499 OFFCURVE",
"117 374 CURVE",
"145 312 LINE",
"145 435 OFFCURVE",
"210 496 OFFCURVE",
"308 496 CURVE SMOOTH",
"406 496 OFFCURVE",
"470 435 OFFCURVE",
"470 312 CURVE SMOOTH"
);
}
);
width = 609;
},
{
layerId = "22D14058-393A-410A-BECB-F56B411A01B2";
paths = (
{
closed = 1;
nodes = (
"75 0 LINE",
"246 0 LINE",
"246 740 LINE",
"75 740 LINE"
);
},
{
closed = 1;
nodes = (
"460 0 LINE",
"630 0 LINE",
"630 326 LINE SMOOTH",
"630 476 OFFCURVE",
"540 564 OFFCURVE",
"415 564 CURVE SMOOTH",
"318 564 OFFCURVE",
"250 510 OFFCURVE",
"227 432 CURVE",
"246 303 LINE",
"246 376 OFFCURVE",
"288 416 OFFCURVE",
"353 416 CURVE SMOOTH",
"418 416 OFFCURVE",
"460 376 OFFCURVE",
"460 303 CURVE SMOOTH"
);
}
);
width = 700;
}
);
unicode = 0068;
userData = {
com.schriftgestaltung.Glyphs.ColorIndex = 4;
public.markColor = "0.67,0.95,0.38,1";
};
},
{
color = 4;
glyphname = i;
lastChange = "2016-08-13 07:58:21 +0000";
layers = (
{
anchors = (
{
name = ogonek;
position = "{145, 1}";
}
);
layerId = "C0ED9D5D-A651-429A-8F5D-D93A2EDA2DC0";
paths = (
{
closed = 1;
nodes = (
"75 0 LINE",
"145 0 LINE",
"145 546 LINE",
"75 546 LINE"
);
},
{
closed = 1;
nodes = (
"111 649 CURVE SMOOTH",
"140 649 OFFCURVE",
"162 672 OFFCURVE",
"162 701 CURVE SMOOTH",
"162 729 OFFCURVE",
"140 752 OFFCURVE",
"111 752 CURVE SMOOTH",
"83 752 OFFCURVE",
"60 729 OFFCURVE",
"60 701 CURVE SMOOTH",
"60 672 OFFCURVE",
"83 649 OFFCURVE"
);
}
);
width = 220;
},
{
anchors = (
{
name = ogonek;
position = "{246, 0}";
}
);
layerId = "22D14058-393A-410A-BECB-F56B411A01B2";
paths = (
{
closed = 1;
nodes = (
"75 0 LINE",
"246 0 LINE",
"246 558 LINE",
"75 558 LINE"
);
},
{
closed = 1;
nodes = (
"160 592 CURVE SMOOTH",
"216 592 OFFCURVE",
"260 636 OFFCURVE",
"260 692 CURVE SMOOTH",
"260 749 OFFCURVE",
"216 793 OFFCURVE",
"160 793 CURVE SMOOTH",
"104 793 OFFCURVE",
"60 749 OFFCURVE",
"60 692 CURVE SMOOTH",
"60 636 OFFCURVE",
"104 592 OFFCURVE"
);
}
);
width = 321;
}
);
unicode = 0069;
userData = {
com.schriftgestaltung.Glyphs.ColorIndex = 4;
public.markColor = "0.67,0.95,0.38,1";
};
},
{
color = 4;
glyphname = dotlessi;
lastChange = "2016-08-13 07:58:21 +0000";
layers = (
{
anchors = (
{
name = ogonek;
position = "{198, 10}";
},
{
name = top;
position = "{110, 546}";
}
);
layerId = "C0ED9D5D-A651-429A-8F5D-D93A2EDA2DC0";
paths = (
{
closed = 1;
nodes = (
"75 0 LINE",
"145 0 LINE",
"145 546 LINE",
"75 546 LINE"
);
}
);
width = 220;
},
{
anchors = (
{
name = ogonek;
position = "{289, 10}";
},
{
name = top;
position = "{161, 558}";
}
);
layerId = "22D14058-393A-410A-BECB-F56B411A01B2";
paths = (
{
closed = 1;
nodes = (
"75 0 LINE",
"246 0 LINE",
"246 558 LINE",
"75 558 LINE"
);
}
);
width = 321;
}
);
unicode = 0131;
userData = {
com.schriftgestaltung.Glyphs.ColorIndex = 4;
public.markColor = "0.67,0.95,0.38,1";
};
},
{
color = 4;
glyphname = j;
lastChange = "2016-08-13 07:58:21 +0000";
layers = (
{
layerId = "C0ED9D5D-A651-429A-8F5D-D93A2EDA2DC0";
paths = (
{
closed = 1;
nodes = (
"111 649 CURVE SMOOTH",
"140 649 OFFCURVE",
"162 672 OFFCURVE",
"162 701 CURVE SMOOTH",
"162 729 OFFCURVE",
"140 752 OFFCURVE",
"111 752 CURVE SMOOTH",
"83 752 OFFCURVE",
"60 729 OFFCURVE",
"60 701 CURVE SMOOTH",
"60 672 OFFCURVE",
"83 649 OFFCURVE"
);
},
{
closed = 1;
nodes = (
"75 546 LINE",
"75 -128 LINE SMOOTH",
"75 -182 OFFCURVE",
"57 -202 OFFCURVE",
"2 -202 CURVE SMOOTH",
"-36 -202 LINE",
"-36 -258 LINE",
"17 -258 LINE SMOOTH",
"101 -258 OFFCURVE",
"145 -216 OFFCURVE",
"145 -128 CURVE SMOOTH",
"145 546 LINE"
);
}
);
width = 220;
},
{
layerId = "22D14058-393A-410A-BECB-F56B411A01B2";
paths = (
{
closed = 1;
nodes = (
"160 592 CURVE SMOOTH",
"216 592 OFFCURVE",
"260 636 OFFCURVE",
"260 692 CURVE SMOOTH",
"260 749 OFFCURVE",
"216 793 OFFCURVE",
"160 793 CURVE SMOOTH",
"104 793 OFFCURVE",
"60 749 OFFCURVE",
"60 692 CURVE SMOOTH",
"60 636 OFFCURVE",
"104 592 OFFCURVE"
);
},
{
closed = 1;
nodes = (
"75 558 LINE",
"75 -82 LINE SMOOTH",
"75 -108 OFFCURVE",
"61 -121 OFFCURVE",
"23 -121 CURVE SMOOTH",
"-18 -121 LINE",
"-18 -266 LINE",
"49 -266 LINE SMOOTH",
"165 -266 OFFCURVE",
"246 -224 OFFCURVE",
"246 -82 CURVE SMOOTH",
"246 558 LINE"
);
}
);
width = 321;
}
);
unicode = 006A;
userData = {
com.schriftgestaltung.Glyphs.ColorIndex = 4;
public.markColor = "0.67,0.95,0.38,1";
};
},
{
color = 4;
glyphname = k;
lastChange = "2016-08-13 07:58:21 +0000";
layers = (
{
anchors = (
{
name = bottom;
position = "{238, 0}";
}
);
layerId = "C0ED9D5D-A651-429A-8F5D-D93A2EDA2DC0";
paths = (
{
closed = 1;
nodes = (
"75 0 LINE",
"145 0 LINE",
"145 740 LINE",
"75 740 LINE"
);
},
{
closed = 1;
nodes = (
"119 273 LINE",
"370 0 LINE",
"466 0 LINE",
"187 291 LINE",
"180 255 LINE",
"466 546 LINE",
"365 546 LINE"
);
}
);
width = 476;
},
{
anchors = (
{
name = bottom;
position = "{327, 0}";
}
);
layerId = "22D14058-393A-410A-BECB-F56B411A01B2";
paths = (
{
closed = 1;
nodes = (
"75 0 LINE",
"246 0 LINE",
"246 740 LINE",
"75 740 LINE"
);
},
{
closed = 1;
nodes = (
"207 273 LINE",
"422 0 LINE",
"649 0 LINE",
"401 284 LINE",
"394 254 LINE",
"649 558 LINE",
"419 558 LINE"
);
}
);
width = 653;
}
);
unicode = 006B;
userData = {
com.schriftgestaltung.Glyphs.ColorIndex = 4;
public.markColor = "0.67,0.95,0.38,1";
};
},
{
color = 8;
glyphname = kcommaaccent;
lastChange = "2016-08-26 15:34:35 +0000";
layers = (
{
anchors = (
{
name = _bottom;
position = "{238, 0}";
}
);
components = (
{
name = k;
}
);
layerId = "C0ED9D5D-A651-429A-8F5D-D93A2EDA2DC0";
paths = (
{
closed = 1;
nodes = (
"194 -50 LINE",
"194 -126 LINE",
"239 -126 LINE",
"239 -151 LINE SMOOTH",
"239 -183 OFFCURVE",
"226 -200 OFFCURVE",
"193 -200 CURVE",
"193 -238 LINE",
"251 -238 OFFCURVE",
"284 -212 OFFCURVE",
"284 -135 CURVE SMOOTH",
"284 -111 OFFCURVE",
"281 -83 OFFCURVE",
"275 -50 CURVE"
);
}
);
width = 476;
},
{
anchors = (
{
name = _bottom;
position = "{327, 0}";
}
);
components = (
{
name = k;
}
);
layerId = "22D14058-393A-410A-BECB-F56B411A01B2";
paths = (
{
closed = 1;
nodes = (
"259 -40 LINE",
"259 -163 LINE",
"322 -163 LINE",
"322 -179 LINE SMOOTH",
"322 -224 OFFCURVE",
"304 -245 OFFCURVE",
"270 -245 CURVE",
"270 -310 LINE",
"365 -310 OFFCURVE",
"410 -248 OFFCURVE",
"410 -158 CURVE SMOOTH",
"410 -122 OFFCURVE",
"404 -82 OFFCURVE",
"390 -40 CURVE"
);
}
);
width = 653;
}
);
unicode = 0137;
userData = {
com.schriftgestaltung.Glyphs.ColorIndex = 8;
public.markColor = "0.5,0.09,0.79,1";
};
},
{
color = 4;
glyphname = l;
lastChange = "2016-08-13 07:58:21 +0000";
layers = (
{
anchors = (
{
name = bottom;
position = "{110, 0}";
},
{
name = commaaccent;
position = "{110, 10}";
},
{
name = top;
position = "{110, 740}";
},
{
name = topright;
position = "{200, 546}";
}
);
layerId = "C0ED9D5D-A651-429A-8F5D-D93A2EDA2DC0";
paths = (
{
closed = 1;
nodes = (
"75 0 LINE",
"145 0 LINE",
"145 740 LINE",
"75 740 LINE"
);
}
);
width = 220;
},
{
anchors = (
{
name = bottom;
position = "{161, 0}";
},
{
name = commaaccent;
position = "{161, 10}";
},
{
name = top;
position = "{161, 740}";
},
{
name = topright;
position = "{301, 558}";
}
);
layerId = "22D14058-393A-410A-BECB-F56B411A01B2";
paths = (
{
closed = 1;
nodes = (
"75 0 LINE",
"246 0 LINE",
"246 740 LINE",
"75 740 LINE"
);
}
);
width = 321;
}
);
unicode = 006C;
userData = {
com.schriftgestaltung.Glyphs.ColorIndex = 4;
public.markColor = "0.67,0.95,0.38,1";
};
},
{
color = 8;
glyphname = lcaron;
lastChange = "2016-08-26 15:34:35 +0000";
layers = (
{
anchors = (
{
name = _bottom;
position = "{267, 790}";
}
);
components = (
{
name = l;
}
);
layerId = "C0ED9D5D-A651-429A-8F5D-D93A2EDA2DC0";
paths = (
{
closed = 1;
nodes = (
"223 740 LINE",
"223 664 LINE",
"268 664 LINE",
"268 639 LINE SMOOTH",
"268 607 OFFCURVE",
"255 590 OFFCURVE",
"222 590 CURVE",
"222 552 LINE",
"280 552 OFFCURVE",
"313 578 OFFCURVE",
"313 655 CURVE SMOOTH",
"313 679 OFFCURVE",
"310 707 OFFCURVE",
"304 740 CURVE"
);
}
);
width = 355;
},
{
anchors = (
{
name = _bottom;
position = "{392, 780}";
}
);
components = (
{
name = l;
}
);
layerId = "22D14058-393A-410A-BECB-F56B411A01B2";
paths = (
{
closed = 1;
nodes = (
"324 740 LINE",
"324 617 LINE",
"387 617 LINE",
"387 601 LINE SMOOTH",
"387 556 OFFCURVE",
"369 535 OFFCURVE",
"335 535 CURVE",
"335 470 LINE",
"430 470 OFFCURVE",
"475 532 OFFCURVE",
"475 622 CURVE SMOOTH",
"475 658 OFFCURVE",
"469 698 OFFCURVE",
"455 740 CURVE"
);
}
);
width = 519;
}
);
unicode = 013E;
userData = {
com.schriftgestaltung.Glyphs.ColorIndex = 8;
public.markColor = "0.5,0.09,0.79,1";
};
},
{
color = 8;
glyphname = lcommaaccent;
lastChange = "2016-08-26 15:34:35 +0000";
layers = (
{
anchors = (
{
name = _commaaccent;
position = "{110, 10}";
}
);
components = (
{
name = l;
}
);
layerId = "C0ED9D5D-A651-429A-8F5D-D93A2EDA2DC0";
paths = (
{
closed = 1;
nodes = (
"66 -50 LINE",
"66 -126 LINE",
"111 -126 LINE",
"111 -151 LINE SMOOTH",
"111 -183 OFFCURVE",
"98 -200 OFFCURVE",
"65 -200 CURVE",
"65 -238 LINE",
"123 -238 OFFCURVE",
"156 -212 OFFCURVE",
"156 -135 CURVE SMOOTH",
"156 -111 OFFCURVE",
"153 -83 OFFCURVE",
"147 -50 CURVE"
);
}
);
width = 220;
},
{
anchors = (
{
name = _commaaccent;
position = "{161, 10}";
}
);
components = (
{
name = l;
}
);
layerId = "22D14058-393A-410A-BECB-F56B411A01B2";
paths = (
{
closed = 1;
nodes = (
"93 -40 LINE",
"93 -163 LINE",
"156 -163 LINE",
"156 -179 LINE SMOOTH",
"156 -224 OFFCURVE",
"138 -245 OFFCURVE",
"104 -245 CURVE",
"104 -310 LINE",
"199 -310 OFFCURVE",
"244 -248 OFFCURVE",
"244 -158 CURVE SMOOTH",
"244 -122 OFFCURVE",
"238 -82 OFFCURVE",
"224 -40 CURVE"
);
}
);
width = 321;
}
);
unicode = 013C;
userData = {
com.schriftgestaltung.Glyphs.ColorIndex = 8;
public.markColor = "0.5,0.09,0.79,1";
};
},
{
color = 4;
glyphname = lslash;
lastChange = "2016-08-13 07:58:21 +0000";
layers = (
{
layerId = "C0ED9D5D-A651-429A-8F5D-D93A2EDA2DC0";
paths = (
{
closed = 1;
nodes = (
"0 275 LINE",
"220 371 LINE",
"220 431 LINE",
"0 335 LINE"
);
},
{
closed = 1;
nodes = (
"75 0 LINE",
"145 0 LINE",
"145 740 LINE",
"75 740 LINE"
);
}
);
width = 220;
},
{
layerId = "22D14058-393A-410A-BECB-F56B411A01B2";
paths = (
{
closed = 1;
nodes = (
"20 239 LINE",
"301 309 LINE",
"301 473 LINE",
"20 403 LINE"
);
},
{
closed = 1;
nodes = (
"75 0 LINE",
"246 0 LINE",
"246 740 LINE",
"75 740 LINE"
);
}
);
width = 321;
}
);
unicode = 0142;
userData = {
com.schriftgestaltung.Glyphs.ColorIndex = 4;
public.markColor = "0.67,0.95,0.38,1";
};
},
{
color = 4;
glyphname = m;
lastChange = "2016-08-13 07:58:21 +0000";
layers = (
{
layerId = "C0ED9D5D-A651-429A-8F5D-D93A2EDA2DC0";
paths = (
{
closed = 1;
nodes = (
"75 0 LINE",
"145 0 LINE",
"145 546 LINE",
"75 546 LINE"
);
},
{
closed = 1;
nodes = (
"470 0 LINE",
"539 0 LINE",
"539 325 LINE SMOOTH",
"539 482 OFFCURVE",
"439 556 OFFCURVE",
"326 556 CURVE SMOOTH",
"225 556 OFFCURVE",
"137 499 OFFCURVE",
"117 374 CURVE",
"145 312 LINE",
"145 435 OFFCURVE",
"210 496 OFFCURVE",
"308 496 CURVE SMOOTH",
"406 496 OFFCURVE",
"470 435 OFFCURVE",
"470 312 CURVE SMOOTH"
);
},
{
closed = 1;
nodes = (
"864 0 LINE",
"933 0 LINE",
"933 325 LINE SMOOTH",
"933 482 OFFCURVE",
"833 556 OFFCURVE",
"720 556 CURVE SMOOTH",
"609 556 OFFCURVE",
"524 489 OFFCURVE",
"498 374 CURVE",
"539 312 LINE",
"539 435 OFFCURVE",
"604 496 OFFCURVE",
"702 496 CURVE SMOOTH",
"800 496 OFFCURVE",
"864 435 OFFCURVE",
"864 312 CURVE SMOOTH"
);
}
);
width = 1003;
},
{
layerId = "22D14058-393A-410A-BECB-F56B411A01B2";
paths = (
{
closed = 1;
nodes = (
"75 0 LINE",
"246 0 LINE",
"246 558 LINE",
"75 558 LINE"
);
},
{
closed = 1;
nodes = (
"460 0 LINE",
"630 0 LINE",
"630 326 LINE SMOOTH",
"630 476 OFFCURVE",
"540 564 OFFCURVE",
"415 564 CURVE SMOOTH",
"318 564 OFFCURVE",
"250 510 OFFCURVE",
"227 432 CURVE",
"246 303 LINE",
"246 376 OFFCURVE",
"288 416 OFFCURVE",
"353 416 CURVE SMOOTH",
"418 416 OFFCURVE",
"460 376 OFFCURVE",
"460 303 CURVE SMOOTH"
);
},
{
closed = 1;
nodes = (
"844 0 LINE",
"1014 0 LINE",
"1014 326 LINE SMOOTH",
"1014 476 OFFCURVE",
"927 564 OFFCURVE",
"792 564 CURVE SMOOTH",
"687 564 OFFCURVE",
"609 494 OFFCURVE",
"579 409 CURVE",
"630 303 LINE",
"630 376 OFFCURVE",
"672 416 OFFCURVE",
"737 416 CURVE SMOOTH",
"802 416 OFFCURVE",
"844 376 OFFCURVE",
"844 303 CURVE SMOOTH"
);
}
);
width = 1084;
}
);
unicode = 006D;
userData = {
com.schriftgestaltung.Glyphs.ColorIndex = 4;
public.markColor = "0.67,0.95,0.38,1";
};
},
{
color = 4;
glyphname = n;
lastChange = "2016-08-13 07:58:21 +0000";
layers = (
{
anchors = (
{
name = bottom;
position = "{305, 0}";
},
{
name = top;
position = "{305, 546}";
}
);
layerId = "C0ED9D5D-A651-429A-8F5D-D93A2EDA2DC0";
paths = (
{
closed = 1;
nodes = (
"75 0 LINE",
"145 0 LINE",
"145 546 LINE",
"75 546 LINE"
);
},
{
closed = 1;
nodes = (
"470 0 LINE",
"539 0 LINE",
"539 325 LINE SMOOTH",
"539 482 OFFCURVE",
"439 556 OFFCURVE",
"326 556 CURVE SMOOTH",
"225 556 OFFCURVE",
"137 499 OFFCURVE",
"117 374 CURVE",
"145 312 LINE",
"145 435 OFFCURVE",
"210 496 OFFCURVE",
"308 496 CURVE SMOOTH",
"406 496 OFFCURVE",
"470 435 OFFCURVE",
"470 312 CURVE SMOOTH"
);
}
);
width = 609;
},
{
anchors = (
{
name = bottom;
position = "{350, 0}";
},
{
name = top;
position = "{374, 558}";
}
);
layerId = "22D14058-393A-410A-BECB-F56B411A01B2";
paths = (
{
closed = 1;
nodes = (
"75 0 LINE",
"246 0 LINE",
"246 558 LINE",
"75 558 LINE"
);
},
{
closed = 1;
nodes = (
"460 0 LINE",
"630 0 LINE",
"630 326 LINE SMOOTH",
"630 476 OFFCURVE",
"540 564 OFFCURVE",
"415 564 CURVE SMOOTH",
"318 564 OFFCURVE",
"250 510 OFFCURVE",
"227 432 CURVE",
"246 303 LINE",
"246 376 OFFCURVE",
"288 416 OFFCURVE",
"353 416 CURVE SMOOTH",
"418 416 OFFCURVE",
"460 376 OFFCURVE",
"460 303 CURVE SMOOTH"
);
}
);
width = 700;
}
);
unicode = 006E;
userData = {
com.schriftgestaltung.Glyphs.ColorIndex = 4;
public.markColor = "0.67,0.95,0.38,1";
};
},
{
color = 8;
glyphname = ncommaaccent;
lastChange = "2016-08-26 15:34:35 +0000";
layers = (
{
anchors = (
{
name = _bottom;
position = "{305, 0}";
}
);
components = (
{
name = n;
}
);
layerId = "C0ED9D5D-A651-429A-8F5D-D93A2EDA2DC0";
paths = (
{
closed = 1;
nodes = (
"261 -50 LINE",
"261 -126 LINE",
"306 -126 LINE",
"306 -151 LINE SMOOTH",
"306 -183 OFFCURVE",
"293 -200 OFFCURVE",
"260 -200 CURVE",
"260 -238 LINE",
"318 -238 OFFCURVE",
"351 -212 OFFCURVE",
"351 -135 CURVE SMOOTH",
"351 -111 OFFCURVE",
"348 -83 OFFCURVE",
"342 -50 CURVE"
);
}
);
width = 609;
},
{
anchors = (
{
name = _bottom;
position = "{350, 0}";
}
);
components = (
{
name = n;
}
);
layerId = "22D14058-393A-410A-BECB-F56B411A01B2";
paths = (
{
closed = 1;
nodes = (
"282 -40 LINE",
"282 -163 LINE",
"345 -163 LINE",
"345 -179 LINE SMOOTH",
"345 -224 OFFCURVE",
"327 -245 OFFCURVE",
"293 -245 CURVE",
"293 -310 LINE",
"388 -310 OFFCURVE",
"433 -248 OFFCURVE",
"433 -158 CURVE SMOOTH",
"433 -122 OFFCURVE",
"427 -82 OFFCURVE",
"413 -40 CURVE"
);
}
);
width = 700;
}
);
unicode = 0146;
userData = {
com.schriftgestaltung.Glyphs.ColorIndex = 8;
public.markColor = "0.5,0.09,0.79,1";
};
},
{
color = 4;
glyphname = o;
lastChange = "2016-08-13 07:58:21 +0000";
layers = (
{
anchors = (
{
name = top;
position = "{313, 546}";
}
);
layerId = "C0ED9D5D-A651-429A-8F5D-D93A2EDA2DC0";
paths = (
{
closed = 1;
nodes = (
"40 273 CURVE SMOOTH",
"40 103 OFFCURVE",
"149 -10 OFFCURVE",
"303 -10 CURVE SMOOTH",
"458 -10 OFFCURVE",
"586 103 OFFCURVE",
"586 273 CURVE SMOOTH",
"586 444 OFFCURVE",
"467 556 OFFCURVE",
"313 556 CURVE SMOOTH",
"159 556 OFFCURVE",
"40 444 OFFCURVE"
);
},
{
closed = 1;
nodes = (
"513 273 CURVE SMOOTH",
"513 126 OFFCURVE",
"410 46 OFFCURVE",
"303 46 CURVE SMOOTH",
"195 46 OFFCURVE",
"111 126 OFFCURVE",
"111 273 CURVE SMOOTH",
"111 421 OFFCURVE",
"202 500 OFFCURVE",
"309 500 CURVE SMOOTH",
"417 500 OFFCURVE",
"513 421 OFFCURVE"
);
}
);
width = 626;
},
{
anchors = (
{
name = top;
position = "{327, 558}";
}
);
layerId = "22D14058-393A-410A-BECB-F56B411A01B2";
paths = (
{
closed = 1;
nodes = (
"35 280 CURVE SMOOTH",
"35 104 OFFCURVE",
"167 -7 OFFCURVE",
"328 -7 CURVE SMOOTH",
"489 -7 OFFCURVE",
"618 104 OFFCURVE",
"618 280 CURVE SMOOTH",
"618 456 OFFCURVE",
"487 564 OFFCURVE",
"327 564 CURVE SMOOTH",
"166 564 OFFCURVE",
"35 456 OFFCURVE"
);
},
{
closed = 1;
nodes = (
"444 279 CURVE SMOOTH",
"444 182 OFFCURVE",
"386 139 OFFCURVE",
"328 139 CURVE SMOOTH",
"270 139 OFFCURVE",
"209 182 OFFCURVE",
"209 279 CURVE SMOOTH",
"209 376 OFFCURVE",
"268 418 OFFCURVE",
"327 418 CURVE SMOOTH",
"384 418 OFFCURVE",
"444 376 OFFCURVE"
);
}
);
width = 653;
}
);
unicode = 006F;
userData = {
com.schriftgestaltung.Glyphs.ColorIndex = 4;
public.markColor = "0.67,0.95,0.38,1";
};
},
{
color = 4;
glyphname = oslash;
lastChange = "2016-08-13 07:58:21 +0000";
layers = (
{
components = (
{
name = o;
}
);
layerId = "C0ED9D5D-A651-429A-8F5D-D93A2EDA2DC0";
paths = (
{
closed = 1;
nodes = (
"30 0 LINE",
"99 0 LINE",
"596 546 LINE",
"527 546 LINE"
);
}
);
width = 626;
},
{
components = (
{
name = o;
transform = "{1, 0, 0, 1, 1, 0}";
}
);
layerId = "22D14058-393A-410A-BECB-F56B411A01B2";
paths = (
{
closed = 1;
nodes = (
"25 0 LINE",
"117 0 LINE",
"628 558 LINE",
"536 558 LINE"
);
}
);
width = 653;
}
);
unicode = 00F8;
userData = {
com.schriftgestaltung.Glyphs.ColorIndex = 4;
public.markColor = "0.67,0.95,0.38,1";
};
},
{
color = 4;
glyphname = oe;
lastChange = "2016-08-13 07:58:21 +0000";
layers = (
{
layerId = "C0ED9D5D-A651-429A-8F5D-D93A2EDA2DC0";
paths = (
{
closed = 1;
nodes = (
"513 273 CURVE SMOOTH",
"513 126 OFFCURVE",
"410 46 OFFCURVE",
"303 46 CURVE SMOOTH",
"195 46 OFFCURVE",
"111 126 OFFCURVE",
"111 273 CURVE SMOOTH",
"111 421 OFFCURVE",
"202 500 OFFCURVE",
"309 500 CURVE SMOOTH",
"417 500 OFFCURVE",
"513 421 OFFCURVE"
);
},
{
closed = 1;
nodes = (
"40 273 CURVE SMOOTH",
"40 103 OFFCURVE",
"149 -10 OFFCURVE",
"303 -10 CURVE SMOOTH",
"407 -10 OFFCURVE",
"498 40 OFFCURVE",
"547 125 CURVE",
"591 40 OFFCURVE",
"673 -10 OFFCURVE",
"777 -10 CURVE SMOOTH",
"912 -10 OFFCURVE",
"989 67 OFFCURVE",
"1021 151 CURVE",
"946 151 LINE",
"924 92 OFFCURVE",
"865 46 OFFCURVE",
"777 46 CURVE SMOOTH",
"669 46 OFFCURVE",
"586 123 OFFCURVE",
"586 259 CURVE SMOOTH",
"586 285 LINE SMOOTH",
"586 422 OFFCURVE",
"669 500 OFFCURVE",
"777 500 CURVE SMOOTH",
"884 500 OFFCURVE",
"968 426 OFFCURVE",
"968 303 CURVE",
"554 303 LINE",
"554 248 LINE",
"1036 248 LINE",
"1039 267 OFFCURVE",
"1040 285 OFFCURVE",
"1040 302 CURVE SMOOTH",
"1040 443 OFFCURVE",
"941 556 OFFCURVE",
"786 556 CURVE SMOOTH",
"677 556 OFFCURVE",
"593 507 OFFCURVE",
"549 424 CURVE",
"502 507 OFFCURVE",
"415 556 OFFCURVE",
"313 556 CURVE SMOOTH",
"159 556 OFFCURVE",
"40 444 OFFCURVE"
);
}
);
width = 1079;
},
{
layerId = "22D14058-393A-410A-BECB-F56B411A01B2";
paths = (
{
closed = 1;
nodes = (
"443 279 CURVE SMOOTH",
"443 182 OFFCURVE",
"385 139 OFFCURVE",
"327 139 CURVE SMOOTH",
"269 139 OFFCURVE",
"208 182 OFFCURVE",
"208 279 CURVE SMOOTH",
"208 376 OFFCURVE",
"267 418 OFFCURVE",
"326 418 CURVE SMOOTH",
"383 418 OFFCURVE",
"443 376 OFFCURVE"
);
},
{
closed = 1;
nodes = (
"34 280 CURVE SMOOTH",
"34 104 OFFCURVE",
"166 -7 OFFCURVE",
"327 -7 CURVE SMOOTH",
"404 -7 OFFCURVE",
"475 25 OFFCURVE",
"527 84 CURVE",
"576 25 OFFCURVE",
"644 -7 OFFCURVE",
"721 -7 CURVE SMOOTH",
"855 -7 OFFCURVE",
"957 70 OFFCURVE",
"988 180 CURVE",
"803 180 LINE",
"784 157 OFFCURVE",
"769 139 OFFCURVE",
"721 139 CURVE SMOOTH",
"656 139 OFFCURVE",
"617 184 OFFCURVE",
"617 240 CURVE SMOOTH",
"617 308 LINE SMOOTH",
"617 372 OFFCURVE",
"662 418 OFFCURVE",
"720 418 CURVE SMOOTH",
"778 418 OFFCURVE",
"823 383 OFFCURVE",
"828 330 CURVE",
"565 330 LINE",
"563 223 LINE",
"1002 223 LINE",
"1005 242 OFFCURVE",
"1006 260 OFFCURVE",
"1006 277 CURVE SMOOTH",
"1006 462 OFFCURVE",
"880 564 OFFCURVE",
"720 564 CURVE SMOOTH",
"643 564 OFFCURVE",
"575 532 OFFCURVE",
"526 473 CURVE",
"474 532 OFFCURVE",
"403 564 OFFCURVE",
"326 564 CURVE SMOOTH",
"165 564 OFFCURVE",
"34 456 OFFCURVE"
);
}
);
width = 1041;
}
);
unicode = 0153;
userData = {
com.schriftgestaltung.Glyphs.ColorIndex = 4;
public.markColor = "0.67,0.95,0.38,1";
};
},
{
color = 4;
glyphname = p;
lastChange = "2016-08-13 07:58:21 +0000";
layers = (
{
layerId = "C0ED9D5D-A651-429A-8F5D-D93A2EDA2DC0";
paths = (
{
closed = 1;
nodes = (
"145 427 CURVE",
"145 546 LINE",
"75 546 LINE",
"75 -258 LINE",
"145 -258 LINE",
"145 120 LINE",
"179 49 OFFCURVE",
"254 -10 OFFCURVE",
"358 -10 CURVE SMOOTH",
"508 -10 OFFCURVE",
"622 108 OFFCURVE",
"622 278 CURVE SMOOTH",
"622 448 OFFCURVE",
"508 556 OFFCURVE",
"358 556 CURVE SMOOTH",
"254 556 OFFCURVE",
"179 498 OFFCURVE"
);
},
{
closed = 1;
nodes = (
"550 278 CURVE SMOOTH",
"550 140 OFFCURVE",
"455 50 OFFCURVE",
"347 50 CURVE SMOOTH",
"240 50 OFFCURVE",
"145 135 OFFCURVE",
"145 273 CURVE SMOOTH",
"145 411 OFFCURVE",
"240 496 OFFCURVE",
"347 496 CURVE SMOOTH",
"455 496 OFFCURVE",
"550 416 OFFCURVE"
);
}
);
width = 662;
},
{
layerId = "22D14058-393A-410A-BECB-F56B411A01B2";
paths = (
{
closed = 1;
nodes = (
"246 485 CURVE",
"246 558 LINE",
"75 558 LINE",
"75 -266 LINE",
"246 -266 LINE",
"246 81 LINE",
"283 27 OFFCURVE",
"336 -7 OFFCURVE",
"410 -7 CURVE SMOOTH",
"549 -7 OFFCURVE",
"664 108 OFFCURVE",
"664 278 CURVE SMOOTH",
"664 448 OFFCURVE",
"549 564 OFFCURVE",
"410 564 CURVE SMOOTH",
"336 564 OFFCURVE",
"282 535 OFFCURVE"
);
},
{
closed = 1;
nodes = (
"490 278 CURVE SMOOTH",
"490 184 OFFCURVE",
"426 141 OFFCURVE",
"368 141 CURVE SMOOTH",
"310 141 OFFCURVE",
"246 185 OFFCURVE",
"246 279 CURVE SMOOTH",
"246 373 OFFCURVE",
"310 416 OFFCURVE",
"368 416 CURVE SMOOTH",
"426 416 OFFCURVE",
"490 372 OFFCURVE"
);
}
);
width = 698;
}
);
unicode = 0070;
userData = {
com.schriftgestaltung.Glyphs.ColorIndex = 4;
public.markColor = "0.67,0.95,0.38,1";
};
},
{
color = 4;
glyphname = thorn;
lastChange = "2016-08-13 07:58:21 +0000";
layers = (
{
layerId = "C0ED9D5D-A651-429A-8F5D-D93A2EDA2DC0";
paths = (
{
closed = 1;
nodes = (
"145 427 CURVE",
"145 740 LINE",
"75 740 LINE",
"75 -258 LINE",
"145 -258 LINE",
"145 120 LINE",
"179 49 OFFCURVE",
"254 -10 OFFCURVE",
"358 -10 CURVE SMOOTH",
"508 -10 OFFCURVE",
"622 108 OFFCURVE",
"622 278 CURVE SMOOTH",
"622 448 OFFCURVE",
"508 556 OFFCURVE",
"358 556 CURVE SMOOTH",
"254 556 OFFCURVE",
"179 498 OFFCURVE"
);
},
{
closed = 1;
nodes = (
"550 278 CURVE SMOOTH",
"550 140 OFFCURVE",
"455 50 OFFCURVE",
"347 50 CURVE SMOOTH",
"240 50 OFFCURVE",
"145 135 OFFCURVE",
"145 273 CURVE SMOOTH",
"145 411 OFFCURVE",
"240 496 OFFCURVE",
"347 496 CURVE SMOOTH",
"455 496 OFFCURVE",
"550 416 OFFCURVE"
);
}
);
width = 662;
},
{
layerId = "22D14058-393A-410A-BECB-F56B411A01B2";
paths = (
{
closed = 1;
nodes = (
"246 485 CURVE",
"246 740 LINE",
"75 740 LINE",
"75 -266 LINE",
"246 -266 LINE",
"246 81 LINE",
"283 27 OFFCURVE",
"336 -7 OFFCURVE",
"410 -7 CURVE SMOOTH",
"549 -7 OFFCURVE",
"664 108 OFFCURVE",
"664 278 CURVE SMOOTH",
"664 448 OFFCURVE",
"549 564 OFFCURVE",
"410 564 CURVE SMOOTH",
"336 564 OFFCURVE",
"282 535 OFFCURVE"
);
},
{
closed = 1;
nodes = (
"490 278 CURVE SMOOTH",
"490 184 OFFCURVE",
"426 141 OFFCURVE",
"368 141 CURVE SMOOTH",
"310 141 OFFCURVE",
"246 185 OFFCURVE",
"246 279 CURVE SMOOTH",
"246 373 OFFCURVE",
"310 416 OFFCURVE",
"368 416 CURVE SMOOTH",
"426 416 OFFCURVE",
"490 372 OFFCURVE"
);
}
);
width = 698;
}
);
unicode = 00FE;
userData = {
com.schriftgestaltung.Glyphs.ColorIndex = 4;
public.markColor = "0.67,0.95,0.38,1";
};
},
{
color = 4;
glyphname = q;
lastChange = "2016-08-13 07:58:21 +0000";
layers = (
{
layerId = "C0ED9D5D-A651-429A-8F5D-D93A2EDA2DC0";
paths = (
{
closed = 1;
nodes = (
"40 278 CURVE SMOOTH",
"40 108 OFFCURVE",
"154 -10 OFFCURVE",
"304 -10 CURVE SMOOTH",
"408 -10 OFFCURVE",
"483 49 OFFCURVE",
"517 120 CURVE",
"517 -258 LINE",
"587 -258 LINE",
"587 546 LINE",
"517 546 LINE",
"517 427 LINE",
"483 498 OFFCURVE",
"408 556 OFFCURVE",
"304 556 CURVE SMOOTH",
"154 556 OFFCURVE",
"40 448 OFFCURVE"
);
},
{
closed = 1;
nodes = (
"517 273 CURVE SMOOTH",
"517 135 OFFCURVE",
"422 50 OFFCURVE",
"314 50 CURVE SMOOTH",
"207 50 OFFCURVE",
"112 140 OFFCURVE",
"112 278 CURVE SMOOTH",
"112 416 OFFCURVE",
"207 496 OFFCURVE",
"314 496 CURVE SMOOTH",
"422 496 OFFCURVE",
"517 411 OFFCURVE"
);
}
);
width = 662;
},
{
layerId = "22D14058-393A-410A-BECB-F56B411A01B2";
paths = (
{
closed = 1;
nodes = (
"34 278 CURVE SMOOTH",
"34 108 OFFCURVE",
"149 -7 OFFCURVE",
"288 -7 CURVE SMOOTH",
"361 -7 OFFCURVE",
"414 27 OFFCURVE",
"452 81 CURVE",
"452 -266 LINE",
"623 -266 LINE",
"623 558 LINE",
"452 558 LINE",
"452 485 LINE",
"416 535 OFFCURVE",
"361 564 OFFCURVE",
"288 564 CURVE SMOOTH",
"149 564 OFFCURVE",
"34 448 OFFCURVE"
);
},
{
closed = 1;
nodes = (
"452 279 CURVE SMOOTH",
"452 185 OFFCURVE",
"388 141 OFFCURVE",
"330 141 CURVE SMOOTH",
"272 141 OFFCURVE",
"208 184 OFFCURVE",
"208 278 CURVE SMOOTH",
"208 372 OFFCURVE",
"272 416 OFFCURVE",
"330 416 CURVE SMOOTH",
"388 416 OFFCURVE",
"452 373 OFFCURVE"
);
}
);
width = 698;
}
);
unicode = 0071;
userData = {
com.schriftgestaltung.Glyphs.ColorIndex = 4;
public.markColor = "0.67,0.95,0.38,1";
};
},
{
color = 4;
glyphname = r;
lastChange = "2016-08-13 07:58:21 +0000";
layers = (
{
anchors = (
{
name = bottom;
position = "{112, 0}";
},
{
name = top;
position = "{217, 546}";
}
);
layerId = "C0ED9D5D-A651-429A-8F5D-D93A2EDA2DC0";
paths = (
{
closed = 1;
nodes = (
"145 310 LINE",
"145 443 OFFCURVE",
"204 483 OFFCURVE",
"294 483 CURVE SMOOTH",
"314 483 LINE",
"314 556 LINE",
"171 556 OFFCURVE",
"119 454 OFFCURVE",
"119 310 CURVE"
);
},
{
closed = 1;
nodes = (
"75 0 LINE",
"145 0 LINE",
"145 546 LINE",
"75 546 LINE"
);
}
);
width = 353;
},
{
anchors = (
{
name = bottom;
position = "{157, 0}";
},
{
name = top;
position = "{272, 558}";
}
);
layerId = "22D14058-393A-410A-BECB-F56B411A01B2";
paths = (
{
closed = 1;
nodes = (
"246 264 LINE",
"246 361 OFFCURVE",
"289 390 OFFCURVE",
"364 390 CURVE SMOOTH",
"406 390 LINE",
"406 564 LINE",
"282 564 OFFCURVE",
"201 420 OFFCURVE",
"201 264 CURVE"
);
},
{
closed = 1;
nodes = (
"75 0 LINE",
"246 0 LINE",
"246 558 LINE",
"75 558 LINE"
);
}
);
width = 424;
}
);
unicode = 0072;
userData = {
com.schriftgestaltung.Glyphs.ColorIndex = 4;
public.markColor = "0.67,0.95,0.38,1";
};
},
{
color = 8;
glyphname = rcommaaccent;
lastChange = "2016-08-26 15:34:35 +0000";
layers = (
{
anchors = (
{
name = _bottom;
position = "{112, 0}";
}
);
components = (
{
name = r;
}
);
layerId = "C0ED9D5D-A651-429A-8F5D-D93A2EDA2DC0";
paths = (
{
closed = 1;
nodes = (
"68 -50 LINE",
"68 -126 LINE",
"113 -126 LINE",
"113 -151 LINE SMOOTH",
"113 -183 OFFCURVE",
"100 -200 OFFCURVE",
"67 -200 CURVE",
"67 -238 LINE",
"125 -238 OFFCURVE",
"158 -212 OFFCURVE",
"158 -135 CURVE SMOOTH",
"158 -111 OFFCURVE",
"155 -83 OFFCURVE",
"149 -50 CURVE"
);
}
);
width = 353;
},
{
anchors = (
{
name = _bottom;
position = "{157, 0}";
}
);
components = (
{
name = r;
}
);
layerId = "22D14058-393A-410A-BECB-F56B411A01B2";
paths = (
{
closed = 1;
nodes = (
"89 -40 LINE",
"89 -163 LINE",
"152 -163 LINE",
"152 -179 LINE SMOOTH",
"152 -224 OFFCURVE",
"134 -245 OFFCURVE",
"100 -245 CURVE",
"100 -310 LINE",
"195 -310 OFFCURVE",
"240 -248 OFFCURVE",
"240 -158 CURVE SMOOTH",
"240 -122 OFFCURVE",
"234 -82 OFFCURVE",
"220 -40 CURVE"
);
}
);
width = 424;
}
);
unicode = 0157;
userData = {
com.schriftgestaltung.Glyphs.ColorIndex = 8;
public.markColor = "0.5,0.09,0.79,1";
};
},
{
color = 4;
glyphname = s;
lastChange = "2016-08-13 07:58:21 +0000";
layers = (
{
anchors = (
{
name = bottom;
position = "{259, 0}";
},
{
name = top;
position = "{259, 546}";
}
);
layerId = "C0ED9D5D-A651-429A-8F5D-D93A2EDA2DC0";
paths = (
{
closed = 1;
nodes = (
"60 395 CURVE SMOOTH",
"60 192 OFFCURVE",
"387 299 OFFCURVE",
"387 140 CURVE SMOOTH",
"387 84 OFFCURVE",
"344 46 OFFCURVE",
"258 46 CURVE SMOOTH",
"182 46 OFFCURVE",
"135 94 OFFCURVE",
"132 161 CURVE",
"60 161 LINE",
"66 56 OFFCURVE",
"138 -10 OFFCURVE",
"258 -10 CURVE SMOOTH",
"378 -10 OFFCURVE",
"458 52 OFFCURVE",
"458 140 CURVE SMOOTH",
"458 357 OFFCURVE",
"131 241 OFFCURVE",
"131 403 CURVE SMOOTH",
"131 455 OFFCURVE",
"174 500 OFFCURVE",
"254 500 CURVE SMOOTH",
"331 500 OFFCURVE",
"373 449 OFFCURVE",
"376 385 CURVE",
"448 385 LINE",
"442 490 OFFCURVE",
"376 556 OFFCURVE",
"260 556 CURVE SMOOTH",
"140 556 OFFCURVE",
"60 483 OFFCURVE"
);
}
);
width = 518;
},
{
anchors = (
{
name = bottom;
position = "{278, 0}";
},
{
name = top;
position = "{278, 558}";
}
);
layerId = "22D14058-393A-410A-BECB-F56B411A01B2";
paths = (
{
closed = 1;
nodes = (
"37 390 CURVE SMOOTH",
"37 197 OFFCURVE",
"352 262 OFFCURVE",
"352 174 CURVE SMOOTH",
"352 147 OFFCURVE",
"323 126 OFFCURVE",
"283 126 CURVE SMOOTH",
"243 126 OFFCURVE",
"216 139 OFFCURVE",
"211 177 CURVE",
"36 177 LINE",
"45 50 OFFCURVE",
"150 -7 OFFCURVE",
"282 -7 CURVE SMOOTH",
"414 -7 OFFCURVE",
"516 64 OFFCURVE",
"516 170 CURVE SMOOTH",
"516 369 OFFCURVE",
"201 304 OFFCURVE",
"201 390 CURVE SMOOTH",
"201 417 OFFCURVE",
"226 431 OFFCURVE",
"268 431 CURVE SMOOTH",
"311 431 OFFCURVE",
"335 421 OFFCURVE",
"339 381 CURVE",
"514 381 LINE",
"508 496 OFFCURVE",
"408 564 OFFCURVE",
"278 564 CURVE SMOOTH",
"118 564 OFFCURVE",
"37 483 OFFCURVE"
);
}
);
width = 555;
}
);
unicode = 0073;
userData = {
com.schriftgestaltung.Glyphs.ColorIndex = 4;
public.markColor = "0.67,0.95,0.38,1";
};
},
{
color = 8;
glyphname = scommaaccent;
lastChange = "2016-08-26 15:34:35 +0000";
layers = (
{
anchors = (
{
name = _bottom;
position = "{259, 0}";
}
);
components = (
{
name = s;
}
);
layerId = "C0ED9D5D-A651-429A-8F5D-D93A2EDA2DC0";
paths = (
{
closed = 1;
nodes = (
"215 -50 LINE",
"215 -126 LINE",
"260 -126 LINE",
"260 -151 LINE SMOOTH",
"260 -183 OFFCURVE",
"247 -200 OFFCURVE",
"214 -200 CURVE",
"214 -238 LINE",
"272 -238 OFFCURVE",
"305 -212 OFFCURVE",
"305 -135 CURVE SMOOTH",
"305 -111 OFFCURVE",
"302 -83 OFFCURVE",
"296 -50 CURVE"
);
}
);
width = 518;
},
{
anchors = (
{
name = _bottom;
position = "{278, 0}";
}
);
components = (
{
name = s;
}
);
layerId = "22D14058-393A-410A-BECB-F56B411A01B2";
paths = (
{
closed = 1;
nodes = (
"210 -40 LINE",
"210 -163 LINE",
"273 -163 LINE",
"273 -179 LINE SMOOTH",
"273 -224 OFFCURVE",
"255 -245 OFFCURVE",
"221 -245 CURVE",
"221 -310 LINE",
"316 -310 OFFCURVE",
"361 -248 OFFCURVE",
"361 -158 CURVE SMOOTH",
"361 -122 OFFCURVE",
"355 -82 OFFCURVE",
"341 -40 CURVE"
);
}
);
width = 555;
}
);
unicode = 0219;
userData = {
com.schriftgestaltung.Glyphs.ColorIndex = 8;
public.markColor = "0.5,0.09,0.79,1";
};
},
{
color = 4;
glyphname = germandbls;
lastChange = "2016-08-13 07:58:21 +0000";
layers = (
{
layerId = "C0ED9D5D-A651-429A-8F5D-D93A2EDA2DC0";
paths = (
{
closed = 1;
nodes = (
"75 563 CURVE SMOOTH",
"75 0 LINE",
"145 0 LINE",
"145 567 LINE SMOOTH",
"145 641 OFFCURVE",
"198 690 OFFCURVE",
"266 690 CURVE SMOOTH",
"333 690 OFFCURVE",
"381 641 OFFCURVE",
"381 575 CURVE SMOOTH",
"381 525 OFFCURVE",
"358 488 OFFCURVE",
"313 465 CURVE SMOOTH",
"276 446 LINE",
"276 404 LINE",
"437 299 LINE SMOOTH",
"501 257 OFFCURVE",
"528 217 OFFCURVE",
"528 167 CURVE SMOOTH",
"528 108 OFFCURVE",
"492 52 OFFCURVE",
"411 52 CURVE SMOOTH",
"336 52 OFFCURVE",
"297 95 OFFCURVE",
"293 153 CURVE",
"227 153 LINE",
"227 46 OFFCURVE",
"321 -10 OFFCURVE",
"411 -10 CURVE SMOOTH",
"501 -10 OFFCURVE",
"600 51 OFFCURVE",
"600 167 CURVE SMOOTH",
"600 251 OFFCURVE",
"563 306 OFFCURVE",
"470 365 CURVE SMOOTH",
"330 455 LINE",
"316 416 LINE",
"350 433 LINE SMOOTH",
"418 467 OFFCURVE",
"453 516 OFFCURVE",
"453 583 CURVE SMOOTH",
"453 665 OFFCURVE",
"394 750 OFFCURVE",
"266 750 CURVE SMOOTH",
"160 750 OFFCURVE",
"75 680 OFFCURVE"
);
}
);
width = 631;
},
{
layerId = "22D14058-393A-410A-BECB-F56B411A01B2";
paths = (
{
closed = 1;
nodes = (
"75 513 CURVE SMOOTH",
"75 0 LINE",
"246 0 LINE",
"245 513 LINE SMOOTH",
"245 570 OFFCURVE",
"282 602 OFFCURVE",
"326 602 CURVE SMOOTH",
"370 602 OFFCURVE",
"403 566 OFFCURVE",
"403 522 CURVE SMOOTH",
"403 490 OFFCURVE",
"391 465 OFFCURVE",
"361 447 CURVE SMOOTH",
"341 435 LINE",
"341 365 LINE",
"491 281 LINE SMOOTH",
"534 257 OFFCURVE",
"551 237 OFFCURVE",
"551 206 CURVE SMOOTH",
"551 172 OFFCURVE",
"522 141 OFFCURVE",
"492 141 CURVE SMOOTH",
"462 141 OFFCURVE",
"437 159 OFFCURVE",
"432 197 CURVE",
"297 197 LINE",
"298 70 OFFCURVE",
"387 -7 OFFCURVE",
"502 -7 CURVE SMOOTH",
"627 -7 OFFCURVE",
"725 82 OFFCURVE",
"725 206 CURVE SMOOTH",
"725 299 OFFCURVE",
"685 354 OFFCURVE",
"585 410 CURVE SMOOTH",
"460 480 LINE",
"401 406 LINE",
"461 432 LINE SMOOTH",
"546 469 OFFCURVE",
"578 509 OFFCURVE",
"578 568 CURVE SMOOTH",
"578 658 OFFCURVE",
"501 750 OFFCURVE",
"336 750 CURVE SMOOTH",
"171 750 OFFCURVE",
"75 660 OFFCURVE"
);
}
);
width = 746;
}
);
unicode = 00DF;
userData = {
com.schriftgestaltung.Glyphs.ColorIndex = 4;
public.markColor = "0.67,0.95,0.38,1";
};
},
{
color = 4;
glyphname = t;
lastChange = "2016-08-13 07:58:21 +0000";
layers = (
{
anchors = (
{
name = bottom;
position = "{170, 0}";
},
{
name = topright;
position = "{170, 780}";
}
);
layerId = "C0ED9D5D-A651-429A-8F5D-D93A2EDA2DC0";
paths = (
{
closed = 1;
nodes = (
"97 129 LINE SMOOTH",
"97 41 OFFCURVE",
"141 0 OFFCURVE",
"225 0 CURVE SMOOTH",
"318 0 LINE",
"318 55 LINE",
"240 55 LINE SMOOTH",
"185 55 OFFCURVE",
"167 75 OFFCURVE",
"167 129 CURVE SMOOTH",
"167 683 LINE",
"97 683 LINE"
);
},
{
closed = 1;
nodes = (
"318 491 LINE",
"318 546 LINE",
"21 546 LINE",
"21 491 LINE"
);
}
);
width = 339;
},
{
anchors = (
{
name = bottom;
position = "{208, 0}";
},
{
name = topright;
position = "{245, 888}";
}
);
layerId = "22D14058-393A-410A-BECB-F56B411A01B2";
paths = (
{
closed = 1;
nodes = (
"89 184 LINE SMOOTH",
"89 42 OFFCURVE",
"170 0 OFFCURVE",
"286 0 CURVE SMOOTH",
"373 0 LINE",
"373 145 LINE",
"312 145 LINE SMOOTH",
"274 145 OFFCURVE",
"260 158 OFFCURVE",
"260 184 CURVE SMOOTH",
"260 694 LINE",
"89 694 LINE"
);
},
{
closed = 1;
nodes = (
"372 416 LINE",
"372 558 LINE",
"37 558 LINE",
"37 416 LINE"
);
}
);
width = 415;
}
);
unicode = 0074;
userData = {
com.schriftgestaltung.Glyphs.ColorIndex = 4;
public.markColor = "0.67,0.95,0.38,1";
};
},
{
color = 5;
glyphname = tcaron;
lastChange = "2016-08-26 15:16:44 +0000";
layers = (
{
background = {
components = (
{
name = commaaccent;
transform = "{1, 0, 0, 1, 115, 0}";
},
{
name = commaaccent;
transform = "{1, 0, 0, 1, 226, 790}";
}
);
};
components = (
{
name = t;
}
);
layerId = "C0ED9D5D-A651-429A-8F5D-D93A2EDA2DC0";
paths = (
{
closed = 1;
nodes = (
"257 740 LINE",
"257 664 LINE",
"302 664 LINE",
"302 649 LINE SMOOTH",
"302 627 OFFCURVE",
"289 620 OFFCURVE",
"256 620 CURVE",
"256 582 LINE",
"314 582 OFFCURVE",
"347 601 OFFCURVE",
"347 665 CURVE SMOOTH",
"347 689 OFFCURVE",
"344 707 OFFCURVE",
"338 740 CURVE"
);
}
);
width = 339;
},
{
background = {
components = (
{
name = commaaccent;
transform = "{1, 0, 0, 1, 130, 0}";
},
{
name = commaaccent;
transform = "{1, 0, 0, 1, 301, 880}";
}
);
};
components = (
{
name = t;
}
);
layerId = "22D14058-393A-410A-BECB-F56B411A01B2";
paths = (
{
closed = 1;
nodes = (
"311 840 LINE",
"311 717 LINE",
"374 717 LINE",
"374 701 LINE SMOOTH",
"374 676 OFFCURVE",
"356 665 OFFCURVE",
"322 665 CURVE",
"322 600 LINE",
"417 600 OFFCURVE",
"462 652 OFFCURVE",
"462 732 CURVE SMOOTH",
"462 768 OFFCURVE",
"456 798 OFFCURVE",
"442 840 CURVE"
);
}
);
width = 425;
}
);
unicode = 0165;
userData = {
com.schriftgestaltung.Glyphs.ColorIndex = 8;
public.markColor = "0.5,0.09,0.79,1";
};
},
{
color = 8;
glyphname = tcedilla;
lastChange = "2016-08-13 07:58:21 +0000";
layers = (
{
layerId = "C0ED9D5D-A651-429A-8F5D-D93A2EDA2DC0";
paths = (
{
closed = 1;
nodes = (
"97 129 LINE SMOOTH",
"97 41 OFFCURVE",
"141 0 OFFCURVE",
"225 0 CURVE SMOOTH",
"318 0 LINE",
"318 55 LINE",
"240 55 LINE SMOOTH",
"185 55 OFFCURVE",
"167 75 OFFCURVE",
"167 129 CURVE SMOOTH",
"167 683 LINE",
"97 683 LINE"
);
},
{
closed = 1;
nodes = (
"318 491 LINE",
"318 546 LINE",
"21 546 LINE",
"21 491 LINE"
);
},
{
closed = 1;
nodes = (
"198 47 LINE",
"145 47 LINE",
"145 -112 LINE",
"200 -112 LINE SMOOTH",
"235 -112 OFFCURVE",
"256 -127 OFFCURVE",
"256 -157 CURVE SMOOTH",
"256 -187 OFFCURVE",
"235 -203 OFFCURVE",
"200 -203 CURVE SMOOTH",
"95 -203 LINE",
"95 -258 LINE",
"202 -258 LINE SMOOTH",
"278 -258 OFFCURVE",
"328 -217 OFFCURVE",
"328 -157 CURVE SMOOTH",
"328 -97 OFFCURVE",
"278 -57 OFFCURVE",
"198 -57 CURVE"
);
}
);
width = 339;
},
{
layerId = "22D14058-393A-410A-BECB-F56B411A01B2";
paths = (
{
closed = 1;
nodes = (
"89 184 LINE SMOOTH",
"89 42 OFFCURVE",
"170 0 OFFCURVE",
"286 0 CURVE SMOOTH",
"373 0 LINE",
"373 145 LINE",
"312 145 LINE SMOOTH",
"274 145 OFFCURVE",
"260 158 OFFCURVE",
"260 184 CURVE SMOOTH",
"260 694 LINE",
"89 694 LINE"
);
},
{
closed = 1;
nodes = (
"372 416 LINE",
"372 558 LINE",
"37 558 LINE",
"37 416 LINE"
);
},
{
closed = 1;
nodes = (
"267 76 LINE",
"164 76 LINE",
"164 -122 LINE",
"219 -122 LINE SMOOTH",
"254 -122 OFFCURVE",
"275 -117 OFFCURVE",
"275 -147 CURVE SMOOTH",
"275 -177 OFFCURVE",
"254 -173 OFFCURVE",
"219 -173 CURVE SMOOTH",
"104 -173 LINE",
"104 -266 LINE",
"267 -266 LINE SMOOTH",
"332 -266 OFFCURVE",
"397 -227 OFFCURVE",
"397 -147 CURVE SMOOTH",
"397 -67 OFFCURVE",
"332 -37 OFFCURVE",
"267 -37 CURVE"
);
}
);
width = 415;
}
);
unicode = 0163;
userData = {
com.schriftgestaltung.Glyphs.ColorIndex = 8;
public.markColor = "0.5,0.09,0.79,1";
};
},
{
color = 8;
glyphname = tcommaaccent;
lastChange = "2016-08-26 15:34:35 +0000";
layers = (
{
anchors = (
{
name = _bottom;
position = "{170, 0}";
}
);
components = (
{
name = t;
}
);
layerId = "C0ED9D5D-A651-429A-8F5D-D93A2EDA2DC0";
paths = (
{
closed = 1;
nodes = (
"126 -50 LINE",
"126 -126 LINE",
"171 -126 LINE",
"171 -151 LINE SMOOTH",
"171 -183 OFFCURVE",
"158 -200 OFFCURVE",
"125 -200 CURVE",
"125 -238 LINE",
"183 -238 OFFCURVE",
"216 -212 OFFCURVE",
"216 -135 CURVE SMOOTH",
"216 -111 OFFCURVE",
"213 -83 OFFCURVE",
"207 -50 CURVE"
);
}
);
width = 339;
},
{
anchors = (
{
name = _bottom;
position = "{208, 0}";
}
);
components = (
{
name = t;
}
);
layerId = "22D14058-393A-410A-BECB-F56B411A01B2";
paths = (
{
closed = 1;
nodes = (
"140 -40 LINE",
"140 -163 LINE",
"203 -163 LINE",
"203 -179 LINE SMOOTH",
"203 -224 OFFCURVE",
"185 -245 OFFCURVE",
"151 -245 CURVE",
"151 -310 LINE",
"246 -310 OFFCURVE",
"291 -248 OFFCURVE",
"291 -158 CURVE SMOOTH",
"291 -122 OFFCURVE",
"285 -82 OFFCURVE",
"271 -40 CURVE"
);
}
);
width = 415;
}
);
unicode = 021B;
userData = {
com.schriftgestaltung.Glyphs.ColorIndex = 8;
public.markColor = "0.5,0.09,0.79,1";
};
},
{
color = 4;
glyphname = u;
lastChange = "2016-08-13 07:58:21 +0000";
layers = (
{
anchors = (
{
name = ogonek;
position = "{534, 0}";
},
{
name = top;
position = "{305, 546}";
}
);
layerId = "C0ED9D5D-A651-429A-8F5D-D93A2EDA2DC0";
paths = (
{
closed = 1;
nodes = (
"534 546 LINE",
"464 546 LINE",
"464 0 LINE",
"534 0 LINE"
);
},
{
closed = 1;
nodes = (
"139 546 LINE",
"70 546 LINE",
"70 221 LINE SMOOTH",
"70 64 OFFCURVE",
"170 -10 OFFCURVE",
"283 -10 CURVE SMOOTH",
"384 -10 OFFCURVE",
"472 47 OFFCURVE",
"492 172 CURVE",
"464 234 LINE",
"464 111 OFFCURVE",
"399 50 OFFCURVE",
"301 50 CURVE SMOOTH",
"203 50 OFFCURVE",
"139 111 OFFCURVE",
"139 234 CURVE SMOOTH"
);
}
);
width = 609;
},
{
anchors = (
{
name = ogonek;
position = "{625, -2}";
},
{
name = top;
position = "{350, 558}";
}
);
layerId = "22D14058-393A-410A-BECB-F56B411A01B2";
paths = (
{
closed = 1;
nodes = (
"625 558 LINE",
"454 558 LINE",
"454 0 LINE",
"625 0 LINE"
);
},
{
closed = 1;
nodes = (
"240 558 LINE",
"70 558 LINE",
"70 232 LINE SMOOTH",
"70 82 OFFCURVE",
"160 -6 OFFCURVE",
"285 -6 CURVE SMOOTH",
"382 -6 OFFCURVE",
"450 48 OFFCURVE",
"473 126 CURVE",
"454 255 LINE",
"454 182 OFFCURVE",
"412 142 OFFCURVE",
"347 142 CURVE SMOOTH",
"282 142 OFFCURVE",
"240 182 OFFCURVE",
"240 255 CURVE SMOOTH"
);
}
);
width = 700;
}
);
unicode = 0075;
userData = {
com.schriftgestaltung.Glyphs.ColorIndex = 4;
public.markColor = "0.67,0.95,0.38,1";
};
},
{
color = 4;
glyphname = v;
lastChange = "2016-08-13 07:58:21 +0000";
layers = (
{
layerId = "C0ED9D5D-A651-429A-8F5D-D93A2EDA2DC0";
paths = (
{
closed = 1;
nodes = (
"14 546 LINE",
"233 0 LINE",
"304 0 LINE",
"523 546 LINE",
"448 546 LINE",
"268 69 LINE",
"89 546 LINE"
);
}
);
width = 537;
},
{
layerId = "22D14058-393A-410A-BECB-F56B411A01B2";
paths = (
{
closed = 1;
nodes = (
"4 558 LINE",
"202 0 LINE",
"424 0 LINE",
"622 558 LINE",
"440 558 LINE",
"313 143 LINE",
"186 558 LINE"
);
}
);
width = 626;
}
);
unicode = 0076;
userData = {
com.schriftgestaltung.Glyphs.ColorIndex = 4;
public.markColor = "0.67,0.95,0.38,1";
};
},
{
color = 4;
glyphname = w;
lastChange = "2016-08-13 07:58:21 +0000";
layers = (
{
layerId = "C0ED9D5D-A651-429A-8F5D-D93A2EDA2DC0";
paths = (
{
closed = 1;
nodes = (
"190 0 LINE",
"261 0 LINE",
"416 526 LINE",
"377 526 LINE",
"533 0 LINE",
"604 0 LINE",
"778 546 LINE",
"704 546 LINE",
"556 34 LINE",
"580 34 LINE",
"436 546 LINE",
"366 546 LINE",
"213 34 LINE",
"237 34 LINE",
"88 546 LINE",
"14 546 LINE"
);
}
);
width = 792;
},
{
layerId = "22D14058-393A-410A-BECB-F56B411A01B2";
paths = (
{
closed = 1;
nodes = (
"171 0 LINE",
"355 0 LINE",
"461 441 LINE",
"408 441 LINE",
"512 0 LINE",
"696 0 LINE",
"863 558 LINE",
"702 558 LINE",
"587 39 LINE",
"643 39 LINE",
"529 558 LINE",
"348 558 LINE",
"234 39 LINE",
"290 39 LINE",
"175 558 LINE",
"4 558 LINE"
);
}
);
width = 866;
}
);
unicode = 0077;
userData = {
com.schriftgestaltung.Glyphs.ColorIndex = 4;
public.markColor = "0.67,0.95,0.38,1";
};
},
{
color = 4;
glyphname = x;
lastChange = "2016-08-13 07:58:21 +0000";
layers = (
{
layerId = "C0ED9D5D-A651-429A-8F5D-D93A2EDA2DC0";
paths = (
{
closed = 1;
nodes = (
"364 0 LINE",
"444 0 LINE",
"94 546 LINE",
"14 546 LINE"
);
},
{
closed = 1;
nodes = (
"201 291 LINE",
"14 0 LINE",
"94 0 LINE",
"232 234 LINE"
);
},
{
closed = 1;
nodes = (
"258 255 LINE",
"445 546 LINE",
"365 546 LINE",
"227 312 LINE"
);
}
);
width = 459;
},
{
layerId = "22D14058-393A-410A-BECB-F56B411A01B2";
paths = (
{
closed = 1;
nodes = (
"354 0 LINE",
"546 0 LINE",
"196 558 LINE",
"4 558 LINE"
);
},
{
closed = 1;
nodes = (
"232 340 LINE",
"4 0 LINE",
"173 0 LINE",
"305 213 LINE"
);
},
{
closed = 1;
nodes = (
"319 218 LINE",
"546 558 LINE",
"377 558 LINE",
"245 345 LINE"
);
}
);
width = 549;
}
);
unicode = 0078;
userData = {
com.schriftgestaltung.Glyphs.ColorIndex = 4;
public.markColor = "0.67,0.95,0.38,1";
};
},
{
color = 4;
glyphname = y;
lastChange = "2016-08-13 07:58:21 +0000";
layers = (
{
anchors = (
{
name = top;
position = "{268, 546}";
}
);
layerId = "C0ED9D5D-A651-429A-8F5D-D93A2EDA2DC0";
paths = (
{
closed = 1;
nodes = (
"231 8 LINE",
"125 -254 LINE",
"196 -254 LINE",
"520 546 LINE",
"449 546 LINE",
"269 82 LINE",
"89 546 LINE",
"14 546 LINE"
);
}
);
width = 535;
},
{
anchors = (
{
name = top;
position = "{321, 558}";
}
);
layerId = "22D14058-393A-410A-BECB-F56B411A01B2";
paths = (
{
closed = 1;
nodes = (
"221 11 LINE",
"102 -266 LINE",
"281 -266 LINE",
"637 558 LINE",
"458 558 LINE",
"322 193 LINE",
"198 558 LINE",
"4 558 LINE"
);
}
);
width = 641;
}
);
unicode = 0079;
userData = {
com.schriftgestaltung.Glyphs.ColorIndex = 4;
public.markColor = "0.67,0.95,0.38,1";
};
},
{
color = 4;
glyphname = z;
lastChange = "2016-08-13 07:58:21 +0000";
layers = (
{
anchors = (
{
name = top;
position = "{219, 546}";
}
);
layerId = "C0ED9D5D-A651-429A-8F5D-D93A2EDA2DC0";
paths = (
{
closed = 1;
nodes = (
"396 546 LINE",
"40 546 LINE",
"40 491 LINE",
"319 491 LINE",
"40 56 LINE",
"40 0 LINE",
"396 0 LINE",
"396 56 LINE",
"117 56 LINE",
"396 491 LINE"
);
}
);
width = 437;
},
{
anchors = (
{
name = top;
position = "{258, 558}";
}
);
layerId = "22D14058-393A-410A-BECB-F56B411A01B2";
paths = (
{
closed = 1;
nodes = (
"465 558 LINE",
"50 558 LINE",
"50 417 LINE",
"264 417 LINE",
"50 141 LINE",
"50 0 LINE",
"465 0 LINE",
"465 141 LINE",
"251 141 LINE",
"465 417 LINE"
);
}
);
width = 515;
}
);
unicode = 007A;
userData = {
com.schriftgestaltung.Glyphs.ColorIndex = 4;
public.markColor = "0.67,0.95,0.38,1";
};
},
{
color = 4;
glyphname = fi;
lastChange = "2016-08-13 07:58:21 +0000";
layers = (
{
layerId = "C0ED9D5D-A651-429A-8F5D-D93A2EDA2DC0";
paths = (
{
closed = 1;
nodes = (
"99 0 LINE",
"169 0 LINE",
"169 599 LINE SMOOTH",
"169 675 OFFCURVE",
"198 707 OFFCURVE",
"288 707 CURVE",
"288 763 LINE",
"157 763 OFFCURVE",
"99 714 OFFCURVE",
"99 599 CURVE SMOOTH"
);
},
{
closed = 1;
nodes = (
"439 649 CURVE SMOOTH",
"468 649 OFFCURVE",
"490 672 OFFCURVE",
"490 701 CURVE SMOOTH",
"490 729 OFFCURVE",
"468 752 OFFCURVE",
"439 752 CURVE SMOOTH",
"411 752 OFFCURVE",
"388 729 OFFCURVE",
"388 701 CURVE SMOOTH",
"388 672 OFFCURVE",
"411 649 OFFCURVE"
);
},
{
closed = 1;
nodes = (
"23 546 LINE",
"23 491 LINE",
"403 491 LINE",
"403 0 LINE",
"473 0 LINE",
"473 546 LINE"
);
}
);
width = 548;
},
{
layerId = "22D14058-393A-410A-BECB-F56B411A01B2";
paths = (
{
closed = 1;
nodes = (
"77 0 LINE",
"248 0 LINE",
"248 579 LINE SMOOTH",
"248 624 OFFCURVE",
"266 638 OFFCURVE",
"311 638 CURVE",
"311 783 LINE",
"151 783 OFFCURVE",
"77 721 OFFCURVE",
"77 579 CURVE SMOOTH"
);
},
{
closed = 1;
nodes = (
"496 592 CURVE SMOOTH",
"552 592 OFFCURVE",
"596 636 OFFCURVE",
"596 692 CURVE SMOOTH",
"596 749 OFFCURVE",
"552 793 OFFCURVE",
"496 793 CURVE SMOOTH",
"440 793 OFFCURVE",
"396 749 OFFCURVE",
"396 692 CURVE SMOOTH",
"396 636 OFFCURVE",
"440 592 OFFCURVE"
);
},
{
closed = 1;
nodes = (
"25 558 LINE",
"25 416 LINE",
"411 416 LINE",
"411 0 LINE",
"582 0 LINE",
"582 558 LINE"
);
}
);
width = 657;
}
);
unicode = FB01;
userData = {
com.schriftgestaltung.Glyphs.ColorIndex = 4;
public.markColor = "0.67,0.95,0.38,1";
};
},
{
color = 4;
glyphname = ordfeminine;
lastChange = "2016-08-13 07:58:21 +0000";
layers = (
{
layerId = "C0ED9D5D-A651-429A-8F5D-D93A2EDA2DC0";
paths = (
{
closed = 1;
nodes = (
"35 531 CURVE SMOOTH",
"35 426 OFFCURVE",
"108 347 OFFCURVE",
"200 347 CURVE SMOOTH",
"267 347 OFFCURVE",
"315 382 OFFCURVE",
"337 424 CURVE",
"337 353 LINE",
"395 353 LINE",
"395 703 LINE",
"337 703 LINE",
"337 633 LINE",
"315 675 OFFCURVE",
"267 709 OFFCURVE",
"200 709 CURVE SMOOTH",
"108 709 OFFCURVE",
"35 636 OFFCURVE"
);
},
{
closed = 1;
nodes = (
"337 528 CURVE SMOOTH",
"337 446 OFFCURVE",
"281 396 OFFCURVE",
"217 396 CURVE SMOOTH",
"154 396 OFFCURVE",
"97 449 OFFCURVE",
"97 531 CURVE SMOOTH",
"97 612 OFFCURVE",
"154 660 OFFCURVE",
"217 660 CURVE SMOOTH",
"281 660 OFFCURVE",
"337 610 OFFCURVE"
);
}
);
width = 445;
},
{
layerId = "22D14058-393A-410A-BECB-F56B411A01B2";
paths = (
{
closed = 1;
nodes = (
"25 528 CURVE SMOOTH",
"25 421 OFFCURVE",
"104 347 OFFCURVE",
"197 347 CURVE SMOOTH",
"253 347 OFFCURVE",
"289 368 OFFCURVE",
"310 402 CURVE",
"310 352 LINE",
"439 352 LINE",
"439 704 LINE",
"310 704 LINE",
"310 654 LINE",
"289 688 OFFCURVE",
"253 709 OFFCURVE",
"197 709 CURVE SMOOTH",
"104 709 OFFCURVE",
"25 635 OFFCURVE"
);
},
{
closed = 1;
nodes = (
"310 528 CURVE SMOOTH",
"310 468 OFFCURVE",
"271 441 OFFCURVE",
"233 441 CURVE SMOOTH",
"196 441 OFFCURVE",
"157 467 OFFCURVE",
"157 527 CURVE SMOOTH",
"157 586 OFFCURVE",
"196 614 OFFCURVE",
"233 614 CURVE SMOOTH",
"271 614 OFFCURVE",
"310 587 OFFCURVE"
);
}
);
width = 469;
}
);
unicode = 00AA;
userData = {
com.schriftgestaltung.Glyphs.ColorIndex = 4;
public.markColor = "0.67,0.95,0.38,1";
};
},
{
color = 4;
glyphname = ordmasculine;
lastChange = "2016-08-13 07:58:21 +0000";
layers = (
{
layerId = "C0ED9D5D-A651-429A-8F5D-D93A2EDA2DC0";
paths = (
{
closed = 1;
nodes = (
"35 527 CURVE SMOOTH",
"35 419 OFFCURVE",
"111 347 OFFCURVE",
"209 347 CURVE SMOOTH",
"307 347 OFFCURVE",
"394 419 OFFCURVE",
"394 527 CURVE SMOOTH",
"394 637 OFFCURVE",
"313 709 OFFCURVE",
"215 709 CURVE SMOOTH",
"117 709 OFFCURVE",
"35 637 OFFCURVE"
);
},
{
closed = 1;
nodes = (
"332 527 CURVE SMOOTH",
"332 440 OFFCURVE",
"272 394 OFFCURVE",
"209 394 CURVE SMOOTH",
"146 394 OFFCURVE",
"97 440 OFFCURVE",
"97 527 CURVE SMOOTH",
"97 616 OFFCURVE",
"150 663 OFFCURVE",
"213 663 CURVE SMOOTH",
"276 663 OFFCURVE",
"332 616 OFFCURVE"
);
}
);
width = 429;
},
{
layerId = "22D14058-393A-410A-BECB-F56B411A01B2";
paths = (
{
closed = 1;
nodes = (
"25 529 CURVE SMOOTH",
"25 418 OFFCURVE",
"111 347 OFFCURVE",
"233 347 CURVE SMOOTH",
"355 347 OFFCURVE",
"438 418 OFFCURVE",
"438 529 CURVE SMOOTH",
"438 641 OFFCURVE",
"354 709 OFFCURVE",
"232 709 CURVE SMOOTH",
"110 709 OFFCURVE",
"25 641 OFFCURVE"
);
},
{
closed = 1;
nodes = (
"306 528 CURVE SMOOTH",
"306 467 OFFCURVE",
"269 440 OFFCURVE",
"233 440 CURVE SMOOTH",
"196 440 OFFCURVE",
"157 467 OFFCURVE",
"157 528 CURVE SMOOTH",
"157 590 OFFCURVE",
"195 617 OFFCURVE",
"232 617 CURVE SMOOTH",
"268 617 OFFCURVE",
"306 590 OFFCURVE"
);
}
);
width = 463;
}
);
unicode = 00BA;
userData = {
com.schriftgestaltung.Glyphs.ColorIndex = 4;
public.markColor = "0.67,0.95,0.38,1";
};
},
{
color = 8;
glyphname = Delta.math;
lastChange = "2016-08-13 07:58:21 +0000";
layers = (
{
layerId = "C0ED9D5D-A651-429A-8F5D-D93A2EDA2DC0";
paths = (
{
closed = 1;
nodes = (
"20 55 LINE",
"20 0 LINE",
"646 0 LINE",
"646 55 LINE",
"362 690 LINE",
"303 690 LINE"
);
},
{
closed = 1;
nodes = (
"575 55 LINE",
"91 55 LINE",
"332 610 LINE"
);
}
);
width = 666;
},
{
layerId = "22D14058-393A-410A-BECB-F56B411A01B2";
paths = (
{
closed = 1;
nodes = (
"20 130 LINE",
"20 0 LINE",
"715 0 LINE",
"715 130 LINE",
"437 704 LINE",
"298 704 LINE"
);
},
{
closed = 1;
nodes = (
"539 130 LINE",
"196 130 LINE",
"368 510 LINE"
);
}
);
width = 735;
}
);
userData = {
com.schriftgestaltung.Glyphs.ColorIndex = 8;
public.markColor = "0.5,0.09,0.79,1";
};
},
{
color = 8;
glyphname = Omega.math;
lastChange = "2016-08-13 07:58:21 +0000";
layers = (
{
layerId = "C0ED9D5D-A651-429A-8F5D-D93A2EDA2DC0";
paths = (
{
closed = 1;
nodes = (
"40 345 CURVE SMOOTH",
"40 214 OFFCURVE",
"111 94 OFFCURVE",
"228 48 CURVE",
"240 57 LINE",
"55 57 LINE",
"55 0 LINE",
"331 0 LINE",
"331 59 LINE",
"203 84 OFFCURVE",
"111 191 OFFCURVE",
"111 345 CURVE SMOOTH",
"111 520 OFFCURVE",
"230 636 OFFCURVE",
"391 636 CURVE SMOOTH",
"549 636 OFFCURVE",
"671 523 OFFCURVE",
"671 345 CURVE SMOOTH",
"671 191 OFFCURVE",
"579 84 OFFCURVE",
"451 59 CURVE",
"451 0 LINE",
"727 0 LINE",
"727 57 LINE",
"542 57 LINE",
"554 48 LINE",
"671 94 OFFCURVE",
"742 214 OFFCURVE",
"742 345 CURVE SMOOTH",
"742 552 OFFCURVE",
"586 697 OFFCURVE",
"391 697 CURVE SMOOTH",
"196 697 OFFCURVE",
"40 552 OFFCURVE"
);
}
);
width = 782;
},
{
layerId = "22D14058-393A-410A-BECB-F56B411A01B2";
paths = (
{
closed = 1;
nodes = (
"35 353 CURVE SMOOTH",
"35 240 OFFCURVE",
"76 139 OFFCURVE",
"192 88 CURVE",
"234 130 LINE",
"40 130 LINE",
"40 0 LINE",
"310 0 LINE",
"310 134 LINE",
"252 180 OFFCURVE",
"209 245 OFFCURVE",
"209 338 CURVE SMOOTH",
"209 476 OFFCURVE",
"282 555 OFFCURVE",
"394 555 CURVE SMOOTH",
"506 555 OFFCURVE",
"579 476 OFFCURVE",
"579 338 CURVE SMOOTH",
"579 245 OFFCURVE",
"536 180 OFFCURVE",
"478 134 CURVE",
"478 0 LINE",
"748 0 LINE",
"748 130 LINE",
"554 130 LINE",
"596 88 LINE",
"712 139 OFFCURVE",
"753 240 OFFCURVE",
"753 353 CURVE SMOOTH",
"753 564 OFFCURVE",
"594 712 OFFCURVE",
"394 712 CURVE SMOOTH",
"194 712 OFFCURVE",
"35 564 OFFCURVE"
);
}
);
width = 788;
}
);
userData = {
com.schriftgestaltung.Glyphs.ColorIndex = 8;
public.markColor = "0.5,0.09,0.79,1";
};
},
{
color = 8;
glyphname = pi;
lastChange = "2016-08-13 07:58:21 +0000";
layers = (
{
layerId = "C0ED9D5D-A651-429A-8F5D-D93A2EDA2DC0";
paths = (
{
closed = 1;
nodes = (
"40 489 LINE",
"121 489 LINE",
"121 0 LINE",
"190 0 LINE",
"190 489 LINE",
"506 489 LINE",
"506 0 LINE",
"575 0 LINE",
"575 489 LINE",
"656 489 LINE",
"656 546 LINE",
"40 546 LINE"
);
}
);
width = 706;
},
{
layerId = "22D14058-393A-410A-BECB-F56B411A01B2";
paths = (
{
closed = 1;
nodes = (
"20 428 LINE",
"90 428 LINE",
"90 0 LINE",
"261 0 LINE",
"261 428 LINE",
"446 428 LINE",
"446 0 LINE",
"617 0 LINE",
"617 428 LINE",
"687 428 LINE",
"687 558 LINE",
"20 558 LINE"
);
}
);
width = 707;
}
);
unicode = 03C0;
userData = {
com.schriftgestaltung.Glyphs.ColorIndex = 8;
public.markColor = "0.5,0.09,0.79,1";
};
},
{
color = 4;
glyphname = mu.math;
lastChange = "2016-08-13 07:58:21 +0000";
layers = (
{
layerId = "C0ED9D5D-A651-429A-8F5D-D93A2EDA2DC0";
paths = (
{
closed = 1;
nodes = (
"539 546 LINE",
"469 546 LINE",
"469 0 LINE",
"539 0 LINE"
);
},
{
closed = 1;
nodes = (
"469 234 LINE",
"469 111 OFFCURVE",
"404 50 OFFCURVE",
"306 50 CURVE SMOOTH",
"208 50 OFFCURVE",
"144 111 OFFCURVE",
"144 234 CURVE SMOOTH",
"144 546 LINE",
"75 546 LINE",
"75 -258 LINE",
"144 -258 LINE",
"144 68 LINE",
"132 54 LINE",
"171 11 OFFCURVE",
"228 -10 OFFCURVE",
"288 -10 CURVE SMOOTH",
"389 -10 OFFCURVE",
"477 47 OFFCURVE",
"497 172 CURVE"
);
}
);
width = 614;
},
{
layerId = "22D14058-393A-410A-BECB-F56B411A01B2";
paths = (
{
closed = 1;
nodes = (
"630 558 LINE",
"459 558 LINE",
"459 0 LINE",
"630 0 LINE"
);
},
{
closed = 1;
nodes = (
"459 255 LINE",
"459 182 OFFCURVE",
"417 142 OFFCURVE",
"352 142 CURVE SMOOTH",
"287 142 OFFCURVE",
"245 182 OFFCURVE",
"245 255 CURVE SMOOTH",
"245 558 LINE",
"75 558 LINE",
"75 -266 LINE",
"245 -266 LINE",
"245 3 LINE",
"242 -1 LINE",
"257 -4 OFFCURVE",
"273 -6 OFFCURVE",
"290 -6 CURVE SMOOTH",
"387 -6 OFFCURVE",
"455 48 OFFCURVE",
"478 126 CURVE"
);
}
);
width = 705;
}
);
userData = {
com.schriftgestaltung.Glyphs.ColorIndex = 4;
public.markColor = "0.67,0.95,0.38,1";
};
},
{
color = 3;
glyphname = zero;
lastChange = "2016-08-13 07:58:21 +0000";
layers = (
{
layerId = "C0ED9D5D-A651-429A-8F5D-D93A2EDA2DC0";
paths = (
{
closed = 1;
nodes = (
"315 733 CURVE SMOOTH",
"516 733 OFFCURVE",
"558 569 OFFCURVE",
"558 367 CURVE",
"558 165 OFFCURVE",
"516 1 OFFCURVE",
"315 1 CURVE SMOOTH",
"114 1 OFFCURVE",
"72 165 OFFCURVE",
"72 367 CURVE",
"72 569 OFFCURVE",
"114 733 OFFCURVE"
);
},
{
closed = 1;
nodes = (
"315 673 CURVE SMOOTH",
"157 673 OFFCURVE",
"139 525 OFFCURVE",
"139 367 CURVE SMOOTH",
"139 209 OFFCURVE",
"157 61 OFFCURVE",
"315 61 CURVE SMOOTH",
"473 61 OFFCURVE",
"491 209 OFFCURVE",
"491 367 CURVE",
"491 525 OFFCURVE",
"473 673 OFFCURVE"
);
}
);
width = 632;
},
{
layerId = "22D14058-393A-410A-BECB-F56B411A01B2";
paths = (
{
closed = 1;
nodes = (
"326 725 CURVE SMOOTH",
"534 725 OFFCURVE",
"607 569 OFFCURVE",
"607 364 CURVE",
"607 159 OFFCURVE",
"534 3 OFFCURVE",
"326 3 CURVE SMOOTH",
"118 3 OFFCURVE",
"45 159 OFFCURVE",
"45 364 CURVE",
"45 569 OFFCURVE",
"118 725 OFFCURVE"
);
},
{
closed = 1;
nodes = (
"326 565 CURVE",
"225 565 OFFCURVE",
"213 469 OFFCURVE",
"213 364 CURVE SMOOTH",
"213 259 OFFCURVE",
"225 163 OFFCURVE",
"326 163 CURVE SMOOTH",
"427 163 OFFCURVE",
"439 259 OFFCURVE",
"439 364 CURVE",
"439 469 OFFCURVE",
"427 565 OFFCURVE"
);
}
);
width = 652;
}
);
unicode = 0030;
userData = {
com.schriftgestaltung.Glyphs.ColorIndex = 3;
public.markColor = "0.97,1,0,1";
};
},
{
color = 3;
glyphname = one;
lastChange = "2016-08-13 07:58:21 +0000";
layers = (
{
layerId = "C0ED9D5D-A651-429A-8F5D-D93A2EDA2DC0";
paths = (
{
closed = 1;
nodes = (
"130 0 LINE",
"195 0 LINE",
"195 710 LINE",
"59 710 LINE",
"59 650 LINE",
"130 650 LINE"
);
}
);
width = 295;
},
{
layerId = "22D14058-393A-410A-BECB-F56B411A01B2";
paths = (
{
closed = 1;
nodes = (
"149 0 LINE",
"326 0 LINE",
"326 710 LINE",
"28 710 LINE",
"28 551 LINE",
"149 551 LINE"
);
}
);
width = 421;
}
);
unicode = 0031;
userData = {
com.schriftgestaltung.Glyphs.ColorIndex = 3;
public.markColor = "0.97,1,0,1";
};
},
{
color = 3;
glyphname = two;
lastChange = "2016-08-13 07:58:21 +0000";
layers = (
{
layerId = "C0ED9D5D-A651-429A-8F5D-D93A2EDA2DC0";
paths = (
{
closed = 1;
nodes = (
"61 10 LINE",
"533 10 LINE",
"533 70 LINE",
"172 70 LINE",
"293 180 OFFCURVE",
"509 339 OFFCURVE",
"509 524 CURVE SMOOTH",
"509 663 OFFCURVE",
"416 736 OFFCURVE",
"289 736 CURVE SMOOTH",
"159 736 OFFCURVE",
"68 655 OFFCURVE",
"61 506 CURVE",
"127 506 LINE",
"132 602 OFFCURVE",
"184 676 OFFCURVE",
"290 676 CURVE SMOOTH",
"404 676 OFFCURVE",
"442 605 OFFCURVE",
"442 522 CURVE SMOOTH",
"442 366 OFFCURVE",
"245 219 OFFCURVE",
"61 58 CURVE"
);
}
);
width = 581;
},
{
layerId = "22D14058-393A-410A-BECB-F56B411A01B2";
paths = (
{
closed = 1;
nodes = (
"39 10 LINE",
"541 10 LINE",
"541 149 LINE",
"281 149 LINE",
"392 253 OFFCURVE",
"528 358 OFFCURVE",
"528 510 CURVE SMOOTH",
"528 620 OFFCURVE",
"454 730 OFFCURVE",
"281 730 CURVE SMOOTH",
"152 730 OFFCURVE",
"37 657 OFFCURVE",
"37 487 CURVE",
"202 487 LINE",
"202 552 OFFCURVE",
"233 586 OFFCURVE",
"280 586 CURVE SMOOTH",
"329 586 OFFCURVE",
"355 557 OFFCURVE",
"355 501 CURVE SMOOTH",
"355 389 OFFCURVE",
"194 275 OFFCURVE",
"39 137 CURVE"
);
}
);
width = 571;
}
);
unicode = 0032;
userData = {
com.schriftgestaltung.Glyphs.ColorIndex = 3;
public.markColor = "0.97,1,0,1";
};
},
{
color = 3;
glyphname = three;
lastChange = "2016-08-13 07:58:21 +0000";
layers = (
{
layerId = "C0ED9D5D-A651-429A-8F5D-D93A2EDA2DC0";
paths = (
{
closed = 1;
nodes = (
"62 569 CURVE",
"129 569 LINE",
"141 645 OFFCURVE",
"201 687 OFFCURVE",
"290 687 CURVE SMOOTH",
"395 687 OFFCURVE",
"444 633 OFFCURVE",
"444 554 CURVE SMOOTH",
"444 468 OFFCURVE",
"376 424 OFFCURVE",
"237 423 CURVE SMOOTH",
"214 423 LINE",
"214 364 LINE",
"236 364 LINE SMOOTH",
"377 364 OFFCURVE",
"458 325 OFFCURVE",
"458 204 CURVE SMOOTH",
"458 121 OFFCURVE",
"406 56 OFFCURVE",
"296 56 CURVE SMOOTH",
"191 56 OFFCURVE",
"127 118 OFFCURVE",
"118 195 CURVE",
"53 195 LINE",
"66 68 OFFCURVE",
"164 -4 OFFCURVE",
"297 -4 CURVE SMOOTH",
"446 -4 OFFCURVE",
"522 88 OFFCURVE",
"522 195 CURVE SMOOTH",
"522 302 OFFCURVE",
"470 371 OFFCURVE",
"386 392 CURVE",
"386 397 LINE",
"462 420 OFFCURVE",
"509 486 OFFCURVE",
"509 561 CURVE SMOOTH",
"509 665 OFFCURVE",
"432 747 OFFCURVE",
"292 747 CURVE SMOOTH",
"172 747 OFFCURVE",
"75 682 OFFCURVE"
);
}
);
width = 585;
},
{
layerId = "22D14058-393A-410A-BECB-F56B411A01B2";
paths = (
{
closed = 1;
nodes = (
"54 524 CURVE",
"220 524 LINE",
"221 542 OFFCURVE",
"229 598 OFFCURVE",
"296 598 CURVE SMOOTH",
"340 598 OFFCURVE",
"371 572 OFFCURVE",
"371 528 CURVE SMOOTH",
"371 462 OFFCURVE",
"315 448 OFFCURVE",
"257 448 CURVE SMOOTH",
"225 448 LINE",
"225 309 LINE",
"257 309 LINE SMOOTH",
"348 309 OFFCURVE",
"385 283 OFFCURVE",
"385 220 CURVE SMOOTH",
"385 171 OFFCURVE",
"356 136 OFFCURVE",
"303 136 CURVE SMOOTH",
"240 136 OFFCURVE",
"209 174 OFFCURVE",
"208 231 CURVE",
"42 231 LINE",
"42 67 OFFCURVE",
"160 -4 OFFCURVE",
"303 -4 CURVE SMOOTH",
"459 -4 OFFCURVE",
"550 78 OFFCURVE",
"550 207 CURVE SMOOTH",
"550 300 OFFCURVE",
"505 354 OFFCURVE",
"438 380 CURVE",
"438 384 LINE",
"470 397 OFFCURVE",
"537 447 OFFCURVE",
"537 549 CURVE SMOOTH",
"537 658 OFFCURVE",
"455 744 OFFCURVE",
"303 744 CURVE SMOOTH",
"154 744 OFFCURVE",
"54 666 OFFCURVE"
);
}
);
width = 605;
}
);
unicode = 0033;
userData = {
com.schriftgestaltung.Glyphs.ColorIndex = 3;
public.markColor = "0.97,1,0,1";
};
},
{
color = 3;
glyphname = four;
lastChange = "2016-08-13 07:58:21 +0000";
layers = (
{
layerId = "C0ED9D5D-A651-429A-8F5D-D93A2EDA2DC0";
paths = (
{
closed = 1;
nodes = (
"426 0 LINE",
"491 0 LINE",
"491 170 LINE",
"593 170 LINE",
"593 230 LINE",
"491 230 LINE",
"491 720 LINE",
"395 720 LINE",
"44 215 LINE",
"44 170 LINE",
"426 170 LINE"
);
},
{
closed = 1;
nodes = (
"128 230 LINE",
"426 665 LINE",
"426 230 LINE"
);
}
);
width = 623;
},
{
layerId = "22D14058-393A-410A-BECB-F56B411A01B2";
paths = (
{
closed = 1;
nodes = (
"385 0 LINE",
"556 0 LINE",
"556 130 LINE",
"638 130 LINE",
"638 278 LINE",
"556 278 LINE",
"556 720 LINE",
"365 720 LINE",
"49 268 LINE",
"49 130 LINE",
"385 130 LINE"
);
},
{
closed = 1;
nodes = (
"239 278 LINE",
"397 526 LINE",
"397 278 LINE"
);
}
);
width = 677;
}
);
unicode = 0034;
userData = {
com.schriftgestaltung.Glyphs.ColorIndex = 3;
public.markColor = "0.97,1,0,1";
};
},
{
color = 3;
glyphname = five;
lastChange = "2016-08-13 07:58:21 +0000";
layers = (
{
layerId = "C0ED9D5D-A651-429A-8F5D-D93A2EDA2DC0";
paths = (
{
closed = 1;
nodes = (
"89 731 LINE",
"89 325 LINE",
"151 325 LINE",
"181 396 OFFCURVE",
"240 441 OFFCURVE",
"320 441 CURVE SMOOTH",
"440 441 OFFCURVE",
"498 374 OFFCURVE",
"498 254 CURVE SMOOTH",
"498 143 OFFCURVE",
"442 60 OFFCURVE",
"320 60 CURVE SMOOTH",
"226 60 OFFCURVE",
"160 109 OFFCURVE",
"138 190 CURVE",
"73 190 LINE",
"95 79 OFFCURVE",
"178 0 OFFCURVE",
"320 0 CURVE SMOOTH",
"489 0 OFFCURVE",
"563 117 OFFCURVE",
"563 256 CURVE SMOOTH",
"563 372 OFFCURVE",
"507 502 OFFCURVE",
"330 502 CURVE SMOOTH",
"254 502 OFFCURVE",
"183 462 OFFCURVE",
"154 415 CURVE",
"154 671 LINE",
"516 671 LINE",
"516 731 LINE"
);
}
);
width = 630;
},
{
layerId = "22D14058-393A-410A-BECB-F56B411A01B2";
paths = (
{
closed = 1;
nodes = (
"92 731 LINE",
"92 290 LINE",
"257 290 LINE",
"263 323 OFFCURVE",
"291 351 OFFCURVE",
"341 351 CURVE SMOOTH",
"403 351 OFFCURVE",
"436 312 OFFCURVE",
"436 249 CURVE SMOOTH",
"436 186 OFFCURVE",
"407 140 OFFCURVE",
"341 140 CURVE SMOOTH",
"286 140 OFFCURVE",
"251 168 OFFCURVE",
"244 206 CURVE",
"75 206 LINE",
"87 89 OFFCURVE",
"179 0 OFFCURVE",
"338 0 CURVE SMOOTH",
"507 0 OFFCURVE",
"601 100 OFFCURVE",
"601 254 CURVE SMOOTH",
"601 356 OFFCURVE",
"547 493 OFFCURVE",
"367 493 CURVE SMOOTH",
"315 493 OFFCURVE",
"272 475 OFFCURVE",
"247 453 CURVE",
"247 581 LINE",
"548 581 LINE",
"548 731 LINE"
);
}
);
width = 650;
}
);
unicode = 0035;
userData = {
com.schriftgestaltung.Glyphs.ColorIndex = 3;
public.markColor = "0.97,1,0,1";
};
},
{
color = 3;
glyphname = six;
lastChange = "2016-08-13 07:58:21 +0000";
layers = (
{
layerId = "C0ED9D5D-A651-429A-8F5D-D93A2EDA2DC0";
paths = (
{
closed = 1;
nodes = (
"550 576 LINE",
"539 666 OFFCURVE",
"467 747 OFFCURVE",
"338 747 CURVE SMOOTH",
"157 747 OFFCURVE",
"85 602 OFFCURVE",
"85 389 CURVE SMOOTH",
"85 176 OFFCURVE",
"118 0 OFFCURVE",
"343 0 CURVE SMOOTH",
"504 0 OFFCURVE",
"576 112 OFFCURVE",
"576 242 CURVE SMOOTH",
"576 394 OFFCURVE",
"484 485 OFFCURVE",
"352 485 CURVE SMOOTH",
"255 485 OFFCURVE",
"178 440 OFFCURVE",
"142 369 CURVE",
"146 611 OFFCURVE",
"211 687 OFFCURVE",
"338 687 CURVE SMOOTH",
"426 687 OFFCURVE",
"469 652 OFFCURVE",
"488 576 CURVE"
);
},
{
closed = 1;
nodes = (
"339 424 CURVE SMOOTH",
"455 424 OFFCURVE",
"512 355 OFFCURVE",
"512 238 CURVE SMOOTH",
"512 128 OFFCURVE",
"445 60 OFFCURVE",
"342 60 CURVE SMOOTH",
"211 60 OFFCURVE",
"155 139 OFFCURVE",
"155 248 CURVE SMOOTH",
"155 372 OFFCURVE",
"252 424 OFFCURVE"
);
}
);
width = 646;
},
{
layerId = "22D14058-393A-410A-BECB-F56B411A01B2";
paths = (
{
closed = 1;
nodes = (
"565 539 LINE",
"552 645 OFFCURVE",
"482 747 OFFCURVE",
"325 747 CURVE SMOOTH",
"142 747 OFFCURVE",
"59 617 OFFCURVE",
"59 370 CURVE",
"59 115 OFFCURVE",
"143 0 OFFCURVE",
"339 0 CURVE SMOOTH",
"489 0 OFFCURVE",
"584 95 OFFCURVE",
"584 245 CURVE SMOOTH",
"584 397 OFFCURVE",
"490 480 OFFCURVE",
"361 480 CURVE SMOOTH",
"312 480 OFFCURVE",
"246 464 OFFCURVE",
"211 419 CURVE",
"212 546 OFFCURVE",
"249 607 OFFCURVE",
"322 607 CURVE SMOOTH",
"374 607 OFFCURVE",
"398 577 OFFCURVE",
"406 539 CURVE"
);
},
{
closed = 1;
nodes = (
"320 339 CURVE SMOOTH",
"391 339 OFFCURVE",
"418 287 OFFCURVE",
"418 239 CURVE SMOOTH",
"418 182 OFFCURVE",
"387 139 OFFCURVE",
"325 139 CURVE SMOOTH",
"272 139 OFFCURVE",
"224 176 OFFCURVE",
"224 241 CURVE SMOOTH",
"224 303 OFFCURVE",
"262 339 OFFCURVE"
);
}
);
width = 637;
}
);
unicode = 0036;
userData = {
com.schriftgestaltung.Glyphs.ColorIndex = 3;
public.markColor = "0.97,1,0,1";
};
},
{
color = 3;
glyphname = seven;
lastChange = "2016-08-13 07:58:21 +0000";
layers = (
{
layerId = "C0ED9D5D-A651-429A-8F5D-D93A2EDA2DC0";
paths = (
{
closed = 1;
nodes = (
"40 730 LINE",
"40 670 LINE",
"457 670 LINE",
"151 0 LINE",
"229 0 LINE",
"522 677 LINE",
"522 730 LINE"
);
}
);
width = 560;
},
{
layerId = "22D14058-393A-410A-BECB-F56B411A01B2";
paths = (
{
closed = 1;
nodes = (
"41 721 LINE",
"41 581 LINE",
"351 581 LINE",
"78 0 LINE",
"263 0 LINE",
"523 595 LINE",
"523 721 LINE"
);
}
);
width = 560;
}
);
unicode = 0037;
userData = {
com.schriftgestaltung.Glyphs.ColorIndex = 3;
public.markColor = "0.97,1,0,1";
};
},
{
color = 3;
glyphname = eight;
lastChange = "2016-08-13 07:58:21 +0000";
layers = (
{
layerId = "C0ED9D5D-A651-429A-8F5D-D93A2EDA2DC0";
paths = (
{
closed = 1;
nodes = (
"198 387 CURVE",
"121 364 OFFCURVE",
"66 296 OFFCURVE",
"66 198 CURVE SMOOTH",
"66 64 OFFCURVE",
"164 -21 OFFCURVE",
"315 -21 CURVE SMOOTH",
"467 -21 OFFCURVE",
"565 64 OFFCURVE",
"565 198 CURVE SMOOTH",
"565 296 OFFCURVE",
"508 364 OFFCURVE",
"433 387 CURVE",
"496 413 OFFCURVE",
"546 474 OFFCURVE",
"546 556 CURVE SMOOTH",
"546 666 OFFCURVE",
"468 751 OFFCURVE",
"315 751 CURVE",
"163 751 OFFCURVE",
"85 666 OFFCURVE",
"85 556 CURVE SMOOTH",
"85 474 OFFCURVE",
"131 418 OFFCURVE"
);
},
{
closed = 1;
nodes = (
"315 691 CURVE SMOOTH",
"418 691 OFFCURVE",
"481 643 OFFCURVE",
"481 551 CURVE SMOOTH",
"481 474 OFFCURVE",
"415 415 OFFCURVE",
"315 415 CURVE",
"216 415 OFFCURVE",
"150 474 OFFCURVE",
"150 551 CURVE SMOOTH",
"150 643 OFFCURVE",
"213 691 OFFCURVE"
);
},
{
closed = 1;
nodes = (
"315 356 CURVE SMOOTH",
"417 356 OFFCURVE",
"500 310 OFFCURVE",
"500 198 CURVE SMOOTH",
"500 101 OFFCURVE",
"428 39 OFFCURVE",
"315 39 CURVE",
"203 39 OFFCURVE",
"131 101 OFFCURVE",
"131 198 CURVE SMOOTH",
"131 310 OFFCURVE",
"214 356 OFFCURVE"
);
}
);
width = 631;
},
{
layerId = "22D14058-393A-410A-BECB-F56B411A01B2";
paths = (
{
closed = 1;
nodes = (
"165 397 CURVE",
"95 363 OFFCURVE",
"54 302 OFFCURVE",
"54 216 CURVE SMOOTH",
"54 73 OFFCURVE",
"175 -14 OFFCURVE",
"324 -14 CURVE SMOOTH",
"474 -14 OFFCURVE",
"594 73 OFFCURVE",
"594 216 CURVE SMOOTH",
"594 301 OFFCURVE",
"555 362 OFFCURVE",
"483 397 CURVE",
"538 428 OFFCURVE",
"576 480 OFFCURVE",
"576 553 CURVE SMOOTH",
"576 653 OFFCURVE",
"496 754 OFFCURVE",
"324 754 CURVE SMOOTH",
"152 754 OFFCURVE",
"71 654 OFFCURVE",
"71 554 CURVE",
"71 473 OFFCURVE",
"109 428 OFFCURVE"
);
},
{
closed = 1;
nodes = (
"324 614 CURVE SMOOTH",
"375 614 OFFCURVE",
"410 582 OFFCURVE",
"410 528 CURVE SMOOTH",
"410 476 OFFCURVE",
"370 442 OFFCURVE",
"324 442 CURVE SMOOTH",
"278 442 OFFCURVE",
"238 474 OFFCURVE",
"238 527 CURVE",
"238 583 OFFCURVE",
"276 614 OFFCURVE"
);
},
{
closed = 1;
nodes = (
"323 323 CURVE SMOOTH",
"390 323 OFFCURVE",
"422 280 OFFCURVE",
"422 226 CURVE SMOOTH",
"422 171 OFFCURVE",
"389 126 OFFCURVE",
"323 126 CURVE SMOOTH",
"256 126 OFFCURVE",
"219 169 OFFCURVE",
"219 225 CURVE",
"219 287 OFFCURVE",
"261 323 OFFCURVE"
);
}
);
width = 648;
}
);
unicode = 0038;
userData = {
com.schriftgestaltung.Glyphs.ColorIndex = 3;
public.markColor = "0.97,1,0,1";
};
},
{
color = 3;
glyphname = nine;
lastChange = "2016-08-13 07:58:21 +0000";
layers = (
{
layerId = "C0ED9D5D-A651-429A-8F5D-D93A2EDA2DC0";
paths = (
{
closed = 1;
nodes = (
"109 177 LINE",
"124 82 OFFCURVE",
"197 1 OFFCURVE",
"332 1 CURVE SMOOTH",
"507 1 OFFCURVE",
"562 131 OFFCURVE",
"562 383 CURVE SMOOTH",
"562 630 OFFCURVE",
"491 747 OFFCURVE",
"323 747 CURVE SMOOTH",
"173 747 OFFCURVE",
"88 650 OFFCURVE",
"88 508 CURVE SMOOTH",
"88 362 OFFCURVE",
"195 274 OFFCURVE",
"320 274 CURVE SMOOTH",
"393 274 OFFCURVE",
"464 301 OFFCURVE",
"504 366 CURVE",
"504 131 OFFCURVE",
"446 61 OFFCURVE",
"335 61 CURVE SMOOTH",
"243 61 OFFCURVE",
"189 102 OFFCURVE",
"172 177 CURVE"
);
},
{
closed = 1;
nodes = (
"333 335 CURVE SMOOTH",
"207 335 OFFCURVE",
"153 411 OFFCURVE",
"153 509 CURVE SMOOTH",
"153 618 OFFCURVE",
"219 687 OFFCURVE",
"324 687 CURVE SMOOTH",
"427 687 OFFCURVE",
"491 618 OFFCURVE",
"491 505 CURVE SMOOTH",
"491 405 OFFCURVE",
"434 335 OFFCURVE"
);
}
);
width = 634;
},
{
layerId = "22D14058-393A-410A-BECB-F56B411A01B2";
paths = (
{
closed = 1;
nodes = (
"82 224 LINE",
"84 109 OFFCURVE",
"149 0 OFFCURVE",
"320 0 CURVE SMOOTH",
"532 0 OFFCURVE",
"580 133 OFFCURVE",
"580 372 CURVE",
"580 600 OFFCURVE",
"528 745 OFFCURVE",
"314 745 CURVE SMOOTH",
"158 745 OFFCURVE",
"64 649 OFFCURVE",
"64 501 CURVE SMOOTH",
"64 337 OFFCURVE",
"163 270 OFFCURVE",
"295 270 CURVE SMOOTH",
"352 270 OFFCURVE",
"405 291 OFFCURVE",
"429 314 CURVE",
"429 189 OFFCURVE",
"399 140 OFFCURVE",
"332 140 CURVE SMOOTH",
"277 140 OFFCURVE",
"248 173 OFFCURVE",
"241 224 CURVE"
);
},
{
closed = 1;
nodes = (
"323 410 CURVE SMOOTH",
"254 410 OFFCURVE",
"228 461 OFFCURVE",
"228 506 CURVE SMOOTH",
"228 560 OFFCURVE",
"260 605 OFFCURVE",
"320 605 CURVE SMOOTH",
"378 605 OFFCURVE",
"415 573 OFFCURVE",
"415 504 CURVE",
"415 447 OFFCURVE",
"380 410 OFFCURVE"
);
}
);
width = 637;
}
);
unicode = 0039;
userData = {
com.schriftgestaltung.Glyphs.ColorIndex = 3;
public.markColor = "0.97,1,0,1";
};
},
{
color = 4;
glyphname = onesuperior;
lastChange = "2016-08-13 07:58:21 +0000";
layers = (
{
layerId = "C0ED9D5D-A651-429A-8F5D-D93A2EDA2DC0";
paths = (
{
closed = 1;
nodes = (
"69 352 LINE",
"127 352 LINE",
"127 704 LINE",
"20 704 LINE",
"20 661 LINE",
"69 661 LINE"
);
}
);
width = 177;
},
{
layerId = "22D14058-393A-410A-BECB-F56B411A01B2";
paths = (
{
closed = 1;
nodes = (
"80 352 LINE",
"209 352 LINE",
"209 704 LINE",
"20 704 LINE",
"20 605 LINE",
"80 605 LINE"
);
}
);
width = 249;
}
);
unicode = 00B9;
userData = {
com.schriftgestaltung.Glyphs.ColorIndex = 4;
public.markColor = "0.67,0.95,0.38,1";
};
},
{
color = 4;
glyphname = twosuperior;
lastChange = "2016-08-13 07:58:21 +0000";
layers = (
{
layerId = "C0ED9D5D-A651-429A-8F5D-D93A2EDA2DC0";
paths = (
{
closed = 1;
nodes = (
"20 616 CURVE",
"78 616 LINE",
"83 642 OFFCURVE",
"101 660 OFFCURVE",
"133 660 CURVE SMOOTH",
"165 660 OFFCURVE",
"192 635 OFFCURVE",
"192 594 CURVE SMOOTH",
"192 547 OFFCURVE",
"162 511 OFFCURVE",
"118 473 CURVE",
"21 391 LINE",
"21 352 LINE",
"258 352 LINE",
"258 402 LINE",
"69 402 LINE",
"62 375 LINE",
"165 455 LINE",
"226 506 OFFCURVE",
"253 543 OFFCURVE",
"253 594 CURVE SMOOTH",
"253 656 OFFCURVE",
"205 709 OFFCURVE",
"133 709 CURVE SMOOTH",
"61 709 OFFCURVE",
"24 667 OFFCURVE"
);
}
);
width = 306;
},
{
layerId = "22D14058-393A-410A-BECB-F56B411A01B2";
paths = (
{
closed = 1;
nodes = (
"37 592 CURVE",
"167 592 LINE",
"167 610 OFFCURVE",
"176 622 OFFCURVE",
"192 622 CURVE SMOOTH",
"208 622 OFFCURVE",
"217 610 OFFCURVE",
"217 592 CURVE SMOOTH",
"217 567 OFFCURVE",
"197 550 OFFCURVE",
"161 528 CURVE SMOOTH",
"39 453 LINE",
"39 352 LINE",
"348 352 LINE",
"348 452 LINE",
"145 452 LINE",
"116 423 LINE",
"252 491 LINE SMOOTH",
"321 526 OFFCURVE",
"353 553 OFFCURVE",
"353 600 CURVE SMOOTH",
"353 655 OFFCURVE",
"300 714 OFFCURVE",
"200 714 CURVE SMOOTH",
"100 714 OFFCURVE",
"37 667 OFFCURVE"
);
}
);
width = 383;
}
);
unicode = 00B2;
userData = {
com.schriftgestaltung.Glyphs.ColorIndex = 4;
public.markColor = "0.67,0.95,0.38,1";
};
},
{
color = 4;
glyphname = threesuperior;
lastChange = "2016-08-13 07:58:21 +0000";
layers = (
{
layerId = "C0ED9D5D-A651-429A-8F5D-D93A2EDA2DC0";
paths = (
{
closed = 1;
nodes = (
"23 623 CURVE",
"81 623 LINE",
"91 647 OFFCURVE",
"111 660 OFFCURVE",
"147 660 CURVE SMOOTH",
"190 660 OFFCURVE",
"216 637 OFFCURVE",
"216 602 CURVE SMOOTH",
"216 567 OFFCURVE",
"187 548 OFFCURVE",
"146 548 CURVE SMOOTH",
"98 548 LINE",
"98 505 LINE",
"146 505 LINE SMOOTH",
"187 505 OFFCURVE",
"216 485 OFFCURVE",
"216 450 CURVE SMOOTH",
"216 415 OFFCURVE",
"187 393 OFFCURVE",
"146 393 CURVE SMOOTH",
"109 393 OFFCURVE",
"82 410 OFFCURVE",
"76 446 CURVE",
"20 446 LINE",
"26 385 OFFCURVE",
"67 347 OFFCURVE",
"147 347 CURVE SMOOTH",
"227 347 OFFCURVE",
"277 393 OFFCURVE",
"277 444 CURVE SMOOTH",
"277 486 OFFCURVE",
"249 513 OFFCURVE",
"213 524 CURVE",
"213 526 LINE",
"249 537 OFFCURVE",
"277 566 OFFCURVE",
"277 608 CURVE SMOOTH",
"277 666 OFFCURVE",
"214 709 OFFCURVE",
"148 709 CURVE SMOOTH",
"86 709 OFFCURVE",
"31 676 OFFCURVE"
);
}
);
width = 317;
},
{
layerId = "22D14058-393A-410A-BECB-F56B411A01B2";
paths = (
{
closed = 1;
nodes = (
"21 592 CURVE",
"141 592 LINE",
"141 608 OFFCURVE",
"152 623 OFFCURVE",
"175 623 CURVE SMOOTH",
"192 623 OFFCURVE",
"203 615 OFFCURVE",
"203 599 CURVE SMOOTH",
"203 581 OFFCURVE",
"189 574 OFFCURVE",
"169 574 CURVE SMOOTH",
"153 574 LINE",
"153 497 LINE",
"175 497 LINE SMOOTH",
"197 497 OFFCURVE",
"210 485 OFFCURVE",
"210 468 CURVE SMOOTH",
"210 450 OFFCURVE",
"197 439 OFFCURVE",
"180 439 CURVE SMOOTH",
"160 439 OFFCURVE",
"148 450 OFFCURVE",
"145 470 CURVE",
"15 470 LINE",
"15 392 OFFCURVE",
"92 348 OFFCURVE",
"180 348 CURVE SMOOTH",
"275 348 OFFCURVE",
"349 387 OFFCURVE",
"349 449 CURVE SMOOTH",
"349 490 OFFCURVE",
"318 517 OFFCURVE",
"285 530 CURVE",
"285 533 LINE",
"317 542 OFFCURVE",
"343 561 OFFCURVE",
"343 603 CURVE SMOOTH",
"343 661 OFFCURVE",
"283 714 OFFCURVE",
"190 714 CURVE SMOOTH",
"79 714 OFFCURVE",
"21 659 OFFCURVE"
);
}
);
width = 374;
}
);
unicode = 00B3;
userData = {
com.schriftgestaltung.Glyphs.ColorIndex = 4;
public.markColor = "0.67,0.95,0.38,1";
};
},
{
color = 4;
glyphname = fraction;
lastChange = "2016-08-13 07:58:21 +0000";
layers = (
{
layerId = "C0ED9D5D-A651-429A-8F5D-D93A2EDA2DC0";
paths = (
{
closed = 1;
nodes = (
"84 0 LINE",
"84 0 OFFCURVE",
"155 0 OFFCURVE",
"155 0 CURVE",
"565 690 LINE",
"565 690 OFFCURVE",
"494 690 OFFCURVE",
"494 690 CURVE"
);
}
);
width = 600;
},
{
layerId = "22D14058-393A-410A-BECB-F56B411A01B2";
paths = (
{
closed = 1;
nodes = (
"10 0 LINE",
"10 0 OFFCURVE",
"175 0 OFFCURVE",
"175 0 CURVE",
"560 704 LINE",
"560 704 OFFCURVE",
"395 704 OFFCURVE",
"395 704 CURVE"
);
}
);
width = 570;
}
);
unicode = 2044;
userData = {
com.schriftgestaltung.Glyphs.ColorIndex = 4;
public.markColor = "0.67,0.95,0.38,1";
};
},
{
color = 4;
glyphname = onehalf;
lastChange = "2016-08-13 07:58:21 +0000";
layers = (
{
components = (
{
name = onesuperior;
transform = "{1, 0, 0, 1, 10, 0}";
},
{
name = twosuperior;
transform = "{1, 0, 0, 1, 319, -353}";
}
);
layerId = "C0ED9D5D-A651-429A-8F5D-D93A2EDA2DC0";
paths = (
{
closed = 1;
nodes = (
"44 0 LINE",
"44 0 OFFCURVE",
"106 0 OFFCURVE",
"106 0 CURVE",
"466 690 LINE",
"466 690 OFFCURVE",
"404 690 OFFCURVE",
"404 690 CURVE"
);
}
);
width = 607;
},
{
components = (
{
name = onesuperior;
transform = "{1, 0, 0, 1, 20, 0}";
},
{
name = twosuperior;
transform = "{1, 0, 0, 1, 409, -353}";
}
);
layerId = "22D14058-393A-410A-BECB-F56B411A01B2";
paths = (
{
closed = 1;
nodes = (
"88 0 LINE",
"88 0 OFFCURVE",
"253 0 OFFCURVE",
"253 0 CURVE",
"638 704 LINE",
"638 704 OFFCURVE",
"473 704 OFFCURVE",
"473 704 CURVE"
);
}
);
width = 821;
}
);
unicode = 00BD;
userData = {
com.schriftgestaltung.Glyphs.ColorIndex = 4;
public.markColor = "0.67,0.95,0.38,1";
};
},
{
color = 4;
glyphname = onequarter;
lastChange = "2016-08-13 07:58:21 +0000";
layers = (
{
components = (
{
name = onesuperior;
transform = "{1, 0, 0, 1, 10, 0}";
}
);
layerId = "C0ED9D5D-A651-429A-8F5D-D93A2EDA2DC0";
paths = (
{
closed = 1;
nodes = (
"44 0 LINE",
"44 0 OFFCURVE",
"106 0 OFFCURVE",
"106 0 CURVE",
"486 690 LINE",
"486 690 OFFCURVE",
"424 690 OFFCURVE",
"424 690 CURVE"
);
},
{
closed = 1;
nodes = (
"505 113 LINE",
"505 354 LINE",
"432 354 LINE",
"269 106 LINE",
"269 71 LINE",
"447 71 LINE",
"447 0 LINE",
"505 0 LINE",
"505 71 LINE",
"555 71 LINE",
"555 113 LINE"
);
},
{
closed = 1;
nodes = (
"331 113 LINE",
"447 292 LINE",
"447 113 LINE"
);
}
);
width = 600;
},
{
components = (
{
name = onesuperior;
transform = "{1, 0, 0, 1, 20, 0}";
}
);
layerId = "22D14058-393A-410A-BECB-F56B411A01B2";
paths = (
{
closed = 1;
nodes = (
"88 0 LINE",
"88 0 OFFCURVE",
"253 0 OFFCURVE",
"253 0 CURVE",
"638 704 LINE",
"638 704 OFFCURVE",
"473 704 OFFCURVE",
"473 704 CURVE"
);
},
{
closed = 1;
nodes = (
"716 135 LINE",
"716 352 LINE",
"527 352 LINE",
"392 130 LINE",
"392 62 LINE",
"587 62 LINE",
"587 0 LINE",
"716 0 LINE",
"716 62 LINE",
"756 62 LINE",
"756 135 LINE"
);
},
{
closed = 1;
nodes = (
"515 135 LINE",
"593 277 LINE",
"593 135 LINE"
);
}
);
width = 786;
}
);
unicode = 00BC;
userData = {
com.schriftgestaltung.Glyphs.ColorIndex = 4;
public.markColor = "0.67,0.95,0.38,1";
};
},
{
color = 4;
glyphname = threequarters;
lastChange = "2016-08-13 07:58:21 +0000";
layers = (
{
components = (
{
name = threesuperior;
}
);
layerId = "C0ED9D5D-A651-429A-8F5D-D93A2EDA2DC0";
paths = (
{
closed = 1;
nodes = (
"88 0 LINE",
"88 0 OFFCURVE",
"150 0 OFFCURVE",
"150 0 CURVE",
"566 690 LINE",
"566 690 OFFCURVE",
"504 690 OFFCURVE",
"504 690 CURVE"
);
},
{
closed = 1;
nodes = (
"545 113 LINE",
"545 354 LINE",
"472 354 LINE",
"309 106 LINE",
"309 71 LINE",
"487 71 LINE",
"487 0 LINE",
"545 0 LINE",
"545 71 LINE",
"595 71 LINE",
"595 113 LINE"
);
},
{
closed = 1;
nodes = (
"371 113 LINE",
"487 292 LINE",
"487 113 LINE"
);
}
);
width = 625;
},
{
components = (
{
name = threesuperior;
transform = "{1, 0, 0, 1, 35, 0}";
}
);
layerId = "22D14058-393A-410A-BECB-F56B411A01B2";
paths = (
{
closed = 1;
nodes = (
"203 0 LINE",
"203 0 OFFCURVE",
"368 0 OFFCURVE",
"368 0 CURVE",
"753 704 LINE",
"753 704 OFFCURVE",
"588 704 OFFCURVE",
"588 704 CURVE"
);
},
{
closed = 1;
nodes = (
"831 135 LINE",
"831 352 LINE",
"642 352 LINE",
"507 130 LINE",
"507 62 LINE",
"702 62 LINE",
"702 0 LINE",
"831 0 LINE",
"831 62 LINE",
"871 62 LINE",
"871 135 LINE"
);
},
{
closed = 1;
nodes = (
"630 135 LINE",
"708 277 LINE",
"708 135 LINE"
);
}
);
width = 891;
}
);
unicode = 00BE;
userData = {
com.schriftgestaltung.Glyphs.ColorIndex = 4;
public.markColor = "0.67,0.95,0.38,1";
};
},
{
color = 3;
glyphname = asterisk;
lastChange = "2016-08-13 07:58:21 +0000";
layers = (
{
layerId = "C0ED9D5D-A651-429A-8F5D-D93A2EDA2DC0";
paths = (
{
closed = 1;
nodes = (
"275 732 LINE",
"202 732 LINE",
"218 575 LINE",
"91 669 LINE",
"54 603 LINE",
"201 546 LINE",
"54 489 LINE",
"91 423 LINE",
"218 517 LINE",
"202 360 LINE",
"275 360 LINE",
"256 517 LINE",
"381 425 LINE",
"416 489 LINE",
"268 546 LINE",
"416 603 LINE",
"381 667 LINE",
"256 575 LINE"
);
}
);
width = 481;
},
{
layerId = "22D14058-393A-410A-BECB-F56B411A01B2";
paths = (
{
closed = 1;
nodes = (
"329 740 LINE",
"210 740 LINE",
"236 608 LINE",
"132 695 LINE",
"75 592 LINE",
"197 552 LINE",
"74 509 LINE",
"136 401 LINE",
"235 490 LINE",
"211 360 LINE",
"328 360 LINE",
"303 490 LINE",
"403 402 LINE",
"463 508 LINE",
"340 550 LINE",
"463 593 LINE",
"407 695 LINE",
"303 608 LINE"
);
}
);
width = 534;
}
);
unicode = 002A;
userData = {
com.schriftgestaltung.Glyphs.ColorIndex = 3;
public.markColor = "0.97,1,0,1";
};
},
{
color = 3;
glyphname = backslash;
lastChange = "2016-08-13 07:58:21 +0000";
layers = (
{
layerId = "C0ED9D5D-A651-429A-8F5D-D93A2EDA2DC0";
paths = (
{
closed = 1;
nodes = (
"220 940 LINE",
"220 940 OFFCURVE",
"149 940 OFFCURVE",
"149 940 CURVE",
"474 -166 LINE",
"474 -166 OFFCURVE",
"544 -166 OFFCURVE",
"544 -166 CURVE"
);
}
);
width = 651;
},
{
layerId = "22D14058-393A-410A-BECB-F56B411A01B2";
paths = (
{
closed = 1;
nodes = (
"348 950 LINE",
"348 950 OFFCURVE",
"183 950 OFFCURVE",
"183 950 CURVE",
"451 -187 LINE",
"451 -187 OFFCURVE",
"616 -187 OFFCURVE",
"616 -187 CURVE"
);
}
);
width = 802;
}
);
unicode = 005C;
userData = {
com.schriftgestaltung.Glyphs.ColorIndex = 3;
public.markColor = "0.97,1,0,1";
};
},
{
color = 4;
glyphname = bullet;
lastChange = "2016-08-13 07:58:21 +0000";
layers = (
{
layerId = "C0ED9D5D-A651-429A-8F5D-D93A2EDA2DC0";
paths = (
{
closed = 1;
nodes = (
"215 218 CURVE SMOOTH",
"280 218 OFFCURVE",
"331 269 OFFCURVE",
"331 333 CURVE SMOOTH",
"331 398 OFFCURVE",
"280 449 OFFCURVE",
"215 449 CURVE SMOOTH",
"151 449 OFFCURVE",
"100 398 OFFCURVE",
"100 333 CURVE SMOOTH",
"100 269 OFFCURVE",
"151 218 OFFCURVE"
);
}
);
width = 431;
},
{
layerId = "22D14058-393A-410A-BECB-F56B411A01B2";
paths = (
{
closed = 1;
nodes = (
"250 183 CURVE SMOOTH",
"335 183 OFFCURVE",
"401 249 OFFCURVE",
"401 333 CURVE SMOOTH",
"401 418 OFFCURVE",
"335 484 OFFCURVE",
"250 484 CURVE SMOOTH",
"166 484 OFFCURVE",
"100 418 OFFCURVE",
"100 333 CURVE SMOOTH",
"100 249 OFFCURVE",
"166 183 OFFCURVE"
);
}
);
width = 501;
}
);
unicode = 2022;
userData = {
com.schriftgestaltung.Glyphs.ColorIndex = 4;
public.markColor = "0.67,0.95,0.38,1";
};
},
{
color = 3;
glyphname = colon;
lastChange = "2016-08-13 07:58:21 +0000";
layers = (
{
layerId = "C0ED9D5D-A651-429A-8F5D-D93A2EDA2DC0";
paths = (
{
closed = 1;
nodes = (
"139 0 CURVE SMOOTH",
"166 0 OFFCURVE",
"188 22 OFFCURVE",
"188 49 CURVE SMOOTH",
"188 76 OFFCURVE",
"166 98 OFFCURVE",
"139 98 CURVE SMOOTH",
"112 98 OFFCURVE",
"90 76 OFFCURVE",
"90 49 CURVE SMOOTH",
"90 22 OFFCURVE",
"112 0 OFFCURVE"
);
},
{
closed = 1;
nodes = (
"139 434 CURVE SMOOTH",
"166 434 OFFCURVE",
"188 456 OFFCURVE",
"188 483 CURVE SMOOTH",
"188 510 OFFCURVE",
"166 532 OFFCURVE",
"139 532 CURVE SMOOTH",
"112 532 OFFCURVE",
"90 510 OFFCURVE",
"90 483 CURVE SMOOTH",
"90 456 OFFCURVE",
"112 434 OFFCURVE"
);
}
);
width = 297;
},
{
layerId = "22D14058-393A-410A-BECB-F56B411A01B2";
paths = (
{
closed = 1;
nodes = (
"160 0 CURVE SMOOTH",
"213 0 OFFCURVE",
"254 41 OFFCURVE",
"254 93 CURVE SMOOTH",
"254 146 OFFCURVE",
"213 187 OFFCURVE",
"160 187 CURVE SMOOTH",
"108 187 OFFCURVE",
"67 146 OFFCURVE",
"67 93 CURVE SMOOTH",
"67 41 OFFCURVE",
"108 0 OFFCURVE"
);
},
{
closed = 1;
nodes = (
"160 399 CURVE SMOOTH",
"213 399 OFFCURVE",
"254 440 OFFCURVE",
"254 492 CURVE SMOOTH",
"254 545 OFFCURVE",
"213 586 OFFCURVE",
"160 586 CURVE SMOOTH",
"108 586 OFFCURVE",
"67 545 OFFCURVE",
"67 492 CURVE SMOOTH",
"67 440 OFFCURVE",
"108 399 OFFCURVE"
);
}
);
width = 320;
}
);
unicode = 003A;
userData = {
com.schriftgestaltung.Glyphs.ColorIndex = 3;
public.markColor = "0.97,1,0,1";
};
},
{
color = 8;
glyphname = comma;
lastChange = "2016-08-13 07:58:21 +0000";
layers = (
{
layerId = "C0ED9D5D-A651-429A-8F5D-D93A2EDA2DC0";
paths = (
{
closed = 1;
nodes = (
"41 56 LINE",
"41 -20 LINE",
"86 -20 LINE",
"86 -45 LINE SMOOTH",
"86 -77 OFFCURVE",
"73 -94 OFFCURVE",
"40 -94 CURVE",
"40 -132 LINE",
"116 -132 OFFCURVE",
"149 -87 OFFCURVE",
"122 56 CURVE"
);
}
);
width = 172;
},
{
layerId = "22D14058-393A-410A-BECB-F56B411A01B2";
paths = (
{
closed = 1;
nodes = (
"30 106 LINE",
"30 -47 LINE",
"103 -47 LINE",
"103 -63 LINE SMOOTH",
"103 -108 OFFCURVE",
"85 -119 OFFCURVE",
"51 -119 CURVE",
"51 -184 LINE",
"216 -184 OFFCURVE",
"226 -17 OFFCURVE",
"171 106 CURVE"
);
}
);
width = 241;
}
);
unicode = 002C;
userData = {
com.schriftgestaltung.Glyphs.ColorIndex = 8;
public.markColor = "0.5,0.09,0.79,1";
};
},
{
color = 3;
glyphname = exclam;
lastChange = "2016-08-13 07:58:21 +0000";
layers = (
{
layerId = "C0ED9D5D-A651-429A-8F5D-D93A2EDA2DC0";
paths = (
{
closed = 1;
nodes = (
"179 195 LINE",
"234 195 LINE",
"242 747 LINE",
"171 747 LINE"
);
},
{
closed = 1;
nodes = (
"209 0 CURVE SMOOTH",
"236 0 OFFCURVE",
"258 22 OFFCURVE",
"258 49 CURVE SMOOTH",
"258 76 OFFCURVE",
"236 98 OFFCURVE",
"209 98 CURVE SMOOTH",
"182 98 OFFCURVE",
"160 76 OFFCURVE",
"160 49 CURVE SMOOTH",
"160 22 OFFCURVE",
"182 0 OFFCURVE"
);
}
);
width = 406;
},
{
layerId = "22D14058-393A-410A-BECB-F56B411A01B2";
paths = (
{
closed = 1;
nodes = (
"149 252 LINE",
"294 252 LINE",
"314 752 LINE",
"129 752 LINE"
);
},
{
closed = 1;
nodes = (
"225 0 CURVE SMOOTH",
"278 0 OFFCURVE",
"319 41 OFFCURVE",
"319 93 CURVE SMOOTH",
"319 146 OFFCURVE",
"278 187 OFFCURVE",
"225 187 CURVE SMOOTH",
"173 187 OFFCURVE",
"132 146 OFFCURVE",
"132 93 CURVE SMOOTH",
"132 41 OFFCURVE",
"173 0 OFFCURVE"
);
}
);
width = 425;
}
);
unicode = 0021;
userData = {
com.schriftgestaltung.Glyphs.ColorIndex = 3;
public.markColor = "0.97,1,0,1";
};
},
{
color = 3;
glyphname = numbersign;
lastChange = "2016-08-13 07:58:21 +0000";
layers = (
{
layerId = "C0ED9D5D-A651-429A-8F5D-D93A2EDA2DC0";
paths = (
{
closed = 1;
nodes = (
"154 0 LINE",
"154 0 OFFCURVE",
"223 0 OFFCURVE",
"223 0 CURVE",
"381 740 LINE",
"381 740 OFFCURVE",
"312 740 OFFCURVE",
"312 740 CURVE"
);
},
{
closed = 1;
nodes = (
"443 0 LINE",
"443 0 OFFCURVE",
"512 0 OFFCURVE",
"512 0 CURVE",
"670 740 LINE",
"670 740 OFFCURVE",
"601 740 OFFCURVE",
"601 740 CURVE"
);
},
{
closed = 1;
nodes = (
"43 218 LINE",
"714 218 LINE",
"714 276 LINE",
"43 276 LINE"
);
},
{
closed = 1;
nodes = (
"98 465 LINE",
"769 465 LINE",
"769 523 LINE",
"98 523 LINE"
);
}
);
width = 827;
},
{
layerId = "22D14058-393A-410A-BECB-F56B411A01B2";
paths = (
{
closed = 1;
nodes = (
"135 0 LINE",
"135 0 OFFCURVE",
"295 0 OFFCURVE",
"295 0 CURVE",
"453 740 LINE",
"453 740 OFFCURVE",
"293 740 OFFCURVE",
"293 740 CURVE"
);
},
{
closed = 1;
nodes = (
"461 0 LINE",
"461 0 OFFCURVE",
"621 0 OFFCURVE",
"621 0 CURVE",
"779 740 LINE",
"779 740 OFFCURVE",
"619 740 OFFCURVE",
"619 740 CURVE"
);
},
{
closed = 1;
nodes = (
"15 142 LINE",
"802 142 LINE",
"802 296 LINE",
"15 296 LINE"
);
},
{
closed = 1;
nodes = (
"80 449 LINE",
"867 449 LINE",
"867 603 LINE",
"80 603 LINE"
);
}
);
width = 929;
}
);
unicode = 0023;
userData = {
com.schriftgestaltung.Glyphs.ColorIndex = 3;
public.markColor = "0.97,1,0,1";
};
},
{
color = 3;
glyphname = period;
lastChange = "2016-08-13 07:58:21 +0000";
layers = (
{
layerId = "C0ED9D5D-A651-429A-8F5D-D93A2EDA2DC0";
paths = (
{
closed = 1;
nodes = (
"109 0 CURVE SMOOTH",
"136 0 OFFCURVE",
"158 22 OFFCURVE",
"158 49 CURVE SMOOTH",
"158 76 OFFCURVE",
"136 98 OFFCURVE",
"109 98 CURVE SMOOTH",
"82 98 OFFCURVE",
"60 76 OFFCURVE",
"60 49 CURVE SMOOTH",
"60 22 OFFCURVE",
"82 0 OFFCURVE"
);
}
);
width = 218;
},
{
layerId = "22D14058-393A-410A-BECB-F56B411A01B2";
paths = (
{
closed = 1;
nodes = (
"128 0 CURVE SMOOTH",
"181 0 OFFCURVE",
"222 41 OFFCURVE",
"222 93 CURVE SMOOTH",
"222 146 OFFCURVE",
"181 187 OFFCURVE",
"128 187 CURVE SMOOTH",
"76 187 OFFCURVE",
"35 146 OFFCURVE",
"35 93 CURVE SMOOTH",
"35 41 OFFCURVE",
"76 0 OFFCURVE"
);
}
);
width = 257;
}
);
unicode = 002E;
userData = {
com.schriftgestaltung.Glyphs.ColorIndex = 3;
public.markColor = "0.97,1,0,1";
};
},
{
color = 3;
glyphname = question;
lastChange = "2016-08-13 07:58:21 +0000";
layers = (
{
layerId = "C0ED9D5D-A651-429A-8F5D-D93A2EDA2DC0";
paths = (
{
closed = 1;
nodes = (
"101 539 CURVE",
"166 539 LINE",
"166 629 OFFCURVE",
"225 677 OFFCURVE",
"314 677 CURVE SMOOTH",
"408 677 OFFCURVE",
"462 624 OFFCURVE",
"462 534 CURVE SMOOTH",
"462 401 OFFCURVE",
"379 378 OFFCURVE",
"251 379 CURVE SMOOTH",
"218 379 LINE",
"218 185 LINE",
"218 185 OFFCURVE",
"284 185 OFFCURVE",
"284 185 CURVE",
"284 327 LINE",
"442 328 OFFCURVE",
"527 381 OFFCURVE",
"527 535 CURVE SMOOTH",
"527 659 OFFCURVE",
"444 737 OFFCURVE",
"314 737 CURVE SMOOTH",
"191 737 OFFCURVE",
"101 662 OFFCURVE"
);
},
{
closed = 1;
nodes = (
"204 39 CURVE SMOOTH",
"204 12 OFFCURVE",
"226 -10 OFFCURVE",
"253 -10 CURVE SMOOTH",
"280 -10 OFFCURVE",
"302 12 OFFCURVE",
"302 39 CURVE SMOOTH",
"302 66 OFFCURVE",
"280 88 OFFCURVE",
"253 88 CURVE SMOOTH",
"226 88 OFFCURVE",
"204 66 OFFCURVE"
);
}
);
width = 619;
},
{
layerId = "22D14058-393A-410A-BECB-F56B411A01B2";
paths = (
{
closed = 1;
nodes = (
"90 545 CURVE",
"251 545 LINE",
"251 591 OFFCURVE",
"278 621 OFFCURVE",
"326 621 CURVE SMOOTH",
"370 621 OFFCURVE",
"398 590 OFFCURVE",
"398 545 CURVE SMOOTH",
"398 472 OFFCURVE",
"340 458 OFFCURVE",
"246 458 CURVE SMOOTH",
"179 458 LINE",
"179 252 LINE",
"179 252 OFFCURVE",
"340 252 OFFCURVE",
"340 252 CURVE",
"340 347 LINE",
"477 349 OFFCURVE",
"564 399 OFFCURVE",
"564 543 CURVE SMOOTH",
"564 682 OFFCURVE",
"462 761 OFFCURVE",
"324 761 CURVE SMOOTH",
"170 761 OFFCURVE",
"87 665 OFFCURVE"
);
},
{
closed = 1;
nodes = (
"170 93 CURVE SMOOTH",
"170 41 OFFCURVE",
"211 0 OFFCURVE",
"263 0 CURVE SMOOTH",
"316 0 OFFCURVE",
"357 41 OFFCURVE",
"357 93 CURVE SMOOTH",
"357 146 OFFCURVE",
"316 187 OFFCURVE",
"263 187 CURVE SMOOTH",
"211 187 OFFCURVE",
"170 146 OFFCURVE"
);
}
);
width = 651;
}
);
unicode = 003F;
userData = {
com.schriftgestaltung.Glyphs.ColorIndex = 3;
public.markColor = "0.97,1,0,1";
};
},
{
color = 4;
glyphname = quotedbl;
lastChange = "2016-08-13 07:58:21 +0000";
layers = (
{
layerId = "C0ED9D5D-A651-429A-8F5D-D93A2EDA2DC0";
paths = (
{
closed = 1;
nodes = (
"42 602 LINE",
"91 602 LINE",
"103 795 LINE",
"30 795 LINE"
);
},
{
closed = 1;
nodes = (
"162 602 LINE",
"211 602 LINE",
"223 795 LINE",
"150 795 LINE"
);
}
);
width = 253;
},
{
layerId = "22D14058-393A-410A-BECB-F56B411A01B2";
paths = (
{
closed = 1;
nodes = (
"53 579 LINE",
"168 579 LINE",
"181 800 LINE",
"40 800 LINE"
);
},
{
closed = 1;
nodes = (
"243 579 LINE",
"358 579 LINE",
"371 800 LINE",
"230 800 LINE"
);
}
);
width = 411;
}
);
unicode = 0022;
userData = {
com.schriftgestaltung.Glyphs.ColorIndex = 4;
public.markColor = "0.67,0.95,0.38,1";
};
},
{
color = 4;
glyphname = quotesingle;
lastChange = "2016-08-13 07:58:21 +0000";
layers = (
{
layerId = "C0ED9D5D-A651-429A-8F5D-D93A2EDA2DC0";
paths = (
{
closed = 1;
nodes = (
"42 602 LINE",
"91 602 LINE",
"103 795 LINE",
"30 795 LINE"
);
}
);
width = 133;
},
{
layerId = "22D14058-393A-410A-BECB-F56B411A01B2";
paths = (
{
closed = 1;
nodes = (
"53 579 LINE",
"168 579 LINE",
"181 800 LINE",
"40 800 LINE"
);
}
);
width = 221;
}
);
unicode = 0027;
userData = {
com.schriftgestaltung.Glyphs.ColorIndex = 4;
public.markColor = "0.67,0.95,0.38,1";
};
},
{
color = 3;
glyphname = slash;
lastChange = "2016-08-13 07:58:21 +0000";
layers = (
{
layerId = "C0ED9D5D-A651-429A-8F5D-D93A2EDA2DC0";
paths = (
{
closed = 1;
nodes = (
"101 -166 LINE",
"101 -166 OFFCURVE",
"171 -166 OFFCURVE",
"171 -166 CURVE",
"446 940 LINE",
"446 940 OFFCURVE",
"375 940 OFFCURVE",
"375 940 CURVE"
);
}
);
width = 562;
},
{
layerId = "22D14058-393A-410A-BECB-F56B411A01B2";
paths = (
{
closed = 1;
nodes = (
"10 -187 LINE",
"10 -187 OFFCURVE",
"175 -187 OFFCURVE",
"175 -187 CURVE",
"443 950 LINE",
"443 950 OFFCURVE",
"278 950 OFFCURVE",
"278 950 CURVE"
);
}
);
width = 453;
}
);
unicode = 002F;
userData = {
com.schriftgestaltung.Glyphs.ColorIndex = 3;
public.markColor = "0.97,1,0,1";
};
},
{
color = 3;
glyphname = underscore;
lastChange = "2016-08-13 07:58:21 +0000";
layers = (
{
layerId = "C0ED9D5D-A651-429A-8F5D-D93A2EDA2DC0";
paths = (
{
closed = 1;
nodes = (
"158 -100 LINE",
"667 -100 LINE",
"667 -40 LINE",
"158 -40 LINE"
);
}
);
width = 813;
},
{
layerId = "22D14058-393A-410A-BECB-F56B411A01B2";
paths = (
{
closed = 1;
nodes = (
"85 -205 LINE",
"705 -205 LINE",
"705 -41 LINE",
"85 -41 LINE"
);
}
);
width = 780;
}
);
unicode = 005F;
userData = {
com.schriftgestaltung.Glyphs.ColorIndex = 3;
public.markColor = "0.97,1,0,1";
};
},
{
color = 3;
glyphname = braceleft;
lastChange = "2016-08-13 07:58:21 +0000";
layers = (
{
layerId = "C0ED9D5D-A651-429A-8F5D-D93A2EDA2DC0";
paths = (
{
closed = 1;
nodes = (
"224 373 LINE",
"297 388 OFFCURVE",
"328 446 OFFCURVE",
"328 512 CURVE SMOOTH",
"328 577 OFFCURVE",
"312 618 OFFCURVE",
"312 705 CURVE SMOOTH",
"312 841 OFFCURVE",
"360 916 OFFCURVE",
"438 945 CURVE",
"438 961 LINE",
"369 961 LINE",
"331 944 OFFCURVE",
"247 907 OFFCURVE",
"247 722 CURVE SMOOTH",
"247 650 OFFCURVE",
"264 595 OFFCURVE",
"264 526 CURVE SMOOTH",
"264 481 OFFCURVE",
"254 411 OFFCURVE",
"163 390 CURVE",
"163 354 LINE",
"254 331 OFFCURVE",
"264 263 OFFCURVE",
"264 218 CURVE SMOOTH",
"264 149 OFFCURVE",
"247 94 OFFCURVE",
"247 22 CURVE SMOOTH",
"247 -163 OFFCURVE",
"331 -200 OFFCURVE",
"369 -217 CURVE",
"438 -217 LINE",
"438 -201 LINE",
"360 -172 OFFCURVE",
"312 -97 OFFCURVE",
"312 39 CURVE SMOOTH",
"312 126 OFFCURVE",
"328 167 OFFCURVE",
"328 232 CURVE SMOOTH",
"328 298 OFFCURVE",
"301 356 OFFCURVE",
"224 371 CURVE"
);
}
);
width = 556;
},
{
layerId = "22D14058-393A-410A-BECB-F56B411A01B2";
paths = (
{
closed = 1;
nodes = (
"239 373 LINE",
"312 387 OFFCURVE",
"345 426 OFFCURVE",
"345 492 CURVE",
"345 557 OFFCURVE",
"329 609 OFFCURVE",
"329 683 CURVE SMOOTH",
"329 819 OFFCURVE",
"387 916 OFFCURVE",
"465 945 CURVE",
"465 961 LINE",
"291 961 LINE",
"253 944 OFFCURVE",
"159 885 OFFCURVE",
"159 700 CURVE SMOOTH",
"159 628 OFFCURVE",
"176 575 OFFCURVE",
"176 506 CURVE SMOOTH",
"176 461 OFFCURVE",
"155 404 OFFCURVE",
"79 402 CURVE",
"79 342 LINE",
"155 340 OFFCURVE",
"176 283 OFFCURVE",
"176 238 CURVE SMOOTH",
"176 169 OFFCURVE",
"159 116 OFFCURVE",
"159 44 CURVE SMOOTH",
"159 -141 OFFCURVE",
"253 -200 OFFCURVE",
"291 -217 CURVE",
"465 -217 LINE",
"465 -201 LINE",
"387 -172 OFFCURVE",
"329 -75 OFFCURVE",
"329 61 CURVE SMOOTH",
"329 135 OFFCURVE",
"345 187 OFFCURVE",
"345 252 CURVE SMOOTH",
"345 318 OFFCURVE",
"312 357 OFFCURVE",
"239 371 CURVE"
);
}
);
width = 527;
}
);
unicode = 007B;
userData = {
com.schriftgestaltung.Glyphs.ColorIndex = 3;
public.markColor = "0.97,1,0,1";
};
},
{
color = 3;
glyphname = braceright;
lastChange = "2016-08-13 07:58:21 +0000";
layers = (
{
layerId = "C0ED9D5D-A651-429A-8F5D-D93A2EDA2DC0";
paths = (
{
closed = 1;
nodes = (
"332 371 LINE",
"255 356 OFFCURVE",
"228 298 OFFCURVE",
"228 232 CURVE SMOOTH",
"228 167 OFFCURVE",
"244 126 OFFCURVE",
"244 39 CURVE SMOOTH",
"244 -97 OFFCURVE",
"196 -172 OFFCURVE",
"118 -201 CURVE",
"118 -217 LINE",
"187 -217 LINE",
"225 -200 OFFCURVE",
"309 -163 OFFCURVE",
"309 22 CURVE SMOOTH",
"309 94 OFFCURVE",
"292 149 OFFCURVE",
"292 218 CURVE SMOOTH",
"292 263 OFFCURVE",
"302 331 OFFCURVE",
"393 354 CURVE",
"393 390 LINE",
"302 411 OFFCURVE",
"292 481 OFFCURVE",
"292 526 CURVE SMOOTH",
"292 595 OFFCURVE",
"309 650 OFFCURVE",
"309 722 CURVE SMOOTH",
"309 907 OFFCURVE",
"225 944 OFFCURVE",
"187 961 CURVE",
"118 961 LINE",
"118 945 LINE",
"196 916 OFFCURVE",
"244 841 OFFCURVE",
"244 705 CURVE SMOOTH",
"244 618 OFFCURVE",
"228 577 OFFCURVE",
"228 512 CURVE SMOOTH",
"228 446 OFFCURVE",
"259 388 OFFCURVE",
"332 373 CURVE"
);
}
);
width = 556;
},
{
layerId = "22D14058-393A-410A-BECB-F56B411A01B2";
paths = (
{
closed = 1;
nodes = (
"289 371 LINE",
"216 357 OFFCURVE",
"183 318 OFFCURVE",
"183 252 CURVE SMOOTH",
"183 187 OFFCURVE",
"199 135 OFFCURVE",
"199 61 CURVE SMOOTH",
"199 -75 OFFCURVE",
"141 -172 OFFCURVE",
"63 -201 CURVE",
"63 -217 LINE",
"237 -217 LINE",
"275 -200 OFFCURVE",
"369 -141 OFFCURVE",
"369 44 CURVE SMOOTH",
"369 116 OFFCURVE",
"352 169 OFFCURVE",
"352 238 CURVE SMOOTH",
"352 283 OFFCURVE",
"373 340 OFFCURVE",
"449 342 CURVE",
"449 402 LINE",
"373 404 OFFCURVE",
"352 461 OFFCURVE",
"352 506 CURVE SMOOTH",
"352 575 OFFCURVE",
"369 628 OFFCURVE",
"369 700 CURVE SMOOTH",
"369 885 OFFCURVE",
"275 944 OFFCURVE",
"237 961 CURVE",
"63 961 LINE",
"63 945 LINE",
"141 916 OFFCURVE",
"199 819 OFFCURVE",
"199 683 CURVE SMOOTH",
"199 609 OFFCURVE",
"183 557 OFFCURVE",
"183 492 CURVE SMOOTH",
"183 426 OFFCURVE",
"216 387 OFFCURVE",
"289 373 CURVE"
);
}
);
width = 511;
}
);
unicode = 007D;
userData = {
com.schriftgestaltung.Glyphs.ColorIndex = 3;
public.markColor = "0.97,1,0,1";
};
},
{
color = 3;
glyphname = bracketleft;
lastChange = "2016-08-13 07:58:21 +0000";
layers = (
{
layerId = "C0ED9D5D-A651-429A-8F5D-D93A2EDA2DC0";
paths = (
{
closed = 1;
nodes = (
"170 -166 LINE",
"306 -166 LINE",
"306 -106 LINE",
"235 -106 LINE",
"235 880 LINE",
"306 880 LINE",
"306 940 LINE",
"170 940 LINE"
);
}
);
width = 465;
},
{
layerId = "22D14058-393A-410A-BECB-F56B411A01B2";
paths = (
{
closed = 1;
nodes = (
"120 -188 LINE",
"420 -188 LINE",
"420 -49 LINE",
"280 -49 LINE",
"280 811 LINE",
"420 811 LINE",
"420 950 LINE",
"120 950 LINE"
);
}
);
width = 510;
}
);
unicode = 005B;
userData = {
com.schriftgestaltung.Glyphs.ColorIndex = 3;
public.markColor = "0.97,1,0,1";
};
},
{
color = 3;
glyphname = bracketright;
lastChange = "2016-08-13 07:58:21 +0000";
layers = (
{
layerId = "C0ED9D5D-A651-429A-8F5D-D93A2EDA2DC0";
paths = (
{
closed = 1;
nodes = (
"295 940 LINE",
"159 940 LINE",
"159 880 LINE",
"230 880 LINE",
"230 -106 LINE",
"159 -106 LINE",
"159 -166 LINE",
"295 -166 LINE"
);
}
);
width = 465;
},
{
layerId = "22D14058-393A-410A-BECB-F56B411A01B2";
paths = (
{
closed = 1;
nodes = (
"389 950 LINE",
"89 950 LINE",
"89 811 LINE",
"229 811 LINE",
"229 -49 LINE",
"89 -49 LINE",
"89 -188 LINE",
"389 -188 LINE"
);
}
);
width = 508;
}
);
unicode = 005D;
userData = {
com.schriftgestaltung.Glyphs.ColorIndex = 3;
public.markColor = "0.97,1,0,1";
};
},
{
color = 3;
glyphname = parenleft;
lastChange = "2016-08-13 07:58:21 +0000";
layers = (
{
layerId = "C0ED9D5D-A651-429A-8F5D-D93A2EDA2DC0";
paths = (
{
closed = 1;
nodes = (
"436 -183 CURVE",
"514 -183 LINE",
"514 -176 LINE",
"323 -28 OFFCURVE",
"242 194 OFFCURVE",
"242 403 CURVE",
"242 611 OFFCURVE",
"323 833 OFFCURVE",
"514 981 CURVE",
"514 988 LINE",
"436 988 LINE",
"279 874 OFFCURVE",
"174 651 OFFCURVE",
"174 403 CURVE SMOOTH",
"174 154 OFFCURVE",
"279 -69 OFFCURVE"
);
}
);
width = 583;
},
{
layerId = "22D14058-393A-410A-BECB-F56B411A01B2";
paths = (
{
closed = 1;
nodes = (
"339 -187 CURVE",
"508 -187 LINE",
"508 -171 LINE",
"320 -17 OFFCURVE",
"232 180 OFFCURVE",
"232 402 CURVE",
"232 624 OFFCURVE",
"320 821 OFFCURVE",
"508 975 CURVE",
"508 991 LINE",
"339 991 LINE",
"183 873 OFFCURVE",
"67 661 OFFCURVE",
"67 403 CURVE",
"67 143 OFFCURVE",
"183 -69 OFFCURVE"
);
}
);
width = 480;
}
);
unicode = 0028;
userData = {
com.schriftgestaltung.Glyphs.ColorIndex = 3;
public.markColor = "0.97,1,0,1";
};
},
{
color = 3;
glyphname = parenright;
lastChange = "2016-08-13 07:58:21 +0000";
layers = (
{
layerId = "C0ED9D5D-A651-429A-8F5D-D93A2EDA2DC0";
paths = (
{
closed = 1;
nodes = (
"147 988 CURVE",
"69 988 LINE",
"69 981 LINE",
"260 833 OFFCURVE",
"341 611 OFFCURVE",
"341 403 CURVE SMOOTH",
"341 194 OFFCURVE",
"260 -28 OFFCURVE",
"69 -176 CURVE",
"69 -183 LINE",
"147 -183 LINE",
"304 -69 OFFCURVE",
"409 154 OFFCURVE",
"409 403 CURVE SMOOTH",
"409 651 OFFCURVE",
"304 874 OFFCURVE"
);
}
);
width = 583;
},
{
layerId = "22D14058-393A-410A-BECB-F56B411A01B2";
paths = (
{
closed = 1;
nodes = (
"143 991 CURVE",
"-26 991 LINE",
"-26 975 LINE",
"162 821 OFFCURVE",
"250 624 OFFCURVE",
"250 402 CURVE SMOOTH",
"250 180 OFFCURVE",
"162 -17 OFFCURVE",
"-26 -171 CURVE",
"-26 -187 LINE",
"143 -187 LINE",
"299 -69 OFFCURVE",
"415 143 OFFCURVE",
"415 403 CURVE SMOOTH",
"415 661 OFFCURVE",
"299 873 OFFCURVE"
);
}
);
width = 482;
}
);
unicode = 0029;
userData = {
com.schriftgestaltung.Glyphs.ColorIndex = 3;
public.markColor = "0.97,1,0,1";
};
},
{
color = 4;
glyphname = emdash;
lastChange = "2016-08-13 07:58:21 +0000";
layers = (
{
layerId = "C0ED9D5D-A651-429A-8F5D-D93A2EDA2DC0";
paths = (
{
closed = 1;
nodes = (
"100 340 LINE",
"819 340 LINE",
"819 400 LINE",
"100 400 LINE"
);
}
);
width = 919;
},
{
layerId = "22D14058-393A-410A-BECB-F56B411A01B2";
paths = (
{
closed = 1;
nodes = (
"70 280 LINE",
"860 280 LINE",
"860 422 LINE",
"70 422 LINE"
);
}
);
width = 930;
}
);
unicode = 2014;
userData = {
com.schriftgestaltung.Glyphs.ColorIndex = 4;
public.markColor = "0.67,0.95,0.38,1";
};
},
{
color = 4;
glyphname = endash;
lastChange = "2016-08-13 07:58:21 +0000";
layers = (
{
layerId = "C0ED9D5D-A651-429A-8F5D-D93A2EDA2DC0";
paths = (
{
closed = 1;
nodes = (
"100 340 LINE",
"619 340 LINE",
"619 400 LINE",
"100 400 LINE"
);
}
);
width = 719;
},
{
layerId = "22D14058-393A-410A-BECB-F56B411A01B2";
paths = (
{
closed = 1;
nodes = (
"70 280 LINE",
"625 280 LINE",
"625 422 LINE",
"70 422 LINE"
);
}
);
width = 695;
}
);
unicode = 2013;
userData = {
com.schriftgestaltung.Glyphs.ColorIndex = 4;
public.markColor = "0.67,0.95,0.38,1";
};
},
{
color = 4;
glyphname = guillemotleft;
lastChange = "2016-08-13 07:58:21 +0000";
layers = (
{
layerId = "C0ED9D5D-A651-429A-8F5D-D93A2EDA2DC0";
paths = (
{
closed = 1;
nodes = (
"113 295 LINE",
"215 470 LINE",
"144 470 LINE",
"45 295 LINE",
"144 120 LINE",
"215 120 LINE"
);
},
{
closed = 1;
nodes = (
"283 295 LINE",
"385 470 LINE",
"314 470 LINE",
"215 295 LINE",
"314 120 LINE",
"385 120 LINE"
);
}
);
width = 435;
},
{
layerId = "22D14058-393A-410A-BECB-F56B411A01B2";
paths = (
{
closed = 1;
nodes = (
"200 295 LINE",
"287 470 LINE",
"129 470 LINE",
"45 295 LINE",
"129 120 LINE",
"287 120 LINE"
);
},
{
closed = 1;
nodes = (
"420 295 LINE",
"507 470 LINE",
"349 470 LINE",
"265 295 LINE",
"349 120 LINE",
"507 120 LINE"
);
}
);
width = 557;
}
);
unicode = 00AB;
userData = {
com.schriftgestaltung.Glyphs.ColorIndex = 4;
public.markColor = "0.67,0.95,0.38,1";
};
},
{
color = 4;
glyphname = guillemotright;
lastChange = "2016-08-13 07:58:21 +0000";
layers = (
{
layerId = "C0ED9D5D-A651-429A-8F5D-D93A2EDA2DC0";
paths = (
{
closed = 1;
nodes = (
"291 120 LINE",
"390 295 LINE",
"291 470 LINE",
"220 470 LINE",
"322 295 LINE",
"220 120 LINE"
);
},
{
closed = 1;
nodes = (
"121 120 LINE",
"220 295 LINE",
"121 470 LINE",
"50 470 LINE",
"152 295 LINE",
"50 120 LINE"
);
}
);
width = 435;
},
{
layerId = "22D14058-393A-410A-BECB-F56B411A01B2";
paths = (
{
closed = 1;
nodes = (
"428 120 LINE",
"512 295 LINE",
"428 470 LINE",
"270 470 LINE",
"357 295 LINE",
"270 120 LINE"
);
},
{
closed = 1;
nodes = (
"208 120 LINE",
"292 295 LINE",
"208 470 LINE",
"50 470 LINE",
"137 295 LINE",
"50 120 LINE"
);
}
);
width = 557;
}
);
unicode = 00BB;
userData = {
com.schriftgestaltung.Glyphs.ColorIndex = 4;
public.markColor = "0.67,0.95,0.38,1";
};
},
{
color = 4;
glyphname = guilsinglleft;
lastChange = "2016-08-13 07:58:21 +0000";
layers = (
{
layerId = "C0ED9D5D-A651-429A-8F5D-D93A2EDA2DC0";
paths = (
{
closed = 1;
nodes = (
"113 295 LINE",
"215 470 LINE",
"144 470 LINE",
"45 295 LINE",
"144 120 LINE",
"215 120 LINE"
);
}
);
width = 265;
},
{
layerId = "22D14058-393A-410A-BECB-F56B411A01B2";
paths = (
{
closed = 1;
nodes = (
"200 295 LINE",
"287 470 LINE",
"129 470 LINE",
"45 295 LINE",
"129 120 LINE",
"287 120 LINE"
);
}
);
width = 337;
}
);
unicode = 2039;
userData = {
com.schriftgestaltung.Glyphs.ColorIndex = 4;
public.markColor = "0.67,0.95,0.38,1";
};
},
{
color = 4;
glyphname = guilsinglright;
lastChange = "2016-08-13 07:58:21 +0000";
layers = (
{
layerId = "C0ED9D5D-A651-429A-8F5D-D93A2EDA2DC0";
paths = (
{
closed = 1;
nodes = (
"121 120 LINE",
"220 295 LINE",
"121 470 LINE",
"50 470 LINE",
"152 295 LINE",
"50 120 LINE"
);
}
);
width = 265;
},
{
layerId = "22D14058-393A-410A-BECB-F56B411A01B2";
paths = (
{
closed = 1;
nodes = (
"208 120 LINE",
"292 295 LINE",
"208 470 LINE",
"50 470 LINE",
"137 295 LINE",
"50 120 LINE"
);
}
);
width = 337;
}
);
unicode = 203A;
userData = {
com.schriftgestaltung.Glyphs.ColorIndex = 4;
public.markColor = "0.67,0.95,0.38,1";
};
},
{
color = 8;
glyphname = quotedblleft;
lastChange = "2016-08-26 15:34:35 +0000";
layers = (
{
anchors = (
{
name = _top;
position = "{66, 530}";
}
);
layerId = "C0ED9D5D-A651-429A-8F5D-D93A2EDA2DC0";
paths = (
{
closed = 1;
nodes = (
"110 580 LINE",
"110 656 LINE",
"65 656 LINE",
"65 681 LINE SMOOTH",
"65 713 OFFCURVE",
"78 730 OFFCURVE",
"111 730 CURVE",
"111 768 LINE",
"53 768 OFFCURVE",
"20 742 OFFCURVE",
"20 665 CURVE SMOOTH",
"20 641 OFFCURVE",
"23 613 OFFCURVE",
"29 580 CURVE"
);
},
{
closed = 1;
nodes = (
"231 580 LINE",
"231 656 LINE",
"186 656 LINE",
"186 681 LINE SMOOTH",
"186 713 OFFCURVE",
"199 730 OFFCURVE",
"232 730 CURVE",
"232 768 LINE",
"174 768 OFFCURVE",
"141 742 OFFCURVE",
"141 665 CURVE SMOOTH",
"141 641 OFFCURVE",
"144 613 OFFCURVE",
"150 580 CURVE"
);
}
);
width = 252;
},
{
anchors = (
{
name = _top;
position = "{123, 530}";
}
);
layerId = "22D14058-393A-410A-BECB-F56B411A01B2";
paths = (
{
closed = 1;
nodes = (
"191 570 LINE",
"191 693 LINE",
"128 693 LINE",
"128 709 LINE SMOOTH",
"128 754 OFFCURVE",
"146 775 OFFCURVE",
"180 775 CURVE",
"180 840 LINE",
"85 840 OFFCURVE",
"40 778 OFFCURVE",
"40 688 CURVE SMOOTH",
"40 652 OFFCURVE",
"46 612 OFFCURVE",
"60 570 CURVE"
);
},
{
closed = 1;
nodes = (
"381 570 LINE",
"381 693 LINE",
"318 693 LINE",
"318 709 LINE SMOOTH",
"318 754 OFFCURVE",
"336 775 OFFCURVE",
"370 775 CURVE",
"370 840 LINE",
"275 840 OFFCURVE",
"230 778 OFFCURVE",
"230 688 CURVE SMOOTH",
"230 652 OFFCURVE",
"236 612 OFFCURVE",
"250 570 CURVE"
);
}
);
width = 421;
}
);
unicode = 201C;
userData = {
com.schriftgestaltung.Glyphs.ColorIndex = 8;
public.markColor = "0.5,0.09,0.79,1";
};
},
{
color = 8;
glyphname = quotedblright;
lastChange = "2016-08-26 15:34:35 +0000";
layers = (
{
anchors = (
{
name = _bottom;
position = "{186, 818}";
}
);
layerId = "C0ED9D5D-A651-429A-8F5D-D93A2EDA2DC0";
paths = (
{
closed = 1;
nodes = (
"142 768 LINE",
"142 692 LINE",
"187 692 LINE",
"187 667 LINE SMOOTH",
"187 635 OFFCURVE",
"174 618 OFFCURVE",
"141 618 CURVE",
"141 580 LINE",
"199 580 OFFCURVE",
"232 606 OFFCURVE",
"232 683 CURVE SMOOTH",
"232 707 OFFCURVE",
"229 735 OFFCURVE",
"223 768 CURVE"
);
},
{
closed = 1;
nodes = (
"21 768 LINE",
"21 692 LINE",
"66 692 LINE",
"66 667 LINE SMOOTH",
"66 635 OFFCURVE",
"53 618 OFFCURVE",
"20 618 CURVE",
"20 580 LINE",
"78 580 OFFCURVE",
"111 606 OFFCURVE",
"111 683 CURVE SMOOTH",
"111 707 OFFCURVE",
"108 735 OFFCURVE",
"102 768 CURVE"
);
}
);
width = 252;
},
{
anchors = (
{
name = _bottom;
position = "{298, 880}";
}
);
layerId = "22D14058-393A-410A-BECB-F56B411A01B2";
paths = (
{
closed = 1;
nodes = (
"230 840 LINE",
"230 717 LINE",
"293 717 LINE",
"293 701 LINE SMOOTH",
"293 656 OFFCURVE",
"275 635 OFFCURVE",
"241 635 CURVE",
"241 570 LINE",
"336 570 OFFCURVE",
"381 632 OFFCURVE",
"381 722 CURVE SMOOTH",
"381 758 OFFCURVE",
"375 798 OFFCURVE",
"361 840 CURVE"
);
},
{
closed = 1;
nodes = (
"40 840 LINE",
"40 717 LINE",
"103 717 LINE",
"103 701 LINE SMOOTH",
"103 656 OFFCURVE",
"85 635 OFFCURVE",
"51 635 CURVE",
"51 570 LINE",
"146 570 OFFCURVE",
"191 632 OFFCURVE",
"191 722 CURVE SMOOTH",
"191 758 OFFCURVE",
"185 798 OFFCURVE",
"171 840 CURVE"
);
}
);
width = 421;
}
);
unicode = 201D;
userData = {
com.schriftgestaltung.Glyphs.ColorIndex = 8;
public.markColor = "0.5,0.09,0.79,1";
};
},
{
color = 8;
glyphname = quoteleft;
lastChange = "2016-08-26 15:34:35 +0000";
layers = (
{
anchors = (
{
name = _top;
position = "{66, 530}";
}
);
layerId = "C0ED9D5D-A651-429A-8F5D-D93A2EDA2DC0";
paths = (
{
closed = 1;
nodes = (
"110 580 LINE",
"110 656 LINE",
"65 656 LINE",
"65 681 LINE SMOOTH",
"65 713 OFFCURVE",
"78 730 OFFCURVE",
"111 730 CURVE",
"111 768 LINE",
"53 768 OFFCURVE",
"20 742 OFFCURVE",
"20 665 CURVE SMOOTH",
"20 641 OFFCURVE",
"23 613 OFFCURVE",
"29 580 CURVE"
);
}
);
width = 131;
},
{
anchors = (
{
name = _top;
position = "{123, 530}";
}
);
layerId = "22D14058-393A-410A-BECB-F56B411A01B2";
paths = (
{
closed = 1;
nodes = (
"191 570 LINE",
"191 693 LINE",
"128 693 LINE",
"128 709 LINE SMOOTH",
"128 754 OFFCURVE",
"146 775 OFFCURVE",
"180 775 CURVE",
"180 840 LINE",
"85 840 OFFCURVE",
"40 778 OFFCURVE",
"40 688 CURVE SMOOTH",
"40 652 OFFCURVE",
"46 612 OFFCURVE",
"60 570 CURVE"
);
}
);
width = 231;
}
);
unicode = 2018;
userData = {
com.schriftgestaltung.Glyphs.ColorIndex = 8;
public.markColor = "0.5,0.09,0.79,1";
};
},
{
color = 8;
glyphname = quoteright;
lastChange = "2016-08-26 15:34:35 +0000";
layers = (
{
anchors = (
{
name = _bottom;
position = "{65, 818}";
}
);
layerId = "C0ED9D5D-A651-429A-8F5D-D93A2EDA2DC0";
paths = (
{
closed = 1;
nodes = (
"21 768 LINE",
"21 692 LINE",
"66 692 LINE",
"66 667 LINE SMOOTH",
"66 635 OFFCURVE",
"53 618 OFFCURVE",
"20 618 CURVE",
"20 580 LINE",
"78 580 OFFCURVE",
"111 606 OFFCURVE",
"111 683 CURVE SMOOTH",
"111 707 OFFCURVE",
"108 735 OFFCURVE",
"102 768 CURVE"
);
}
);
width = 131;
},
{
anchors = (
{
name = _bottom;
position = "{108, 880}";
}
);
layerId = "22D14058-393A-410A-BECB-F56B411A01B2";
paths = (
{
closed = 1;
nodes = (
"40 840 LINE",
"40 717 LINE",
"103 717 LINE",
"103 701 LINE SMOOTH",
"103 656 OFFCURVE",
"85 635 OFFCURVE",
"51 635 CURVE",
"51 570 LINE",
"146 570 OFFCURVE",
"191 632 OFFCURVE",
"191 722 CURVE SMOOTH",
"191 758 OFFCURVE",
"185 798 OFFCURVE",
"171 840 CURVE"
);
}
);
width = 231;
}
);
unicode = 2019;
userData = {
com.schriftgestaltung.Glyphs.ColorIndex = 8;
public.markColor = "0.5,0.09,0.79,1";
};
},
{
glyphname = .notdef;
lastChange = "2016-08-13 07:58:21 +0000";
layers = (
{
layerId = "C0ED9D5D-A651-429A-8F5D-D93A2EDA2DC0";
paths = (
{
closed = 1;
nodes = (
"180 0 LINE",
"570 0 LINE",
"570 701 LINE",
"180 701 LINE"
);
},
{
closed = 1;
nodes = (
"234 651 LINE",
"516 651 LINE",
"516 50 LINE",
"234 50 LINE"
);
}
);
width = 750;
},
{
layerId = "22D14058-393A-410A-BECB-F56B411A01B2";
paths = (
{
closed = 1;
nodes = (
"160 0 LINE",
"596 0 LINE",
"596 701 LINE",
"160 701 LINE"
);
},
{
closed = 1;
nodes = (
"241 625 LINE",
"516 625 LINE",
"516 76 LINE",
"241 76 LINE"
);
}
);
width = 756;
}
);
},
{
color = 4;
glyphname = Euro;
lastChange = "2016-08-13 07:58:21 +0000";
layers = (
{
layerId = "C0ED9D5D-A651-429A-8F5D-D93A2EDA2DC0";
paths = (
{
closed = 1;
nodes = (
"462 402 LINE",
"462 459 LINE",
"30 459 LINE",
"30 402 LINE"
);
},
{
closed = 1;
nodes = (
"462 232 LINE",
"462 289 LINE",
"30 289 LINE",
"30 232 LINE"
);
},
{
closed = 1;
nodes = (
"111 345 CURVE SMOOTH",
"111 139 OFFCURVE",
"267 -6 OFFCURVE",
"462 -6 CURVE SMOOTH",
"600 -6 OFFCURVE",
"718 57 OFFCURVE",
"775 182 CURVE",
"690 182 LINE",
"647 101 OFFCURVE",
"563 54 OFFCURVE",
"462 54 CURVE SMOOTH",
"304 54 OFFCURVE",
"183 168 OFFCURVE",
"183 345 CURVE SMOOTH",
"183 523 OFFCURVE",
"304 636 OFFCURVE",
"462 636 CURVE SMOOTH",
"563 636 OFFCURVE",
"647 590 OFFCURVE",
"690 509 CURVE",
"775 509 LINE",
"718 634 OFFCURVE",
"600 697 OFFCURVE",
"462 697 CURVE SMOOTH",
"267 697 OFFCURVE",
"111 552 OFFCURVE"
);
}
);
width = 795;
},
{
layerId = "22D14058-393A-410A-BECB-F56B411A01B2";
paths = (
{
closed = 1;
nodes = (
"441 381 LINE",
"441 487 LINE",
"20 487 LINE",
"20 381 LINE"
);
},
{
closed = 1;
nodes = (
"441 220 LINE",
"441 325 LINE",
"20 325 LINE",
"20 220 LINE"
);
},
{
closed = 1;
nodes = (
"81 353 CURVE SMOOTH",
"81 142 OFFCURVE",
"242 -6 OFFCURVE",
"441 -6 CURVE SMOOTH",
"594 -6 OFFCURVE",
"727 78 OFFCURVE",
"776 228 CURVE",
"572 228 LINE",
"543 172 OFFCURVE",
"501 151 OFFCURVE",
"441 151 CURVE SMOOTH",
"328 151 OFFCURVE",
"255 231 OFFCURVE",
"255 353 CURVE SMOOTH",
"255 476 OFFCURVE",
"328 555 OFFCURVE",
"441 555 CURVE SMOOTH",
"501 555 OFFCURVE",
"543 534 OFFCURVE",
"572 478 CURVE",
"776 478 LINE",
"727 628 OFFCURVE",
"594 712 OFFCURVE",
"441 712 CURVE SMOOTH",
"242 712 OFFCURVE",
"81 564 OFFCURVE"
);
}
);
width = 811;
}
);
unicode = 20AC;
userData = {
com.schriftgestaltung.Glyphs.ColorIndex = 4;
public.markColor = "0.67,0.95,0.38,1";
};
},
{
color = 4;
glyphname = cent;
lastChange = "2016-08-13 07:58:21 +0000";
layers = (
{
layerId = "C0ED9D5D-A651-429A-8F5D-D93A2EDA2DC0";
paths = (
{
closed = 1;
nodes = (
"331 464 CURVE SMOOTH",
"429 464 OFFCURVE",
"472 420 OFFCURVE",
"492 363 CURVE",
"557 363 LINE",
"541 447 OFFCURVE",
"466 524 OFFCURVE",
"331 524 CURVE SMOOTH",
"158 524 OFFCURVE",
"75 396 OFFCURVE",
"75 261 CURVE SMOOTH",
"75 128 OFFCURVE",
"158 0 OFFCURVE",
"331 0 CURVE SMOOTH",
"466 0 OFFCURVE",
"541 77 OFFCURVE",
"557 161 CURVE",
"492 161 LINE",
"472 104 OFFCURVE",
"429 60 OFFCURVE",
"331 60 CURVE SMOOTH",
"217 60 OFFCURVE",
"140 135 OFFCURVE",
"140 262 CURVE",
"140 389 OFFCURVE",
"217 464 OFFCURVE"
);
},
{
closed = 1;
nodes = (
"303 491 LINE",
"358 491 LINE",
"358 614 LINE",
"358 614 OFFCURVE",
"303 614 OFFCURVE",
"303 614 CURVE"
);
},
{
closed = 1;
nodes = (
"303 -90 LINE",
"358 -90 LINE",
"358 33 LINE",
"358 33 OFFCURVE",
"303 33 OFFCURVE",
"303 33 CURVE"
);
}
);
width = 737;
},
{
layerId = "22D14058-393A-410A-BECB-F56B411A01B2";
paths = (
{
closed = 1;
nodes = (
"327 379 CURVE SMOOTH",
"373 379 OFFCURVE",
"408 360 OFFCURVE",
"418 322 CURVE",
"575 322 LINE",
"570 444 OFFCURVE",
"458 517 OFFCURVE",
"327 517 CURVE SMOOTH",
"150 517 OFFCURVE",
"55 414 OFFCURVE",
"55 256 CURVE",
"55 98 OFFCURVE",
"150 -5 OFFCURVE",
"327 -5 CURVE SMOOTH",
"458 -5 OFFCURVE",
"570 68 OFFCURVE",
"575 190 CURVE",
"418 190 LINE",
"408 152 OFFCURVE",
"373 133 OFFCURVE",
"327 133 CURVE SMOOTH",
"258 133 OFFCURVE",
"218 179 OFFCURVE",
"218 256 CURVE",
"218 333 OFFCURVE",
"258 379 OFFCURVE"
);
},
{
closed = 1;
nodes = (
"286 406 LINE",
"365 406 LINE",
"365 597 LINE",
"365 597 OFFCURVE",
"286 597 OFFCURVE",
"286 597 CURVE"
);
},
{
closed = 1;
nodes = (
"286 -85 LINE",
"365 -85 LINE",
"365 106 LINE",
"365 106 OFFCURVE",
"286 106 OFFCURVE",
"286 106 CURVE"
);
}
);
width = 630;
}
);
unicode = 00A2;
userData = {
com.schriftgestaltung.Glyphs.ColorIndex = 4;
public.markColor = "0.67,0.95,0.38,1";
};
},
{
color = 4;
glyphname = currency;
lastChange = "2016-08-13 07:58:21 +0000";
layers = (
{
layerId = "C0ED9D5D-A651-429A-8F5D-D93A2EDA2DC0";
paths = (
{
closed = 1;
nodes = (
"94 377 CURVE SMOOTH",
"94 271 OFFCURVE",
"161 202 OFFCURVE",
"257 202 CURVE SMOOTH",
"353 202 OFFCURVE",
"432 271 OFFCURVE",
"432 377 CURVE SMOOTH",
"432 483 OFFCURVE",
"358 552 OFFCURVE",
"263 552 CURVE SMOOTH",
"168 552 OFFCURVE",
"94 483 OFFCURVE"
);
},
{
closed = 1;
nodes = (
"374 377 CURVE SMOOTH",
"374 292 OFFCURVE",
"317 248 OFFCURVE",
"258 248 CURVE SMOOTH",
"198 248 OFFCURVE",
"151 292 OFFCURVE",
"151 377 CURVE SMOOTH",
"151 461 OFFCURVE",
"201 507 OFFCURVE",
"261 507 CURVE SMOOTH",
"321 507 OFFCURVE",
"374 461 OFFCURVE"
);
},
{
closed = 1;
nodes = (
"351 251 LINE",
"427 175 LINE",
"466 214 LINE",
"389 290 LINE"
);
},
{
closed = 1;
nodes = (
"138 292 LINE",
"60 214 LINE",
"99 175 LINE",
"175 251 LINE"
);
},
{
closed = 1;
nodes = (
"177 502 LINE",
"99 580 LINE",
"60 541 LINE",
"140 462 LINE"
);
},
{
closed = 1;
nodes = (
"388 463 LINE",
"466 541 LINE",
"427 580 LINE",
"348 501 LINE"
);
}
);
width = 526;
},
{
layerId = "22D14058-393A-410A-BECB-F56B411A01B2";
paths = (
{
closed = 1;
nodes = (
"82 378 CURVE SMOOTH",
"82 267 OFFCURVE",
"168 196 OFFCURVE",
"290 196 CURVE SMOOTH",
"412 196 OFFCURVE",
"495 267 OFFCURVE",
"495 378 CURVE SMOOTH",
"495 490 OFFCURVE",
"411 558 OFFCURVE",
"289 558 CURVE SMOOTH",
"167 558 OFFCURVE",
"82 490 OFFCURVE"
);
},
{
closed = 1;
nodes = (
"363 377 CURVE SMOOTH",
"363 316 OFFCURVE",
"326 289 OFFCURVE",
"290 289 CURVE SMOOTH",
"253 289 OFFCURVE",
"214 316 OFFCURVE",
"214 377 CURVE SMOOTH",
"214 439 OFFCURVE",
"252 466 OFFCURVE",
"289 466 CURVE SMOOTH",
"325 466 OFFCURVE",
"363 439 OFFCURVE"
);
},
{
closed = 1;
nodes = (
"352 249 LINE",
"451 150 LINE",
"517 217 LINE",
"423 311 LINE"
);
},
{
closed = 1;
nodes = (
"159 316 LINE",
"60 217 LINE",
"126 150 LINE",
"241 265 LINE"
);
},
{
closed = 1;
nodes = (
"232 502 LINE",
"126 608 LINE",
"60 541 LINE",
"155 446 LINE"
);
},
{
closed = 1;
nodes = (
"410 434 LINE",
"517 541 LINE",
"451 608 LINE",
"345 502 LINE"
);
}
);
width = 577;
}
);
unicode = 00A4;
userData = {
com.schriftgestaltung.Glyphs.ColorIndex = 4;
public.markColor = "0.67,0.95,0.38,1";
};
},
{
color = 4;
glyphname = dollar;
lastChange = "2016-08-13 07:58:21 +0000";
layers = (
{
layerId = "C0ED9D5D-A651-429A-8F5D-D93A2EDA2DC0";
paths = (
{
closed = 1;
nodes = (
"255 -87 LINE",
"310 -87 LINE",
"310 777 LINE",
"310 777 OFFCURVE",
"255 777 OFFCURVE",
"255 777 CURVE"
);
},
{
closed = 1;
nodes = (
"125 508 CURVE SMOOTH",
"125 595 OFFCURVE",
"189 637 OFFCURVE",
"274 637 CURVE SMOOTH",
"367 637 OFFCURVE",
"414 582 OFFCURVE",
"419 532 CURVE",
"498 532 LINE",
"483 629 OFFCURVE",
"406 697 OFFCURVE",
"284 697 CURVE SMOOTH",
"142 697 OFFCURVE",
"60 619 OFFCURVE",
"60 507 CURVE SMOOTH",
"60 238 OFFCURVE",
"446 386 OFFCURVE",
"446 186 CURVE SMOOTH",
"446 112 OFFCURVE",
"387 52 OFFCURVE",
"284 52 CURVE SMOOTH",
"181 52 OFFCURVE",
"139 105 OFFCURVE",
"134 163 CURVE",
"60 163 LINE",
"60 56 OFFCURVE",
"160 -7 OFFCURVE",
"284 -7 CURVE SMOOTH",
"439 -7 OFFCURVE",
"511 94 OFFCURVE",
"511 190 CURVE SMOOTH",
"511 452 OFFCURVE",
"125 306 OFFCURVE"
);
}
);
width = 655;
},
{
layerId = "22D14058-393A-410A-BECB-F56B411A01B2";
paths = (
{
closed = 1;
nodes = (
"298 -87 LINE",
"357 -87 LINE",
"357 792 LINE",
"357 792 OFFCURVE",
"298 792 OFFCURVE",
"298 792 CURVE"
);
},
{
closed = 1;
nodes = (
"240 508 CURVE SMOOTH",
"240 558 OFFCURVE",
"280 577 OFFCURVE",
"326 577 CURVE SMOOTH",
"369 577 OFFCURVE",
"405 548 OFFCURVE",
"411 498 CURVE",
"587 498 LINE",
"583 654 OFFCURVE",
"473 712 OFFCURVE",
"327 712 CURVE SMOOTH",
"185 712 OFFCURVE",
"60 630 OFFCURVE",
"60 496 CURVE SMOOTH",
"60 250 OFFCURVE",
"407 338 OFFCURVE",
"407 199 CURVE SMOOTH",
"407 156 OFFCURVE",
"377 128 OFFCURVE",
"328 128 CURVE SMOOTH",
"279 128 OFFCURVE",
"247 152 OFFCURVE",
"242 212 CURVE",
"60 212 LINE",
"60 69 OFFCURVE",
"168 -7 OFFCURVE",
"328 -7 CURVE SMOOTH",
"483 -7 OFFCURVE",
"587 93 OFFCURVE",
"587 209 CURVE SMOOTH",
"587 460 OFFCURVE",
"240 364 OFFCURVE"
);
}
);
width = 643;
}
);
unicode = 0024;
userData = {
com.schriftgestaltung.Glyphs.ColorIndex = 4;
public.markColor = "0.67,0.95,0.38,1";
};
},
{
color = 4;
glyphname = florin;
lastChange = "2016-08-13 07:58:21 +0000";
layers = (
{
layerId = "C0ED9D5D-A651-429A-8F5D-D93A2EDA2DC0";
paths = (
{
closed = 1;
nodes = (
"32 491 LINE",
"305 491 LINE",
"310 546 LINE",
"37 546 LINE"
);
},
{
closed = 1;
nodes = (
"119 599 CURVE SMOOTH",
"50 -50 LINE SMOOTH",
"45 -104 OFFCURVE",
"25 -124 OFFCURVE",
"-14 -124 CURVE SMOOTH",
"-30 -124 LINE",
"-36 -179 LINE",
"-11 -179 LINE SMOOTH",
"73 -179 OFFCURVE",
"111 -139 OFFCURVE",
"120 -50 CURVE SMOOTH",
"189 599 LINE SMOOTH",
"197 675 OFFCURVE",
"229 707 OFFCURVE",
"319 707 CURVE",
"325 763 LINE",
"194 763 OFFCURVE",
"131 714 OFFCURVE"
);
}
);
width = 328;
},
{
layerId = "22D14058-393A-410A-BECB-F56B411A01B2";
paths = (
{
closed = 1;
nodes = (
"-13 416 LINE",
"281 416 LINE",
"295 558 LINE",
"1 558 LINE"
);
},
{
closed = 1;
nodes = (
"56 579 CURVE SMOOTH",
"-14 -82 LINE SMOOTH",
"-17 -108 OFFCURVE",
"-28 -121 OFFCURVE",
"-50 -121 CURVE SMOOTH",
"-67 -121 LINE",
"-81 -266 LINE",
"-64 -266 LINE SMOOTH",
"52 -266 OFFCURVE",
"142 -225 OFFCURVE",
"157 -82 CURVE SMOOTH",
"227 579 LINE SMOOTH",
"232 624 OFFCURVE",
"251 638 OFFCURVE",
"296 638 CURVE",
"311 783 LINE",
"151 783 OFFCURVE",
"71 721 OFFCURVE"
);
}
);
width = 336;
}
);
unicode = 0192;
userData = {
com.schriftgestaltung.Glyphs.ColorIndex = 4;
public.markColor = "0.67,0.95,0.38,1";
};
},
{
color = 8;
glyphname = ruble;
lastChange = "2016-08-13 07:58:21 +0000";
layers = (
{
layerId = "C0ED9D5D-A651-429A-8F5D-D93A2EDA2DC0";
paths = (
{
closed = 1;
nodes = (
"31 289 LINE",
"326 289 LINE SMOOTH",
"488 289 OFFCURVE",
"562 375 OFFCURVE",
"562 489 CURVE SMOOTH",
"562 604 OFFCURVE",
"486 690 OFFCURVE",
"326 690 CURVE SMOOTH",
"115 690 LINE",
"115 0 LINE",
"185 0 LINE",
"185 633 LINE",
"326 633 LINE SMOOTH",
"444 633 OFFCURVE",
"491 578 OFFCURVE",
"491 489 CURVE SMOOTH",
"491 403 OFFCURVE",
"444 346 OFFCURVE",
"326 346 CURVE SMOOTH",
"31 346 LINE"
);
},
{
closed = 1;
nodes = (
"30 130 LINE",
"419 130 LINE",
"419 190 LINE",
"30 190 LINE"
);
}
);
width = 602;
},
{
layerId = "22D14058-393A-410A-BECB-F56B411A01B2";
paths = (
{
closed = 1;
nodes = (
"20 273 LINE",
"392 273 LINE SMOOTH",
"598 273 OFFCURVE",
"650 406 OFFCURVE",
"650 487 CURVE SMOOTH",
"650 598 OFFCURVE",
"564 702 OFFCURVE",
"392 702 CURVE SMOOTH",
"115 702 LINE",
"115 0 LINE",
"286 0 LINE",
"286 572 LINE",
"392 572 LINE SMOOTH",
"444 572 OFFCURVE",
"476 536 OFFCURVE",
"476 487 CURVE SMOOTH",
"476 437 OFFCURVE",
"444 403 OFFCURVE",
"392 403 CURVE SMOOTH",
"20 403 LINE"
);
},
{
closed = 1;
nodes = (
"20 82 LINE",
"440 82 LINE",
"440 212 LINE",
"20 212 LINE"
);
}
);
width = 678;
}
);
unicode = 20BD;
userData = {
com.schriftgestaltung.Glyphs.ColorIndex = 8;
public.markColor = "0.5,0.09,0.79,1";
};
},
{
color = 4;
glyphname = sterling;
lastChange = "2016-08-13 07:58:21 +0000";
layers = (
{
layerId = "C0ED9D5D-A651-429A-8F5D-D93A2EDA2DC0";
paths = (
{
closed = 1;
nodes = (
"112 492 CURVE SMOOTH",
"112 369 OFFCURVE",
"166 342 OFFCURVE",
"166 240 CURVE SMOOTH",
"166 148 OFFCURVE",
"134 100 OFFCURVE",
"91 45 CURVE",
"108 0 LINE",
"534 0 LINE",
"534 0 OFFCURVE",
"534 60 OFFCURVE",
"534 60 CURVE",
"534 60 OFFCURVE",
"164 60 OFFCURVE",
"164 60 CURVE",
"206 110 OFFCURVE",
"232 163 OFFCURVE",
"232 239 CURVE",
"232 317 OFFCURVE",
"177 395 OFFCURVE",
"177 488 CURVE SMOOTH",
"177 600 OFFCURVE",
"247 640 OFFCURVE",
"324 640 CURVE SMOOTH",
"424 640 OFFCURVE",
"464 579 OFFCURVE",
"464 498 CURVE",
"526 498 LINE",
"524 608 OFFCURVE",
"464 700 OFFCURVE",
"322 700 CURVE SMOOTH",
"201 700 OFFCURVE",
"112 612 OFFCURVE"
);
},
{
closed = 1;
nodes = (
"47 364 CURVE",
"47 314 LINE",
"405 314 LINE",
"405 364 LINE",
"405 364 OFFCURVE",
"47 364 OFFCURVE"
);
}
);
width = 632;
},
{
layerId = "22D14058-393A-410A-BECB-F56B411A01B2";
paths = (
{
closed = 1;
nodes = (
"98 516 CURVE",
"98 409 OFFCURVE",
"145 341 OFFCURVE",
"145 285 CURVE SMOOTH",
"145 190 OFFCURVE",
"115 134 OFFCURVE",
"54 80 CURVE",
"78 -4 LINE",
"588 -4 LINE",
"588 -4 OFFCURVE",
"588 130 OFFCURVE",
"588 130 CURVE",
"588 130 OFFCURVE",
"241 130 OFFCURVE",
"241 130 CURVE",
"291 175 OFFCURVE",
"307 239 OFFCURVE",
"307 284 CURVE",
"307 358 OFFCURVE",
"260 417 OFFCURVE",
"260 509 CURVE",
"260 575 OFFCURVE",
"290 607 OFFCURVE",
"345 607 CURVE SMOOTH",
"405 607 OFFCURVE",
"427 570 OFFCURVE",
"427 520 CURVE",
"584 520 LINE",
"584 642 OFFCURVE",
"509 747 OFFCURVE",
"348 747 CURVE SMOOTH",
"198 747 OFFCURVE",
"98 673 OFFCURVE"
);
},
{
closed = 1;
nodes = (
"36 402 CURVE",
"36 287 LINE",
"463 287 LINE",
"463 402 LINE",
"463 402 OFFCURVE",
"36 402 OFFCURVE"
);
}
);
width = 663;
}
);
unicode = 00A3;
userData = {
com.schriftgestaltung.Glyphs.ColorIndex = 4;
public.markColor = "0.67,0.95,0.38,1";
};
},
{
color = 4;
glyphname = yen;
lastChange = "2016-08-13 07:58:21 +0000";
layers = (
{
layerId = "C0ED9D5D-A651-429A-8F5D-D93A2EDA2DC0";
paths = (
{
closed = 1;
nodes = (
"292 312 LINE",
"506 315 LINE",
"506 372 LINE",
"317 372 LINE"
);
},
{
closed = 1;
nodes = (
"36 140 LINE",
"506 140 LINE",
"506 197 LINE",
"36 197 LINE"
);
},
{
closed = 1;
nodes = (
"236 272 LINE",
"236 0 LINE",
"306 0 LINE",
"306 272 LINE",
"526 690 LINE",
"450 690 LINE",
"250 296 LINE",
"291 296 LINE",
"90 690 LINE",
"15 690 LINE"
);
},
{
closed = 1;
nodes = (
"36 315 LINE",
"250 312 LINE",
"225 372 LINE",
"36 372 LINE"
);
}
);
width = 541;
},
{
layerId = "22D14058-393A-410A-BECB-F56B411A01B2";
paths = (
{
closed = 1;
nodes = (
"435 310 LINE",
"629 310 LINE",
"629 425 LINE",
"435 425 LINE"
);
},
{
closed = 1;
nodes = (
"58 139 LINE",
"629 139 LINE",
"629 254 LINE",
"58 254 LINE"
);
},
{
closed = 1;
nodes = (
"258 226 LINE",
"258 0 LINE",
"429 0 LINE",
"429 226 LINE",
"672 702 LINE",
"478 702 LINE",
"309 304 LINE",
"378 304 LINE",
"209 702 LINE",
"15 702 LINE"
);
},
{
closed = 1;
nodes = (
"58 310 LINE",
"293 310 LINE",
"293 425 LINE",
"58 425 LINE"
);
}
);
width = 687;
}
);
unicode = 00A5;
userData = {
com.schriftgestaltung.Glyphs.ColorIndex = 4;
public.markColor = "0.67,0.95,0.38,1";
};
},
{
color = 3;
glyphname = plus;
lastChange = "2016-08-13 07:58:21 +0000";
layers = (
{
layerId = "C0ED9D5D-A651-429A-8F5D-D93A2EDA2DC0";
paths = (
{
closed = 1;
nodes = (
"350 625 LINE",
"350 115 LINE",
"415 115 LINE",
"415 625 LINE"
);
},
{
closed = 1;
nodes = (
"128 340 LINE",
"637 340 LINE",
"637 400 LINE",
"128 400 LINE"
);
}
);
width = 765;
},
{
layerId = "22D14058-393A-410A-BECB-F56B411A01B2";
paths = (
{
closed = 1;
nodes = (
"243 605 LINE",
"243 95 LINE",
"407 95 LINE",
"407 605 LINE"
);
},
{
closed = 1;
nodes = (
"70 272 LINE",
"580 272 LINE",
"580 427 LINE",
"70 427 LINE"
);
}
);
width = 650;
}
);
unicode = 002B;
userData = {
com.schriftgestaltung.Glyphs.ColorIndex = 3;
public.markColor = "0.97,1,0,1";
};
},
{
color = 3;
glyphname = minus;
lastChange = "2016-08-13 07:58:21 +0000";
layers = (
{
layerId = "C0ED9D5D-A651-429A-8F5D-D93A2EDA2DC0";
paths = (
{
closed = 1;
nodes = (
"100 340 LINE",
"489 340 LINE",
"489 400 LINE",
"100 400 LINE"
);
}
);
width = 589;
},
{
layerId = "22D14058-393A-410A-BECB-F56B411A01B2";
paths = (
{
closed = 1;
nodes = (
"70 280 LINE",
"510 280 LINE",
"510 422 LINE",
"70 422 LINE"
);
}
);
width = 580;
}
);
unicode = 2212;
userData = {
com.schriftgestaltung.Glyphs.ColorIndex = 3;
public.markColor = "0.97,1,0,1";
};
},
{
color = 3;
glyphname = multiply;
lastChange = "2016-08-13 07:58:21 +0000";
layers = (
{
layerId = "C0ED9D5D-A651-429A-8F5D-D93A2EDA2DC0";
paths = (
{
closed = 1;
nodes = (
"163 533 LINE",
"532 163 LINE",
"575 206 LINE",
"206 576 LINE"
);
},
{
closed = 1;
nodes = (
"206 163 LINE",
"576 530 LINE",
"530 576 LINE",
"160 209 LINE"
);
}
);
width = 736;
},
{
layerId = "22D14058-393A-410A-BECB-F56B411A01B2";
paths = (
{
closed = 1;
nodes = (
"81 489 LINE",
"464 106 LINE",
"576 217 LINE",
"193 600 LINE"
);
},
{
closed = 1;
nodes = (
"188 107 LINE",
"569 490 LINE",
"458 600 LINE",
"77 217 LINE"
);
}
);
width = 653;
}
);
unicode = 00D7;
userData = {
com.schriftgestaltung.Glyphs.ColorIndex = 3;
public.markColor = "0.97,1,0,1";
};
},
{
color = 3;
glyphname = divide;
lastChange = "2016-08-13 07:58:21 +0000";
layers = (
{
layerId = "C0ED9D5D-A651-429A-8F5D-D93A2EDA2DC0";
paths = (
{
closed = 1;
nodes = (
"383 108 CURVE SMOOTH",
"410 108 OFFCURVE",
"432 130 OFFCURVE",
"432 157 CURVE SMOOTH",
"432 184 OFFCURVE",
"410 206 OFFCURVE",
"383 206 CURVE SMOOTH",
"356 206 OFFCURVE",
"334 184 OFFCURVE",
"334 157 CURVE SMOOTH",
"334 130 OFFCURVE",
"356 108 OFFCURVE"
);
},
{
closed = 1;
nodes = (
"383 534 CURVE SMOOTH",
"410 534 OFFCURVE",
"432 556 OFFCURVE",
"432 583 CURVE SMOOTH",
"432 610 OFFCURVE",
"410 632 OFFCURVE",
"383 632 CURVE SMOOTH",
"356 632 OFFCURVE",
"334 610 OFFCURVE",
"334 583 CURVE SMOOTH",
"334 556 OFFCURVE",
"356 534 OFFCURVE"
);
},
{
closed = 1;
nodes = (
"128 340 LINE",
"637 340 LINE",
"637 400 LINE",
"128 400 LINE"
);
}
);
width = 735;
},
{
layerId = "22D14058-393A-410A-BECB-F56B411A01B2";
paths = (
{
closed = 1;
nodes = (
"296 44 CURVE SMOOTH",
"349 44 OFFCURVE",
"390 85 OFFCURVE",
"390 137 CURVE SMOOTH",
"390 190 OFFCURVE",
"349 231 OFFCURVE",
"296 231 CURVE SMOOTH",
"244 231 OFFCURVE",
"203 190 OFFCURVE",
"203 137 CURVE SMOOTH",
"203 85 OFFCURVE",
"244 44 OFFCURVE"
);
},
{
closed = 1;
nodes = (
"296 469 CURVE SMOOTH",
"349 469 OFFCURVE",
"390 510 OFFCURVE",
"390 562 CURVE SMOOTH",
"390 615 OFFCURVE",
"349 656 OFFCURVE",
"296 656 CURVE SMOOTH",
"244 656 OFFCURVE",
"203 615 OFFCURVE",
"203 562 CURVE SMOOTH",
"203 510 OFFCURVE",
"244 469 OFFCURVE"
);
},
{
closed = 1;
nodes = (
"42 273 LINE",
"552 273 LINE",
"552 427 LINE",
"42 427 LINE"
);
}
);
width = 608;
}
);
unicode = 00F7;
userData = {
com.schriftgestaltung.Glyphs.ColorIndex = 3;
public.markColor = "0.97,1,0,1";
};
},
{
color = 3;
glyphname = equal;
lastChange = "2016-08-13 07:58:21 +0000";
layers = (
{
layerId = "C0ED9D5D-A651-429A-8F5D-D93A2EDA2DC0";
paths = (
{
closed = 1;
nodes = (
"130 237 LINE",
"639 237 LINE",
"639 297 LINE",
"130 297 LINE"
);
},
{
closed = 1;
nodes = (
"130 443 LINE",
"639 443 LINE",
"639 503 LINE",
"130 503 LINE"
);
}
);
width = 769;
},
{
layerId = "22D14058-393A-410A-BECB-F56B411A01B2";
paths = (
{
closed = 1;
nodes = (
"110 145 LINE",
"670 145 LINE",
"670 299 LINE",
"110 299 LINE"
);
},
{
closed = 1;
nodes = (
"110 400 LINE",
"670 400 LINE",
"670 554 LINE",
"110 554 LINE"
);
}
);
width = 780;
}
);
unicode = 003D;
userData = {
com.schriftgestaltung.Glyphs.ColorIndex = 3;
public.markColor = "0.97,1,0,1";
};
},
{
color = 8;
glyphname = notequal;
lastChange = "2016-08-13 07:58:21 +0000";
layers = (
{
components = (
{
name = equal;
}
);
layerId = "C0ED9D5D-A651-429A-8F5D-D93A2EDA2DC0";
paths = (
{
closed = 1;
nodes = (
"130 137 LINE",
"130 137 OFFCURVE",
"204 137 OFFCURVE",
"204 137 CURVE",
"640 603 LINE",
"640 603 OFFCURVE",
"565 603 OFFCURVE",
"565 603 CURVE"
);
}
);
width = 770;
},
{
components = (
{
name = equal;
}
);
layerId = "22D14058-393A-410A-BECB-F56B411A01B2";
paths = (
{
closed = 1;
nodes = (
"110 65 LINE",
"110 65 OFFCURVE",
"206 65 OFFCURVE",
"206 65 CURVE",
"670 634 LINE",
"670 634 OFFCURVE",
"574 634 OFFCURVE",
"574 634 CURVE"
);
}
);
width = 730;
}
);
unicode = 2260;
userData = {
com.schriftgestaltung.Glyphs.ColorIndex = 8;
public.markColor = "0.5,0.09,0.79,1";
};
},
